font.ufo
<glyph name="exclam" format="1">
  <advance width="270"/>
  <unicode hex="0021"/>
  <outline>
    <contour>
      <point x="51" y="697" type="line"/>
      <point x="51" y="518" type="line"/>
      <point x="82" y="242" type="line"/>
      <point x="189" y="242" type="line"/>
      <point x="220" y="518" type="line"/>
      <point x="220" y="697" type="line"/>
    </contour>
    <contour>
      <point x="47" y="77" type="curve" smooth="yes"/>
      <point x="47" y="27"/>
      <point x="82" y="-8"/>
      <point x="131" y="-8" type="curve" smooth="yes"/>
      <point x="182" y="-8"/>
      <point x="217" y="27"/>
      <point x="217" y="77" type="curve" smooth="yes"/>
      <point x="217" y="127"/>
      <point x="182" y="162"/>
      <point x="131" y="162" type="curve" smooth="yes"/>
      <point x="82" y="162"/>
      <point x="47" y="127"/>
    </contour>
  </outline>
</glyph>
<glyph name="numbersign" format="1">
  <advance width="736"/>
  <unicode hex="0023"/>
  <outline>
    <contour>
      <point x="427.25392" y="276" type="line"/>
      <point x="290.8602" y="276" type="line"/>
      <point x="308.03566" y="416.0" type="line"/>
      <point x="444.6291" y="416.0" type="line"/>
    </contour>
    <contour>
      <point x="393.0" y="0" type="line"/>
      <point x="521" y="0" type="line"/>
      <point x="539.89301" y="154" type="line"/>
      <point x="675" y="154" type="line"/>
      <point x="689" y="276" type="line"/>
      <point x="554.8602" y="276" type="line"/>
      <point x="572.03566" y="416.0" type="line"/>
      <point x="708.0" y="416.0" type="line"/>
      <point x="721.0" y="539" type="line"/>
      <point x="587.12553" y="539" type="line"/>
      <point x="607" y="701.0" type="line"/>
      <point x="480.0" y="701.0" type="line"/>
      <point x="459.89444" y="539" type="line"/>
      <point x="323.12553" y="539" type="line"/>
      <point x="343" y="701.0" type="line"/>
      <point x="216.0" y="701.0" type="line"/>
      <point x="195.89444" y="539" type="line"/>
      <point x="61.0" y="539" type="line"/>
      <point x="47.0" y="416.0" type="line"/>
      <point x="180.6291" y="416.0" type="line"/>
      <point x="163.25392" y="276" type="line"/>
      <point x="28.0" y="276" type="line"/>
      <point x="14.0" y="154" type="line"/>
      <point x="148.1127" y="154" type="line"/>
      <point x="129" y="0" type="line"/>
      <point x="257" y="0" type="line"/>
      <point x="275.89301" y="154" type="line"/>
      <point x="412.1127" y="154" type="line"/>
    </contour>
  </outline>
</glyph>
<glyph name="dollar" format="1">
  <advance width="646"/>
  <unicode hex="0024"/>
  <note>
    dollar
  </note>
  <outline>
    <contour>
      <point x="325" y="560" type="curve" smooth="yes"/>
      <point x="383" y="560"/>
      <point x="477" y="527"/>
      <point x="551" y="485" type="curve"/>
      <point x="620" y="630" type="line"/>
      <point x="559" y="669"/>
      <point x="476" y="698"/>
      <point x="391" y="706" type="curve"/>
      <point x="391" y="852" type="line"/>
      <point x="256" y="852" type="line"/>
      <point x="256" y="701" type="line"/>
      <point x="135" y="678"/>
      <point x="60" y="602"/>
      <point x="60" y="495" type="curve" smooth="yes"/>
      <point x="60" y="247"/>
      <point x="429" y="319"/>
      <point x="429" y="200" type="curve" smooth="yes"/>
      <point x="429" y="163"/>
      <point x="395" y="143"/>
      <point x="341" y="143" type="curve" smooth="yes"/>
      <point x="268" y="143"/>
      <point x="159" y="187"/>
      <point x="87" y="249" type="curve"/>
      <point x="16" y="106" type="line"/>
      <point x="80" y="53"/>
      <point x="166" y="16"/>
      <point x="256" y="1" type="curve"/>
      <point x="256" y="-155" type="line"/>
      <point x="391" y="-155" type="line"/>
      <point x="391" y="-3" type="line"/>
      <point x="522" y="12"/>
      <point x="621" y="83"/>
      <point x="621" y="210" type="curve" smooth="yes"/>
      <point x="621" y="462"/>
      <point x="252" y="396"/>
      <point x="252" y="512" type="curve" smooth="yes"/>
      <point x="252" y="544"/>
      <point x="281" y="560"/>
    </contour>
  </outline>
</glyph>
<glyph name="ampersand" format="1">
  <advance width="688"/>
  <unicode hex="0026"/>
  <outline>
    <contour>
      <point x="591.0" y="-31.0" type="curve"/>
      <point x="681" y="57.0" type="line"/>
      <point x="643.469612927" y="92.3081931016"/>
      <point x="609.002705346" y="124.872971733"/>
      <point x="577.41488" y="155.00322" type="curve"/>
      <point x="602.112542686" y="190.732356013"/>
      <point x="623.248135079" y="231.641104214"/>
      <point x="640.0" y="277.0" type="curve"/>
      <point x="528" y="359.0" type="line"/>
      <point x="516.144852081" y="317.940707208"/>
      <point x="500.276534891" y="280.476545221"/>
      <point x="481.38623" y="247.97523" type="curve"/>
      <point x="438.720838644" y="290.134355051"/>
      <point x="403.630438506" y="326.376224183"/>
      <point x="375.23456" y="358.17459" type="curve"/>
      <point x="458.030560017" y="400.587323008"/>
      <point x="539.0" y="451.767142807"/>
      <point x="539.0" y="550.0" type="curve" smooth="yes"/>
      <point x="539" y="643"/>
      <point x="455" y="708"/>
      <point x="337" y="708" type="curve" smooth="yes"/>
      <point x="214" y="708"/>
      <point x="135" y="642"/>
      <point x="135" y="538" type="curve" smooth="yes"/>
      <point x="135.0" y="488.266372502"/>
      <point x="151.358688519" y="441.960279742"/>
      <point x="192.74684" y="383.2826" type="curve"/>
      <point x="119.51436788" y="342.536258992"/>
      <point x="55.0" y="289.83792795"/>
      <point x="55.0" y="196.0" type="curve" smooth="yes"/>
      <point x="55" y="77"/>
      <point x="157" y="-8"/>
      <point x="295" y="-8" type="curve" smooth="yes"/>
      <point x="367.057228257" y="-8.0"/>
      <point x="434.904718457" y="17.4923026755"/>
      <point x="493.11353" y="63.73784" type="curve"/>
      <point x="523.385242906" y="34.3289396343"/>
      <point x="555.967336217" y="2.83496587628"/>
    </contour>
    <contour>
      <point x="274.0" y="539.0" type="curve" smooth="yes"/>
      <point x="274" y="578"/>
      <point x="298" y="607"/>
      <point x="338" y="607" type="curve" smooth="yes"/>
      <point x="375" y="607"/>
      <point x="400" y="583"/>
      <point x="400" y="548" type="curve" smooth="yes"/>
      <point x="400.0" y="501.435457273"/>
      <point x="360.719988417" y="470.924484497"/>
      <point x="308.66802" y="442.60188" type="curve"/>
      <point x="284.493716897" y="479.916133689"/>
      <point x="274.0" y="510.273112817"/>
    </contour>
    <contour>
      <point x="302.0" y="118.0" type="curve" smooth="yes"/>
      <point x="244" y="118"/>
      <point x="200" y="155"/>
      <point x="200" y="210" type="curve" smooth="yes"/>
      <point x="200.0" y="246.868284053"/>
      <point x="225.283547605" y="273.966229651"/>
      <point x="262.04085" y="297.97048" type="curve"/>
      <point x="298.680239331" y="257.03743908"/>
      <point x="344.501071727" y="209.96456092"/>
      <point x="401.0627" y="153.90742" type="curve"/>
      <point x="370.22531273" y="130.835171034"/>
      <point x="336.566425038" y="118.0"/>
    </contour>
  </outline>
</glyph>
<glyph name="quotesingle" format="1">
  <advance width="254"/>
  <unicode hex="0027"/>
  <outline>
    <contour>
      <point x="60" y="701" type="line"/>
      <point x="60" y="424" type="line"/>
      <point x="194" y="424" type="line"/>
      <point x="194" y="701" type="line"/>
    </contour>
  </outline>
</glyph>
<glyph name="parenleft" format="1">
  <advance width="348"/>
  <unicode hex="0028"/>
  <outline>
    <contour>
      <point x="188" y="742" type="line"/>
      <point x="105" y="625"/>
      <point x="60" y="472"/>
      <point x="60" y="309" type="curve" smooth="yes"/>
      <point x="60" y="146"/>
      <point x="105" y="-7"/>
      <point x="188" y="-124" type="curve"/>
      <point x="348" y="-124" type="line"/>
      <point x="275" y="-7"/>
      <point x="227" y="146"/>
      <point x="227" y="309" type="curve" smooth="yes"/>
      <point x="227" y="472"/>
      <point x="275" y="625"/>
      <point x="348" y="742" type="curve"/>
    </contour>
  </outline>
</glyph>
<glyph name="plus" format="1">
  <advance width="511"/>
  <unicode hex="002B"/>
  <outline>
    <contour>
      <point x="478.0" y="270" type="line"/>
      <point x="478.0" y="384.0" type="line"/>
      <point x="311" y="384.0" type="line"/>
      <point x="311" y="551" type="line"/>
      <point x="199.0" y="551" type="line"/>
      <point x="199.0" y="384.0" type="line"/>
      <point x="32" y="384.0" type="line"/>
      <point x="32" y="270" type="line"/>
      <point x="199.0" y="270" type="line"/>
      <point x="199.0" y="104.0" type="line"/>
      <point x="311" y="104.0" type="line"/>
      <point x="311" y="270" type="line"/>
    </contour>
  </outline>
</glyph>
<glyph name="hyphen" format="1">
  <advance width="375"/>
  <unicode hex="002D"/>
  <outline>
    <contour>
      <point x="55" y="363" type="line"/>
      <point x="55" y="251" type="line"/>
      <point x="320" y="251" type="line"/>
      <point x="320" y="363" type="line"/>
    </contour>
  </outline>
</glyph>
<glyph name="period" format="1">
  <advance width="243"/>
  <unicode hex="002E"/>
  <outline>
    <contour>
      <point x="37" y="77" type="curve" smooth="yes"/>
      <point x="37" y="27"/>
      <point x="72" y="-8"/>
      <point x="121" y="-8" type="curve" smooth="yes"/>
      <point x="172" y="-8"/>
      <point x="207" y="27"/>
      <point x="207" y="77" type="curve" smooth="yes"/>
      <point x="207" y="127"/>
      <point x="172" y="162"/>
      <point x="121" y="162" type="curve" smooth="yes"/>
      <point x="72" y="162"/>
      <point x="37" y="127"/>
    </contour>
  </outline>
</glyph>
<glyph name="slash" format="1">
  <advance width="355"/>
  <unicode hex="002F"/>
  <outline>
    <contour>
      <point x="287" y="811" type="line"/>
      <point x="-37" y="-110" type="line"/>
      <point x="112" y="-110" type="line"/>
      <point x="436" y="811" type="line"/>
    </contour>
  </outline>
</glyph>
<glyph name="zero" format="1">
  <advance width="617"/>
  <unicode hex="0030"/>
  <note>
    zero
  </note>
  <outline>
    <contour>
      <point x="34" y="351" type="curve" smooth="yes"/>
      <point x="34" y="122"/>
      <point x="131" y="-5"/>
      <point x="309" y="-5" type="curve" smooth="yes"/>
      <point x="485" y="-5"/>
      <point x="583" y="122"/>
      <point x="583" y="351" type="curve" smooth="yes"/>
      <point x="583" y="580"/>
      <point x="485" y="706"/>
      <point x="309" y="706" type="curve" smooth="yes"/>
      <point x="131" y="706"/>
      <point x="34" y="580"/>
    </contour>
    <contour>
      <point x="408" y="351" type="curve" smooth="yes"/>
      <point x="408" y="191"/>
      <point x="379" y="124"/>
      <point x="309" y="124" type="curve" smooth="yes"/>
      <point x="238" y="124"/>
      <point x="209" y="191"/>
      <point x="209" y="351" type="curve" smooth="yes"/>
      <point x="209" y="512"/>
      <point x="238" y="578"/>
      <point x="309" y="578" type="curve" smooth="yes"/>
      <point x="379" y="578"/>
      <point x="408" y="512"/>
    </contour>
  </outline>
</glyph>
<glyph name="one" format="1">
  <advance width="617"/>
  <unicode hex="0031"/>
  <note>
    one
  </note>
  <outline>
    <contour>
      <point x="410" y="0" type="line"/>
      <point x="410" y="701" type="line"/>
      <point x="92" y="701" type="line"/>
      <point x="92" y="551" type="line"/>
      <point x="227" y="551" type="line"/>
      <point x="227" y="0" type="line"/>
    </contour>
  </outline>
</glyph>
<glyph name="two" format="1">
  <advance width="617"/>
  <unicode hex="0032"/>
  <note>
    two
  </note>
  <outline>
    <contour>
      <point x="25" y="604" type="curve"/>
      <point x="94" y="469" type="line"/>
      <point x="159" y="524"/>
      <point x="231" y="558"/>
      <point x="288" y="558" type="curve" smooth="yes"/>
      <point x="339" y="558"/>
      <point x="368" y="536"/>
      <point x="368" y="498" type="curve" smooth="yes"/>
      <point x="368" y="468"/>
      <point x="339" y="423"/>
      <point x="300" y="383" type="curve" smooth="yes"/>
      <point x="45" y="121" type="line"/>
      <point x="46" y="0" type="line"/>
      <point x="580" y="0" type="line"/>
      <point x="580" y="147" type="line"/>
      <point x="280" y="147" type="line"/>
      <point x="424" y="291" type="line" smooth="yes"/>
      <point x="502" y="370"/>
      <point x="560" y="449"/>
      <point x="560" y="525" type="curve" smooth="yes"/>
      <point x="560" y="636"/>
      <point x="457" y="710"/>
      <point x="315" y="710" type="curve" smooth="yes"/>
      <point x="213" y="710"/>
      <point x="115" y="670"/>
    </contour>
  </outline>
</glyph>
<glyph name="three" format="1">
  <advance width="617"/>
  <unicode hex="0033"/>
  <note>
    three
  </note>
  <outline>
    <contour>
      <point x="347" y="418" type="line"/>
      <point x="536" y="594" type="line"/>
      <point x="536" y="700" type="line"/>
      <point x="46" y="700" type="line"/>
      <point x="47" y="559" type="line"/>
      <point x="317" y="559" type="line"/>
      <point x="153" y="402" type="line"/>
      <point x="153" y="304" type="line"/>
      <point x="271" y="304" type="line" smooth="yes"/>
      <point x="349" y="304"/>
      <point x="392" y="275"/>
      <point x="392" y="219" type="curve" smooth="yes"/>
      <point x="392" y="164"/>
      <point x="349" y="132"/>
      <point x="272" y="132" type="curve" smooth="yes"/>
      <point x="205" y="132"/>
      <point x="139" y="162"/>
      <point x="84" y="219" type="curve"/>
      <point x="10" y="78" type="line"/>
      <point x="78" y="26"/>
      <point x="184" y="-8"/>
      <point x="286" y="-8" type="curve" smooth="yes"/>
      <point x="460" y="-8"/>
      <point x="571" y="86"/>
      <point x="571" y="221" type="curve" smooth="yes"/>
      <point x="571" y="328"/>
      <point x="493" y="396"/>
      <point x="382" y="413" type="curve" smooth="yes"/>
    </contour>
  </outline>
</glyph>
<glyph name="four" format="1">
  <advance width="617"/>
  <unicode hex="0034"/>
  <note>
    four
  </note>
  <outline>
    <contour>
      <point x="236" y="702" type="line"/>
      <point x="28" y="275" type="line"/>
      <point x="28" y="152" type="line"/>
      <point x="345" y="152" type="line"/>
      <point x="345" y="0" type="line"/>
      <point x="513" y="0" type="line"/>
      <point x="513" y="152" type="line"/>
      <point x="603" y="152" type="line"/>
      <point x="603" y="291" type="line"/>
      <point x="513" y="291" type="line"/>
      <point x="513" y="439" type="line"/>
      <point x="345" y="439" type="line"/>
      <point x="346" y="291" type="line"/>
      <point x="215" y="291" type="line"/>
      <point x="410" y="702" type="line"/>
    </contour>
  </outline>
</glyph>
<glyph name="five" format="1">
  <advance width="617"/>
  <unicode hex="0035"/>
  <note>
    five
  </note>
  <outline>
    <contour>
      <point x="78" y="702" type="line"/>
      <point x="78" y="302" type="line"/>
      <point x="122" y="305"/>
      <point x="237" y="306"/>
      <point x="274" y="306" type="curve" smooth="yes"/>
      <point x="344" y="306"/>
      <point x="384" y="276"/>
      <point x="384" y="223" type="curve" smooth="yes"/>
      <point x="384" y="166"/>
      <point x="344" y="134"/>
      <point x="273" y="134" type="curve" smooth="yes"/>
      <point x="209" y="134"/>
      <point x="145" y="164"/>
      <point x="90" y="222" type="curve"/>
      <point x="17" y="80" type="line"/>
      <point x="93" y="27"/>
      <point x="201" y="-8"/>
      <point x="295" y="-8" type="curve" smooth="yes"/>
      <point x="468" y="-8"/>
      <point x="581" y="88"/>
      <point x="581" y="236" type="curve" smooth="yes"/>
      <point x="581" y="361"/>
      <point x="474" y="448"/>
      <point x="309" y="448" type="curve" smooth="yes"/>
      <point x="295" y="448"/>
      <point x="261" y="448"/>
      <point x="246" y="447" type="curve"/>
      <point x="246" y="554" type="line"/>
      <point x="549" y="554" type="line"/>
      <point x="549" y="702" type="line"/>
    </contour>
  </outline>
</glyph>
<glyph name="six" format="1">
  <advance width="617"/>
  <unicode hex="0036"/>
  <note>
    six
  </note>
  <outline>
    <contour>
      <point x="38" y="340" type="curve" smooth="yes"/>
      <point x="38" y="125"/>
      <point x="150" y="-8"/>
      <point x="336" y="-8" type="curve" smooth="yes"/>
      <point x="490" y="-8"/>
      <point x="594" y="86"/>
      <point x="594" y="234" type="curve" smooth="yes"/>
      <point x="594" y="371"/>
      <point x="506" y="461"/>
      <point x="370" y="461" type="curve" smooth="yes"/>
      <point x="294" y="461"/>
      <point x="240" y="433"/>
      <point x="207" y="386" type="curve"/>
      <point x="205" y="500"/>
      <point x="258" y="570"/>
      <point x="367" y="570" type="curve" smooth="yes"/>
      <point x="421" y="570"/>
      <point x="472" y="554"/>
      <point x="512" y="525" type="curve"/>
      <point x="579" y="651" type="line"/>
      <point x="521" y="687"/>
      <point x="434" y="709"/>
      <point x="356" y="709" type="curve" smooth="yes"/>
      <point x="163" y="709"/>
      <point x="38" y="564"/>
    </contour>
    <contour>
      <point x="429" y="235" type="curve" smooth="yes"/>
      <point x="429" y="171"/>
      <point x="391" y="136"/>
      <point x="329" y="136" type="curve" smooth="yes"/>
      <point x="258" y="136"/>
      <point x="226" y="181"/>
      <point x="226" y="232" type="curve" smooth="yes"/>
      <point x="226" y="289"/>
      <point x="264" y="330"/>
      <point x="331" y="330" type="curve" smooth="yes"/>
      <point x="393" y="330"/>
      <point x="429" y="294"/>
    </contour>
  </outline>
</glyph>
<glyph name="seven" format="1">
  <advance width="617"/>
  <unicode hex="0037"/>
  <note>
    seven
  </note>
  <outline>
    <contour>
      <point x="37" y="702" type="line"/>
      <point x="37" y="456" type="line"/>
      <point x="199" y="456" type="line"/>
      <point x="199" y="554" type="line"/>
      <point x="395" y="554" type="line"/>
      <point x="139" y="0" type="line"/>
      <point x="332" y="0" type="line"/>
      <point x="596" y="575" type="line"/>
      <point x="596" y="702" type="line"/>
    </contour>
  </outline>
</glyph>
<glyph name="eight" format="1">
  <advance width="617"/>
  <unicode hex="0038"/>
  <note>
    eight
  </note>
  <outline>
    <contour>
      <point x="62" y="525" type="curve" smooth="yes"/>
      <point x="62" y="466"/>
      <point x="98" y="409"/>
      <point x="155" y="376" type="curve"/>
      <point x="77" y="343"/>
      <point x="27" y="274"/>
      <point x="27" y="195" type="curve" smooth="yes"/>
      <point x="27" y="71"/>
      <point x="137" y="-8"/>
      <point x="308" y="-8" type="curve" smooth="yes"/>
      <point x="480" y="-8"/>
      <point x="591" y="72"/>
      <point x="591" y="198" type="curve" smooth="yes"/>
      <point x="591" y="276"/>
      <point x="544" y="343"/>
      <point x="471" y="376" type="curve"/>
      <point x="523" y="406"/>
      <point x="555" y="461"/>
      <point x="555" y="520" type="curve" smooth="yes"/>
      <point x="555" y="636"/>
      <point x="459" y="710"/>
      <point x="307" y="710" type="curve" smooth="yes"/>
      <point x="159" y="710"/>
      <point x="62" y="638"/>
    </contour>
    <contour>
      <point x="402" y="510" type="curve" smooth="yes"/>
      <point x="402" y="462"/>
      <point x="369" y="435"/>
      <point x="308" y="435" type="curve" smooth="yes"/>
      <point x="248" y="435"/>
      <point x="215" y="462"/>
      <point x="215" y="510" type="curve" smooth="yes"/>
      <point x="215" y="560"/>
      <point x="248" y="587"/>
      <point x="308" y="587" type="curve" smooth="yes"/>
      <point x="369" y="587"/>
      <point x="402" y="560"/>
    </contour>
    <contour>
      <point x="420" y="214" type="curve" smooth="yes"/>
      <point x="420" y="157"/>
      <point x="380" y="126"/>
      <point x="308" y="126" type="curve" smooth="yes"/>
      <point x="237" y="126"/>
      <point x="198" y="157"/>
      <point x="198" y="214" type="curve" smooth="yes"/>
      <point x="198" y="270"/>
      <point x="237" y="301"/>
      <point x="309" y="301" type="curve" smooth="yes"/>
      <point x="380" y="301"/>
      <point x="420" y="270"/>
    </contour>
  </outline>
</glyph>
<glyph name="nine" format="1">
  <advance width="617"/>
  <unicode hex="0039"/>
  <note>
    nine
  </note>
  <outline>
    <contour>
      <point x="190" y="467" type="curve" smooth="yes"/>
      <point x="190" y="530"/>
      <point x="228" y="566"/>
      <point x="290" y="566" type="curve" smooth="yes"/>
      <point x="360" y="566"/>
      <point x="392" y="521"/>
      <point x="391" y="470" type="curve" smooth="yes"/>
      <point x="392" y="413"/>
      <point x="355" y="371"/>
      <point x="287" y="371" type="curve" smooth="yes"/>
      <point x="225" y="371"/>
      <point x="190" y="407"/>
    </contour>
    <contour>
      <point x="580" y="362" type="curve" smooth="yes"/>
      <point x="580" y="577"/>
      <point x="468" y="709"/>
      <point x="283" y="709" type="curve" smooth="yes"/>
      <point x="128" y="709"/>
      <point x="26" y="616"/>
      <point x="26" y="468" type="curve" smooth="yes"/>
      <point x="26" y="331"/>
      <point x="112" y="240"/>
      <point x="248" y="240" type="curve" smooth="yes"/>
      <point x="324" y="240"/>
      <point x="378" y="269"/>
      <point x="411" y="316" type="curve"/>
      <point x="413" y="201"/>
      <point x="360" y="131"/>
      <point x="251" y="131" type="curve" smooth="yes"/>
      <point x="198" y="131"/>
      <point x="147" y="147"/>
      <point x="107" y="176" type="curve"/>
      <point x="39" y="50" type="line"/>
      <point x="98" y="15"/>
      <point x="185" y="-8"/>
      <point x="262" y="-8" type="curve" smooth="yes"/>
      <point x="456" y="-8"/>
      <point x="580" y="138"/>
    </contour>
  </outline>
</glyph>
<glyph name="less" format="1">
  <advance width="511"/>
  <unicode hex="003C"/>
  <outline>
    <contour>
      <point x="32" y="397" type="line"/>
      <point x="32" y="251" type="line"/>
      <point x="478" y="66" type="line"/>
      <point x="478" y="193" type="line"/>
      <point x="147" y="324" type="line"/>
      <point x="478" y="455" type="line"/>
      <point x="478" y="582" type="line"/>
    </contour>
  </outline>
</glyph>
<glyph name="equal" format="1">
  <advance width="511"/>
  <unicode hex="003D"/>
  <outline>
    <contour>
      <point x="32" y="492" type="line"/>
      <point x="32" y="378" type="line"/>
      <point x="478" y="378" type="line"/>
      <point x="478" y="492" type="line"/>
    </contour>
    <contour>
      <point x="32" y="276" type="line"/>
      <point x="32" y="162" type="line"/>
      <point x="478" y="162" type="line"/>
      <point x="478" y="276" type="line"/>
    </contour>
  </outline>
</glyph>
<glyph name="greater" format="1">
  <advance width="511"/>
  <unicode hex="003E"/>
  <outline>
    <contour>
      <point x="478" y="259" type="line"/>
      <point x="478" y="405" type="line"/>
      <point x="32" y="590" type="line"/>
      <point x="32" y="463" type="line"/>
      <point x="363" y="332" type="line"/>
      <point x="32" y="201" type="line"/>
      <point x="32" y="74" type="line"/>
    </contour>
  </outline>
</glyph>
<glyph name="question" format="1">
  <advance width="474"/>
  <unicode hex="003F"/>
  <outline>
    <contour>
      <point x="140" y="473" type="line"/>
      <point x="141" y="534"/>
      <point x="168" y="563"/>
      <point x="217" y="563" type="curve" smooth="yes"/>
      <point x="260" y="563"/>
      <point x="286" y="543"/>
      <point x="286" y="501" type="curve" smooth="yes"/>
      <point x="286" y="403"/>
      <point x="164" y="395"/>
      <point x="164" y="240" type="curve"/>
      <point x="297" y="240" type="line"/>
      <point x="297" y="359"/>
      <point x="450" y="378"/>
      <point x="450" y="529" type="curve" smooth="yes"/>
      <point x="450" y="641"/>
      <point x="367" y="704"/>
      <point x="233" y="704" type="curve" smooth="yes"/>
      <point x="91" y="704"/>
      <point x="5" y="619"/>
      <point x="3" y="474" type="curve"/>
    </contour>
    <contour>
      <point x="142" y="77" type="curve" smooth="yes"/>
      <point x="142" y="27"/>
      <point x="177" y="-8"/>
      <point x="226" y="-8" type="curve" smooth="yes"/>
      <point x="277" y="-8"/>
      <point x="312" y="27"/>
      <point x="312" y="77" type="curve" smooth="yes"/>
      <point x="312" y="127"/>
      <point x="277" y="162"/>
      <point x="226" y="162" type="curve" smooth="yes"/>
      <point x="177" y="162"/>
      <point x="142" y="127"/>
    </contour>
  </outline>
</glyph>
<glyph name="at" format="1">
  <advance width="911"/>
  <unicode hex="0040"/>
  <outline>
    <contour>
      <point x="23" y="268" type="curve" smooth="yes"/>
      <point x="23" y="29"/>
      <point x="207" y="-149"/>
      <point x="450" y="-149" type="curve" smooth="yes"/>
      <point x="527" y="-149"/>
      <point x="626" y="-120"/>
      <point x="684" y="-75" type="curve"/>
      <point x="637" y="5" type="line"/>
      <point x="581" y="-37"/>
      <point x="507" y="-56"/>
      <point x="450" y="-56" type="curve" smooth="yes"/>
      <point x="264" y="-56"/>
      <point x="122" y="82"/>
      <point x="122" y="268" type="curve" smooth="yes"/>
      <point x="122" y="456"/>
      <point x="273" y="609"/>
      <point x="462" y="609" type="curve" smooth="yes"/>
      <point x="669" y="609"/>
      <point x="790" y="461"/>
      <point x="790" y="271" type="curve" smooth="yes"/>
      <point x="790" y="176"/>
      <point x="750" y="110"/>
      <point x="709" y="110" type="curve" smooth="yes"/>
      <point x="687" y="110"/>
      <point x="672" y="123"/>
      <point x="672" y="159" type="curve" smooth="yes"/>
      <point x="672" y="494" type="line"/>
      <point x="549" y="494" type="line"/>
      <point x="549" y="443" type="line"/>
      <point x="544" y="452"/>
      <point x="494" y="505"/>
      <point x="415" y="505" type="curve" smooth="yes"/>
      <point x="291" y="505"/>
      <point x="211" y="398"/>
      <point x="211" y="270" type="curve" smooth="yes"/>
      <point x="211" y="131"/>
      <point x="317" y="39"/>
      <point x="429" y="39" type="curve" smooth="yes"/>
      <point x="484" y="39"/>
      <point x="539" y="63"/>
      <point x="578" y="118" type="curve"/>
      <point x="580" y="106" type="line" smooth="yes"/>
      <point x="593" y="52"/>
      <point x="636" y="29"/>
      <point x="697" y="29" type="curve" smooth="yes"/>
      <point x="808" y="29"/>
      <point x="888" y="125"/>
      <point x="888" y="274" type="curve" smooth="yes"/>
      <point x="888" y="520"/>
      <point x="706" y="700"/>
      <point x="462" y="700" type="curve" smooth="yes"/>
      <point x="217" y="700"/>
      <point x="23" y="511"/>
    </contour>
    <contour>
      <point x="541" y="274" type="curve" smooth="yes"/>
      <point x="541" y="207"/>
      <point x="504" y="151"/>
      <point x="442" y="151" type="curve" smooth="yes"/>
      <point x="383" y="151"/>
      <point x="346" y="209"/>
      <point x="346" y="275" type="curve" smooth="yes"/>
      <point x="346" y="338"/>
      <point x="383" y="391"/>
      <point x="440" y="391" type="curve" smooth="yes"/>
      <point x="503" y="391"/>
      <point x="541" y="339"/>
    </contour>
  </outline>
</glyph>
<glyph name="A" format="1">
  <advance width="773"/>
  <unicode hex="0041"/>
  <outline>
    <contour>
      <point x="791" y="10" type="move" name="ogonek"/>
    </contour>
    <contour>
      <point x="387" y="701" type="move" name="abvm"/>
    </contour>
    <contour>
      <point x="384.0" y="514" type="line"/>
      <point x="480.78988" y="264" type="line"/>
      <point x="286.23735" y="264" type="line"/>
    </contour>
    <contour>
      <point x="583" y="0" type="line"/>
      <point x="778.0" y="0" type="line"/>
      <point x="484.0" y="701.0" type="line"/>
      <point x="296" y="701.0" type="line"/>
      <point x="-6.0" y="0" type="line"/>
      <point x="183.0" y="0" type="line"/>
      <point x="231.49027" y="124.0" type="line"/>
      <point x="534.99222" y="124.0" type="line"/>
    </contour>
  </outline>
</glyph>
<glyph name="B" format="1">
  <advance width="716"/>
  <unicode hex="0042"/>
  <outline>
    <contour>
      <point x="68" y="701" type="line"/>
      <point x="68" y="0" type="line"/>
      <point x="413.993" y="0" type="line" smooth="yes"/>
      <point x="579" y="0"/>
      <point x="684" y="75"/>
      <point x="684" y="195" type="curve" smooth="yes"/>
      <point x="684" y="285"/>
      <point x="629" y="354"/>
      <point x="540" y="372" type="curve"/>
      <point x="614" y="392"/>
      <point x="661" y="451"/>
      <point x="661" y="524" type="curve" smooth="yes"/>
      <point x="661" y="632"/>
      <point x="560" y="701"/>
      <point x="401" y="701" type="curve" smooth="yes"/>
    </contour>
    <contour>
      <point x="473" y="492" type="curve" smooth="yes"/>
      <point x="473" y="448"/>
      <point x="441" y="422"/>
      <point x="391" y="422" type="curve" smooth="yes"/>
      <point x="250" y="422" type="line"/>
      <point x="250" y="558" type="line"/>
      <point x="391" y="558" type="line" smooth="yes"/>
      <point x="441" y="558"/>
      <point x="473" y="534"/>
    </contour>
    <contour>
      <point x="494" y="218" type="curve" smooth="yes"/>
      <point x="494" y="170"/>
      <point x="455" y="142"/>
      <point x="391" y="142" type="curve" smooth="yes"/>
      <point x="250" y="142" type="line"/>
      <point x="250" y="290" type="line"/>
      <point x="391" y="290" type="line" smooth="yes"/>
      <point x="455" y="290"/>
      <point x="494" y="262"/>
    </contour>
  </outline>
</glyph>
<glyph name="C" format="1">
  <advance width="692"/>
  <unicode hex="0043"/>
  <outline>
    <contour>
      <point x="374" y="0" type="move" name="blwm"/>
    </contour>
    <contour>
      <point x="385" y="701" type="move" name="abvm"/>
    </contour>
    <contour>
      <point x="23" y="352" type="curve" smooth="yes"/>
      <point x="23" y="146"/>
      <point x="180" y="-8"/>
      <point x="391" y="-8" type="curve" smooth="yes"/>
      <point x="495" y="-8"/>
      <point x="606" y="43"/>
      <point x="681" y="122" type="curve"/>
      <point x="575" y="237" type="line"/>
      <point x="526" y="187"/>
      <point x="459" y="155"/>
      <point x="400" y="155" type="curve" smooth="yes"/>
      <point x="292" y="155"/>
      <point x="210" y="241"/>
      <point x="210" y="354" type="curve" smooth="yes"/>
      <point x="210" y="466"/>
      <point x="292" y="551"/>
      <point x="400" y="551" type="curve" smooth="yes"/>
      <point x="462" y="551"/>
      <point x="529" y="515"/>
      <point x="575" y="459" type="curve"/>
      <point x="681" y="586" type="line"/>
      <point x="611" y="660"/>
      <point x="501" y="706"/>
      <point x="398" y="706" type="curve" smooth="yes"/>
      <point x="183" y="706"/>
      <point x="23" y="554"/>
    </contour>
  </outline>
</glyph>
<glyph name="D" format="1">
  <advance width="766"/>
  <unicode hex="0044"/>
  <outline>
    <contour>
      <point x="378" y="351" type="move" name="center"/>
    </contour>
    <contour>
      <point x="358" y="701" type="move" name="abvm"/>
    </contour>
    <contour>
      <point x="68" y="701" type="line"/>
      <point x="68" y="0" type="line"/>
      <point x="363" y="0" type="line" smooth="yes"/>
      <point x="590" y="0"/>
      <point x="743" y="142"/>
      <point x="743" y="351" type="curve" smooth="yes"/>
      <point x="743" y="559"/>
      <point x="592" y="701"/>
      <point x="370" y="701" type="curve" smooth="yes"/>
    </contour>
    <contour>
      <point x="556" y="349" type="curve" smooth="yes"/>
      <point x="556" y="229"/>
      <point x="481" y="148"/>
      <point x="375" y="148" type="curve" smooth="yes"/>
      <point x="251" y="148" type="line"/>
      <point x="251" y="552" type="line"/>
      <point x="366" y="552" type="line" smooth="yes"/>
      <point x="477" y="552"/>
      <point x="556" y="470"/>
    </contour>
  </outline>
</glyph>
<glyph name="E" format="1">
  <advance width="675"/>
  <unicode hex="0045"/>
  <outline>
    <contour>
      <point x="343" y="0" type="move" name="blwm"/>
    </contour>
    <contour>
      <point x="625" y="10" type="move" name="ogonek"/>
    </contour>
    <contour>
      <point x="346" y="701" type="move" name="abvm"/>
    </contour>
    <contour>
      <point x="68" y="701" type="line"/>
      <point x="68" y="0" type="line"/>
      <point x="631" y="0" type="line"/>
      <point x="631" y="146" type="line"/>
      <point x="251" y="146" type="line"/>
      <point x="251" y="278" type="line"/>
      <point x="585" y="278" type="line"/>
      <point x="585" y="424" type="line"/>
      <point x="251" y="424" type="line"/>
      <point x="251" y="555" type="line"/>
      <point x="621" y="555" type="line"/>
      <point x="621" y="701" type="line"/>
    </contour>
  </outline>
</glyph>
<glyph name="F" format="1">
  <advance width="607"/>
  <unicode hex="0046"/>
  <outline>
    <contour>
      <point x="68" y="701" type="line"/>
      <point x="68" y="0" type="line"/>
      <point x="251" y="0" type="line"/>
      <point x="251" y="253" type="line"/>
      <point x="565" y="253" type="line"/>
      <point x="565" y="399" type="line"/>
      <point x="251" y="399" type="line"/>
      <point x="251" y="555" type="line"/>
      <point x="591" y="555" type="line"/>
      <point x="592" y="701" type="line"/>
    </contour>
  </outline>
</glyph>
<glyph name="G" format="1">
  <advance width="743"/>
  <unicode hex="0047"/>
  <outline>
    <contour>
      <point x="392" y="0" type="move" name="blwm"/>
    </contour>
    <contour>
      <point x="392" y="701" type="move" name="abvm"/>
    </contour>
    <contour>
      <point x="690" y="82" type="curve"/>
      <point x="690" y="358.0" type="line"/>
      <point x="532" y="358.0" type="line"/>
      <point x="532" y="180.56964" type="line"/>
      <point x="490.360169788" y="160.25602983"/>
      <point x="445.701920149" y="148.0"/>
      <point x="410.0" y="148.0" type="curve" smooth="yes"/>
      <point x="297" y="148"/>
      <point x="210" y="235"/>
      <point x="210" y="350" type="curve" smooth="yes"/>
      <point x="210" y="464"/>
      <point x="296" y="551"/>
      <point x="409" y="551" type="curve" smooth="yes"/>
      <point x="473" y="551"/>
      <point x="544" y="521"/>
      <point x="594" y="474" type="curve"/>
      <point x="698.0" y="602" type="line"/>
      <point x="625" y="666"/>
      <point x="515" y="706"/>
      <point x="409" y="706" type="curve" smooth="yes"/>
      <point x="188" y="706"/>
      <point x="23" y="554"/>
      <point x="23" y="350" type="curve" smooth="yes"/>
      <point x="23" y="146"/>
      <point x="183" y="-8"/>
      <point x="398" y="-8" type="curve" smooth="yes"/>
      <point x="496" y="-8"/>
      <point x="615" y="30"/>
    </contour>
  </outline>
</glyph>
<glyph name="H" format="1">
  <advance width="785"/>
  <unicode hex="0048"/>
  <outline>
    <contour>
      <point x="393" y="351" type="move" name="center"/>
    </contour>
    <contour>
      <point x="401" y="701" type="move" name="abvm"/>
    </contour>
    <contour>
      <point x="534" y="701" type="line"/>
      <point x="534" y="415" type="line"/>
      <point x="251" y="415" type="line"/>
      <point x="251" y="701" type="line"/>
      <point x="68" y="701" type="line"/>
      <point x="68" y="0" type="line"/>
      <point x="251" y="0" type="line"/>
      <point x="251" y="269" type="line"/>
      <point x="534" y="269" type="line"/>
      <point x="534" y="0" type="line"/>
      <point x="717" y="0" type="line"/>
      <point x="717" y="701" type="line"/>
    </contour>
  </outline>
</glyph>
<glyph name="I" format="1">
  <advance width="319"/>
  <unicode hex="0049"/>
  <outline>
    <contour>
      <point x="278" y="10" type="move" name="ogonek"/>
    </contour>
    <contour>
      <point x="160" y="701" type="move" name="abvm"/>
    </contour>
    <contour>
      <point x="68" y="701" type="line"/>
      <point x="68" y="0" type="line"/>
      <point x="251" y="0" type="line"/>
      <point x="251" y="701" type="line"/>
    </contour>
  </outline>
</glyph>
<glyph name="J" format="1">
  <advance width="539"/>
  <unicode hex="004A"/>
  <outline>
    <contour>
      <point x="268" y="701" type="move" name="abvm"/>
    </contour>
    <contour>
      <point x="59" y="701" type="line"/>
      <point x="59" y="550" type="line"/>
      <point x="299" y="550" type="line"/>
      <point x="299" y="232" type="line" smooth="yes"/>
      <point x="299" y="179"/>
      <point x="271" y="151"/>
      <point x="225" y="151" type="curve" smooth="yes"/>
      <point x="185" y="151"/>
      <point x="129" y="177"/>
      <point x="78" y="230" type="curve"/>
      <point x="-6" y="105" type="line"/>
      <point x="57" y="33"/>
      <point x="138" y="-8"/>
      <point x="238" y="-8" type="curve" smooth="yes"/>
      <point x="388" y="-8"/>
      <point x="483" y="78"/>
      <point x="483" y="228" type="curve" smooth="yes"/>
      <point x="483" y="701" type="line"/>
    </contour>
  </outline>
</glyph>
<glyph name="K" format="1">
  <advance width="749"/>
  <unicode hex="004B"/>
  <outline>
    <contour>
      <point x="364" y="0" type="move" name="blwm"/>
    </contour>
    <contour>
      <point x="364" y="701" type="move" name="abvm"/>
    </contour>
    <contour>
      <point x="251.0" y="171" type="line"/>
      <point x="340.70088" y="271.0873" type="line"/>
      <point x="523" y="0" type="line"/>
      <point x="742.0" y="0" type="line"/>
      <point x="466.46066" y="411.40874" type="line"/>
      <point x="726.0" y="701.0" type="line"/>
      <point x="514" y="701.0" type="line"/>
      <point x="251.0" y="407.0" type="line"/>
      <point x="251.0" y="701.0" type="line"/>
      <point x="68" y="701.0" type="line"/>
      <point x="68" y="0" type="line"/>
      <point x="251.0" y="0" type="line"/>
    </contour>
  </outline>
</glyph>
<glyph name="L" format="1">
  <advance width="563"/>
  <unicode hex="004C"/>
  <outline>
    <contour>
      <point x="291" y="0" type="move" name="blwm"/>
    </contour>
    <contour>
      <point x="156" y="701" type="move" name="abvm"/>
    </contour>
    <contour>
      <point x="68" y="701" type="line"/>
      <point x="68" y="0" type="line"/>
      <point x="548" y="0" type="line"/>
      <point x="548" y="156" type="line"/>
      <point x="251" y="156" type="line"/>
      <point x="251" y="701" type="line"/>
    </contour>
  </outline>
</glyph>
<glyph name="M" format="1">
  <advance width="908"/>
  <unicode hex="004D"/>
  <outline>
    <contour>
      <point x="640" y="701" type="line"/>
      <point x="454" y="292" type="line"/>
      <point x="268" y="701" type="line"/>
      <point x="68" y="701" type="line"/>
      <point x="68" y="0" type="line"/>
      <point x="231" y="0" type="line"/>
      <point x="231" y="444" type="line"/>
      <point x="394" y="70" type="line"/>
      <point x="514" y="70" type="line"/>
      <point x="677" y="444" type="line"/>
      <point x="678" y="0" type="line"/>
      <point x="840" y="0" type="line"/>
      <point x="840" y="701" type="line"/>
    </contour>
  </outline>
</glyph>
<glyph name="N" format="1">
  <advance width="786"/>
  <unicode hex="004E"/>
  <outline>
    <contour>
      <point x="393" y="0" type="move" name="blwm"/>
    </contour>
    <contour>
      <point x="393" y="701" type="move" name="abvm"/>
    </contour>
    <contour>
      <point x="547" y="701" type="line"/>
      <point x="547" y="279" type="line"/>
      <point x="229" y="701" type="line"/>
      <point x="68" y="701" type="line"/>
      <point x="68" y="0" type="line"/>
      <point x="239" y="0" type="line"/>
      <point x="239" y="420" type="line"/>
      <point x="557" y="0" type="line"/>
      <point x="717" y="0" type="line"/>
      <point x="717" y="701" type="line"/>
    </contour>
  </outline>
</glyph>
<glyph name="O" format="1">
  <advance width="804"/>
  <unicode hex="004F"/>
  <outline>
    <contour>
      <point x="394" y="701" type="move" name="abvm"/>
    </contour>
    <contour>
      <point x="23" y="351" type="curve" smooth="yes"/>
      <point x="23" y="146"/>
      <point x="185" y="-8"/>
      <point x="402" y="-8" type="curve" smooth="yes"/>
      <point x="619" y="-8"/>
      <point x="781" y="146"/>
      <point x="781" y="351" type="curve" smooth="yes"/>
      <point x="781" y="554"/>
      <point x="619" y="706"/>
      <point x="402" y="706" type="curve" smooth="yes"/>
      <point x="185" y="706"/>
      <point x="23" y="555"/>
    </contour>
    <contour>
      <point x="594" y="350" type="curve" smooth="yes"/>
      <point x="594" y="236"/>
      <point x="509" y="148"/>
      <point x="405" y="148" type="curve" smooth="yes"/>
      <point x="300" y="148"/>
      <point x="211" y="236"/>
      <point x="211" y="350" type="curve" smooth="yes"/>
      <point x="211" y="464"/>
      <point x="299" y="550"/>
      <point x="405" y="550" type="curve" smooth="yes"/>
      <point x="509" y="550"/>
      <point x="594" y="464"/>
    </contour>
  </outline>
</glyph>
<glyph name="P" format="1">
  <advance width="680"/>
  <unicode hex="0050"/>
  <outline>
    <contour>
      <point x="68" y="701" type="line"/>
      <point x="68" y="0" type="line"/>
      <point x="251" y="0" type="line"/>
      <point x="251" y="194" type="line"/>
      <point x="376" y="194" type="line" smooth="yes"/>
      <point x="555" y="194"/>
      <point x="658" y="290"/>
      <point x="658" y="455" type="curve" smooth="yes"/>
      <point x="658" y="611"/>
      <point x="555" y="701"/>
      <point x="376" y="701" type="curve" smooth="yes"/>
    </contour>
    <contour>
      <point x="484" y="449" type="curve" smooth="yes"/>
      <point x="484" y="378"/>
      <point x="441" y="340"/>
      <point x="367" y="340" type="curve" smooth="yes"/>
      <point x="251" y="340" type="line"/>
      <point x="251" y="555" type="line"/>
      <point x="367" y="555" type="line" smooth="yes"/>
      <point x="441" y="555"/>
      <point x="484" y="518"/>
    </contour>
  </outline>
</glyph>
<glyph name="Q" format="1">
  <advance width="809"/>
  <unicode hex="0051"/>
  <outline>
    <contour>
      <point x="612.0" y="-167.0" type="curve" smooth="yes"/>
      <point x="681" y="-167"/>
      <point x="762" y="-137"/>
      <point x="816" y="-89" type="curve"/>
      <point x="751.0" y="24.0" type="line"/>
      <point x="709" y="-8"/>
      <point x="664" y="-28"/>
      <point x="632" y="-28" type="curve" smooth="yes"/>
      <point x="601.466637034" y="-28.0"/>
      <point x="573.263989704" y="-10.5196327377"/>
      <point x="550.06073" y="18.2358" type="curve"/>
      <point x="688.675226111" y="70.5475163725"/>
      <point x="781.0" y="196.241154889"/>
      <point x="781.0" y="351.0" type="curve" smooth="yes"/>
      <point x="781" y="554"/>
      <point x="619" y="706"/>
      <point x="402" y="706" type="curve" smooth="yes"/>
      <point x="185" y="706"/>
      <point x="23" y="555"/>
      <point x="23" y="351" type="curve" smooth="yes"/>
      <point x="23.0" y="151.073773935"/>
      <point x="177.080198233" y="-0.345723057119"/>
      <point x="385.99037" y="-7.71343" type="curve"/>
      <point x="430.780939487" y="-105.809725947"/>
      <point x="514.219734503" y="-167.0"/>
    </contour>
    <contour>
      <point x="594" y="350" type="curve" smooth="yes"/>
      <point x="594" y="236"/>
      <point x="509" y="148"/>
      <point x="405" y="148" type="curve" smooth="yes"/>
      <point x="300" y="148"/>
      <point x="211" y="236"/>
      <point x="211" y="350" type="curve" smooth="yes"/>
      <point x="211" y="464"/>
      <point x="299" y="550"/>
      <point x="405" y="550" type="curve" smooth="yes"/>
      <point x="509" y="550"/>
      <point x="594" y="464"/>
    </contour>
  </outline>
</glyph>
<glyph name="R" format="1">
  <advance width="724"/>
  <unicode hex="0052"/>
  <outline>
    <contour>
      <point x="359" y="0" type="move" name="blwm"/>
    </contour>
    <contour>
      <point x="365" y="701" type="move" name="abvm"/>
    </contour>
    <contour>
      <point x="501" y="449" type="curve" smooth="yes"/>
      <point x="501" y="378"/>
      <point x="458" y="340"/>
      <point x="384" y="340" type="curve" smooth="yes"/>
      <point x="251" y="340" type="line"/>
      <point x="251" y="555" type="line"/>
      <point x="384" y="555" type="line" smooth="yes"/>
      <point x="458" y="555"/>
      <point x="501" y="518"/>
    </contour>
    <contour>
      <point x="251.0" y="194.0" type="line"/>
      <point x="383.0" y="194.0" type="line" smooth="yes"/>
      <point x="386.93032" y="194.02428" type="line"/>
      <point x="488.0" y="0" type="line"/>
      <point x="696.0" y="0" type="line"/>
      <point x="550.32127" y="229.4222" type="line"/>
      <point x="631.133156211" y="271.264996391"/>
      <point x="675.0" y="348.855082057"/>
      <point x="675.0" y="455.0" type="curve" smooth="yes"/>
      <point x="675" y="611"/>
      <point x="569" y="701"/>
      <point x="383" y="701" type="curve" smooth="yes"/>
      <point x="68" y="701.0" type="line"/>
      <point x="68" y="0" type="line"/>
      <point x="251.0" y="0" type="line"/>
    </contour>
  </outline>
</glyph>
<glyph name="S" format="1">
  <advance width="646"/>
  <unicode hex="0053"/>
  <outline>
    <contour>
      <point x="333" y="0" type="move" name="blwm"/>
    </contour>
    <contour>
      <point x="342" y="701" type="move" name="abvm"/>
    </contour>
    <contour>
      <point x="60" y="495" type="curve" smooth="yes"/>
      <point x="60" y="247"/>
      <point x="429" y="319"/>
      <point x="429" y="200" type="curve" smooth="yes"/>
      <point x="429" y="163"/>
      <point x="396" y="143"/>
      <point x="341" y="143" type="curve" smooth="yes"/>
      <point x="268" y="143"/>
      <point x="159" y="187"/>
      <point x="87" y="249" type="curve"/>
      <point x="16" y="106" type="line"/>
      <point x="100" y="37"/>
      <point x="222" y="-6"/>
      <point x="339" y="-6" type="curve" smooth="yes"/>
      <point x="495" y="-6"/>
      <point x="621" y="67"/>
      <point x="621" y="210" type="curve" smooth="yes"/>
      <point x="621" y="462"/>
      <point x="252" y="396"/>
      <point x="252" y="512" type="curve" smooth="yes"/>
      <point x="252" y="544"/>
      <point x="281" y="560"/>
      <point x="325" y="560" type="curve" smooth="yes"/>
      <point x="383" y="560"/>
      <point x="478" y="527"/>
      <point x="551" y="485" type="curve"/>
      <point x="620" y="630" type="line"/>
      <point x="547" y="677"/>
      <point x="443" y="709"/>
      <point x="341" y="709" type="curve" smooth="yes"/>
      <point x="171" y="709"/>
      <point x="60" y="626"/>
    </contour>
  </outline>
</glyph>
<glyph name="T" format="1">
  <advance width="614"/>
  <unicode hex="0054"/>
  <outline>
    <contour>
      <point x="295" y="0" type="move" name="blwm"/>
    </contour>
    <contour>
      <point x="297" y="351" type="move" name="center"/>
    </contour>
    <contour>
      <point x="320" y="701" type="move" name="abvm"/>
    </contour>
    <contour>
      <point x="7" y="701" type="line"/>
      <point x="7" y="550" type="line"/>
      <point x="215" y="550" type="line"/>
      <point x="215" y="0" type="line"/>
      <point x="399" y="0" type="line"/>
      <point x="399" y="550" type="line"/>
      <point x="608" y="550" type="line"/>
      <point x="608" y="701" type="line"/>
    </contour>
  </outline>
</glyph>
<glyph name="U" format="1">
  <advance width="758"/>
  <unicode hex="0055"/>
  <outline>
    <contour>
      <point x="565" y="10" type="move" name="ogonek"/>
    </contour>
    <contour>
      <point x="379" y="701" type="move" name="abvm"/>
    </contour>
    <contour>
      <point x="518" y="701" type="line"/>
      <point x="518" y="294" type="line" smooth="yes"/>
      <point x="518" y="203"/>
      <point x="463" y="148"/>
      <point x="381" y="148" type="curve" smooth="yes"/>
      <point x="299" y="148"/>
      <point x="239" y="204"/>
      <point x="239" y="294" type="curve" smooth="yes"/>
      <point x="239" y="701" type="line"/>
      <point x="56" y="701" type="line"/>
      <point x="56" y="294" type="line" smooth="yes"/>
      <point x="56" y="109"/>
      <point x="183" y="-8"/>
      <point x="381" y="-8" type="curve" smooth="yes"/>
      <point x="577" y="-8"/>
      <point x="702" y="109"/>
      <point x="702" y="294" type="curve" smooth="yes"/>
      <point x="702" y="701" type="line"/>
    </contour>
  </outline>
</glyph>
<glyph name="V" format="1">
  <advance width="732"/>
  <unicode hex="0056"/>
  <outline>
    <contour>
      <point x="546" y="701" type="line"/>
      <point x="371" y="194" type="line"/>
      <point x="195" y="701" type="line"/>
      <point x="-1" y="701" type="line"/>
      <point x="271" y="0" type="line"/>
      <point x="460" y="0" type="line"/>
      <point x="734" y="701" type="line"/>
    </contour>
  </outline>
</glyph>
<glyph name="W" format="1">
  <advance width="1085"/>
  <unicode hex="0057"/>
  <outline>
    <contour>
      <point x="546" y="701" type="move" name="abvm"/>
    </contour>
    <contour>
      <point x="904" y="701" type="line"/>
      <point x="773" y="194" type="line"/>
      <point x="639" y="701" type="line"/>
      <point x="460" y="701" type="line"/>
      <point x="328" y="194" type="line"/>
      <point x="195" y="701" type="line"/>
      <point x="-1" y="701" type="line"/>
      <point x="228" y="0" type="line"/>
      <point x="417" y="0" type="line"/>
      <point x="546" y="473" type="line"/>
      <point x="673" y="0" type="line"/>
      <point x="861" y="0" type="line"/>
      <point x="1092" y="701" type="line"/>
    </contour>
  </outline>
</glyph>
<glyph name="X" format="1">
  <advance width="738"/>
  <unicode hex="0058"/>
  <outline>
    <contour>
      <point x="496" y="701" type="line"/>
      <point x="365" y="502" type="line"/>
      <point x="233" y="701" type="line"/>
      <point x="20" y="701" type="line"/>
      <point x="253" y="357" type="line"/>
      <point x="4" y="0" type="line"/>
      <point x="218" y="0" type="line"/>
      <point x="365" y="217" type="line"/>
      <point x="513" y="0" type="line"/>
      <point x="733" y="0" type="line"/>
      <point x="481" y="366" type="line"/>
      <point x="712" y="701" type="line"/>
    </contour>
  </outline>
</glyph>
<glyph name="Y" format="1">
  <advance width="684"/>
  <unicode hex="0059"/>
  <outline>
    <contour>
      <point x="342" y="701" type="move" name="abvm"/>
    </contour>
    <contour>
      <point x="436.0" y="0" type="line"/>
      <point x="436.0" y="225.20896" type="line"/>
      <point x="689" y="701.0" type="line"/>
      <point x="505.0" y="701.0" type="line"/>
      <point x="344" y="400.0" type="line"/>
      <point x="177.0" y="701.0" type="line"/>
      <point x="-6.0" y="701.0" type="line"/>
      <point x="253.0" y="216.81602" type="line"/>
      <point x="253.0" y="0" type="line"/>
    </contour>
  </outline>
</glyph>
<glyph name="Z" format="1">
  <advance width="676"/>
  <unicode hex="005A"/>
  <outline>
    <contour>
      <point x="353" y="701" type="move" name="abvm"/>
    </contour>
    <contour>
      <point x="39" y="701" type="line"/>
      <point x="39" y="554" type="line"/>
      <point x="397" y="554" type="line"/>
      <point x="27" y="119" type="line"/>
      <point x="27" y="0" type="line"/>
      <point x="648" y="0" type="line"/>
      <point x="648" y="147" type="line"/>
      <point x="272" y="147" type="line"/>
      <point x="642" y="581" type="line"/>
      <point x="642" y="701" type="line"/>
    </contour>
  </outline>
</glyph>
<glyph name="backslash" format="1">
  <advance width="355"/>
  <unicode hex="005C"/>
  <outline>
    <contour>
      <point x="-81" y="811" type="line"/>
      <point x="243" y="-110" type="line"/>
      <point x="392" y="-110" type="line"/>
      <point x="68" y="811" type="line"/>
    </contour>
  </outline>
</glyph>
<glyph name="asciicircum" format="1">
  <advance width="581"/>
  <unicode hex="005E"/>
  <outline>
    <contour>
      <point x="363" y="524" type="line"/>
      <point x="217" y="524" type="line"/>
      <point x="32" y="138" type="line"/>
      <point x="159" y="138" type="line"/>
      <point x="290" y="425" type="line"/>
      <point x="421" y="138" type="line"/>
      <point x="548" y="138" type="line"/>
    </contour>
  </outline>
</glyph>
<glyph name="underscore" format="1">
  <advance width="585"/>
  <unicode hex="005F"/>
  <outline>
    <contour>
      <point x="0" y="-107" type="line"/>
      <point x="0" y="-204" type="line"/>
      <point x="585" y="-204" type="line"/>
      <point x="585" y="-107" type="line"/>
    </contour>
  </outline>
</glyph>
<glyph name="grave" format="1">
  <advance width="350"/>
  <unicode hex="0060"/>
  <outline>
    <contour>
      <point x="215" y="541" type="move" name="_abvm"/>
    </contour>
    <contour>
      <point x="39" y="714" type="line"/>
      <point x="170" y="599" type="line"/>
      <point x="305" y="599" type="line"/>
      <point x="198" y="770" type="line"/>
    </contour>
  </outline>
</glyph>
<glyph name="a" format="1">
  <advance width="601"/>
  <unicode hex="0061"/>
  <outline>
    <contour>
      <point x="573" y="10" type="move" name="ogonek"/>
    </contour>
    <contour>
      <point x="300" y="541" type="move" name="abvm"/>
    </contour>
    <contour>
      <point x="266" y="113" type="curve" smooth="yes"/>
      <point x="220" y="113"/>
      <point x="193" y="137"/>
      <point x="193" y="174" type="curve" smooth="yes"/>
      <point x="193" y="212"/>
      <point x="218" y="230"/>
      <point x="267" y="230" type="curve" smooth="yes"/>
      <point x="374.0" y="230.0" type="line"/>
      <point x="374.0" y="183.0" type="line"/>
      <point x="363" y="142"/>
      <point x="319" y="113"/>
    </contour>
    <contour>
      <point x="374.0" y="0" type="line"/>
      <point x="549" y="0" type="line"/>
      <point x="549" y="352.0" type="line" smooth="yes"/>
      <point x="548" y="476"/>
      <point x="461" y="548"/>
      <point x="312" y="548" type="curve" smooth="yes"/>
      <point x="223" y="548"/>
      <point x="145" y="527"/>
      <point x="60" y="489" type="curve"/>
      <point x="109.0" y="369.0" type="line"/>
      <point x="167" y="397"/>
      <point x="226" y="412"/>
      <point x="271" y="412" type="curve" smooth="yes"/>
      <point x="339" y="412"/>
      <point x="374" y="382"/>
      <point x="374" y="331" type="curve"/>
      <point x="374.0" y="325" type="line"/>
      <point x="233.0" y="325" type="line" smooth="yes"/>
      <point x="99" y="323"/>
      <point x="26" y="264"/>
      <point x="26" y="161" type="curve" smooth="yes"/>
      <point x="26" y="62"/>
      <point x="95" y="-8"/>
      <point x="211" y="-8" type="curve" smooth="yes"/>
      <point x="284.439864921" y="-8.0"/>
      <point x="339.568003632" y="16.4156349459"/>
      <point x="374.0" y="61.93863" type="curve"/>
    </contour>
  </outline>
</glyph>
<glyph name="b" format="1">
  <advance width="686"/>
  <unicode hex="0062"/>
  <outline>
    <contour>
      <point x="414.0" y="-6.0" type="curve" smooth="yes"/>
      <point x="564" y="-6"/>
      <point x="662" y="103"/>
      <point x="662" y="268" type="curve" smooth="yes"/>
      <point x="662" y="436"/>
      <point x="561" y="547"/>
      <point x="409" y="547" type="curve" smooth="yes"/>
      <point x="342.425827188" y="547.0"/>
      <point x="288.379554442" y="520.190293857"/>
      <point x="251.0" y="471.81548" type="curve"/>
      <point x="251.0" y="742.0" type="line"/>
      <point x="73" y="742.0" type="line"/>
      <point x="73" y="0" type="line"/>
      <point x="251.0" y="0" type="line"/>
      <point x="251.0" y="69.41737" type="line"/>
      <point x="289.15955954" y="21.0262237961"/>
      <point x="344.823223821" y="-6.0"/>
    </contour>
    <contour>
      <point x="483" y="272" type="curve" smooth="yes"/>
      <point x="483" y="192"/>
      <point x="436" y="138"/>
      <point x="367" y="138" type="curve" smooth="yes"/>
      <point x="298" y="138"/>
      <point x="251" y="192"/>
      <point x="251" y="272" type="curve" smooth="yes"/>
      <point x="251" y="352"/>
      <point x="298" y="407"/>
      <point x="367" y="407" type="curve" smooth="yes"/>
      <point x="436" y="407"/>
      <point x="483" y="352"/>
    </contour>
  </outline>
</glyph>
<glyph name="c" format="1">
  <advance width="562"/>
  <unicode hex="0063"/>
  <outline>
    <contour>
      <point x="290" y="0" type="move" name="blwm"/>
    </contour>
    <contour>
      <point x="294" y="541" type="move" name="abvm"/>
    </contour>
    <contour>
      <point x="24" y="268" type="curve" smooth="yes"/>
      <point x="24" y="103"/>
      <point x="136" y="-6"/>
      <point x="303" y="-6" type="curve" smooth="yes"/>
      <point x="417" y="-6"/>
      <point x="505" y="41"/>
      <point x="549" y="124" type="curve"/>
      <point x="417" y="199" type="line"/>
      <point x="395" y="157"/>
      <point x="359" y="138"/>
      <point x="312" y="138" type="curve" smooth="yes"/>
      <point x="247" y="138"/>
      <point x="203" y="190"/>
      <point x="203" y="269" type="curve" smooth="yes"/>
      <point x="203" y="347"/>
      <point x="247" y="400"/>
      <point x="312" y="400" type="curve" smooth="yes"/>
      <point x="358" y="400"/>
      <point x="393" y="379"/>
      <point x="417" y="344" type="curve"/>
      <point x="546" y="419" type="line"/>
      <point x="500" y="500"/>
      <point x="413" y="547"/>
      <point x="304" y="547" type="curve" smooth="yes"/>
      <point x="136" y="547"/>
      <point x="24" y="436"/>
    </contour>
  </outline>
</glyph>
<glyph name="e" format="1">
  <advance width="603"/>
  <unicode hex="0065"/>
  <outline>
    <contour>
      <point x="304" y="0" type="move" name="blwm"/>
    </contour>
    <contour>
      <point x="542" y="10" type="move" name="ogonek"/>
    </contour>
    <contour>
      <point x="301" y="541" type="move" name="abvm"/>
    </contour>
    <contour>
      <point x="308.0" y="422.0" type="curve" smooth="yes"/>
      <point x="367" y="422"/>
      <point x="408" y="380"/>
      <point x="408" y="318" type="curve"/>
      <point x="199.38052" y="318" type="line"/>
      <point x="210.652387957" y="380.198824525"/>
      <point x="249.572586367" y="422.0"/>
    </contour>
    <contour>
      <point x="547" y="90" type="curve"/>
      <point x="454.0" y="183.0" type="line"/>
      <point x="418" y="147"/>
      <point x="373" y="128"/>
      <point x="326" y="128" type="curve" smooth="yes"/>
      <point x="264.891983749" y="128.0"/>
      <point x="219.742042926" y="162.371239383"/>
      <point x="203.05231" y="223.0" type="curve"/>
      <point x="579" y="223.0" type="line"/>
      <point x="592" y="420"/>
      <point x="496" y="547"/>
      <point x="306" y="547" type="curve" smooth="yes"/>
      <point x="138" y="547"/>
      <point x="24" y="436"/>
      <point x="24" y="268" type="curve" smooth="yes"/>
      <point x="24" y="103"/>
      <point x="134" y="-6"/>
      <point x="311" y="-6" type="curve" smooth="yes"/>
      <point x="411" y="-6"/>
      <point x="491" y="28"/>
    </contour>
  </outline>
</glyph>
<glyph name="f" format="1">
  <advance width="390"/>
  <unicode hex="0066"/>
  <outline>
    <contour>
      <point x="397.0" y="397.0" type="line"/>
      <point x="397.0" y="515" type="line"/>
      <point x="277" y="515" type="line"/>
      <point x="277" y="550" type="line"/>
      <point x="277" y="589"/>
      <point x="302" y="608"/>
      <point x="337" y="608" type="curve"/>
      <point x="357" y="608"/>
      <point x="381" y="600"/>
      <point x="400" y="586" type="curve"/>
      <point x="462.0" y="712.0" type="line"/>
      <point x="421" y="736"/>
      <point x="362" y="750"/>
      <point x="308" y="750" type="curve"/>
      <point x="190" y="751"/>
      <point x="100" y="684"/>
      <point x="100" y="565" type="curve" smooth="yes"/>
      <point x="100.0" y="515" type="line"/>
      <point x="27.0" y="515" type="line"/>
      <point x="27.0" y="397.0" type="line"/>
      <point x="100.0" y="397.0" type="line"/>
      <point x="100.0" y="0" type="line"/>
      <point x="277" y="0" type="line"/>
      <point x="277" y="397.0" type="line"/>
    </contour>
  </outline>
</glyph>
<glyph name="g" format="1">
  <advance width="648"/>
  <unicode hex="0067"/>
  <outline>
    <contour>
      <point x="324" y="541" type="move" name="abvm"/>
    </contour>
    <contour>
      <point x="300.0" y="160.0" type="curve" smooth="yes"/>
      <point x="234" y="160"/>
      <point x="190" y="212"/>
      <point x="190" y="286" type="curve" smooth="yes"/>
      <point x="190" y="361"/>
      <point x="235" y="413"/>
      <point x="300" y="413" type="curve" smooth="yes"/>
      <point x="359.298742013" y="413.0"/>
      <point x="401.119813756" y="370.554229344"/>
      <point x="408.0" y="305.16765" type="curve"/>
      <point x="408.0" y="267.12797" type="line"/>
      <point x="401.119813756" y="203.278040669"/>
      <point x="359.298742013" y="160.0"/>
    </contour>
    <contour>
      <point x="292" y="-201" type="curve" smooth="yes"/>
      <point x="467" y="-201"/>
      <point x="585" y="-105"/>
      <point x="585" y="48" type="curve" smooth="yes"/>
      <point x="585" y="541" type="line"/>
      <point x="408.0" y="541" type="line"/>
      <point x="408.0" y="476.64992" type="line"/>
      <point x="371.858158954" y="521.847200883"/>
      <point x="318.54300246" y="547.0"/>
      <point x="251.0" y="547.0" type="curve" smooth="yes"/>
      <point x="117" y="547"/>
      <point x="24" y="445"/>
      <point x="24" y="291" type="curve" smooth="yes"/>
      <point x="24" y="134"/>
      <point x="120" y="30"/>
      <point x="255" y="30" type="curve" smooth="yes"/>
      <point x="321.029947096" y="30.0"/>
      <point x="372.764155203" y="54.6478258438"/>
      <point x="408.0" y="99.06493" type="curve"/>
      <point x="408.0" y="43" type="line" smooth="yes"/>
      <point x="408" y="-20"/>
      <point x="360" y="-61"/>
      <point x="279" y="-61" type="curve" smooth="yes"/>
      <point x="220" y="-61"/>
      <point x="160" y="-42"/>
      <point x="112" y="-8" type="curve"/>
      <point x="50.0" y="-131" type="line"/>
      <point x="110" y="-171"/>
      <point x="197" y="-201"/>
    </contour>
  </outline>
</glyph>
<glyph name="i" format="1">
  <advance width="313"/>
  <unicode hex="0069"/>
  <outline>
    <contour>
      <point x="157" y="541" type="move" name="_abvm"/>
    </contour>
    <contour>
      <point x="273" y="10" type="move" name="ogonek"/>
    </contour>
    <contour>
      <point x="157" y="541" type="move" name="abvm"/>
    </contour>
    <contour>
      <point x="63" y="695" type="curve" smooth="yes"/>
      <point x="63" y="639"/>
      <point x="102" y="600"/>
      <point x="157" y="600" type="curve" smooth="yes"/>
      <point x="211" y="600"/>
      <point x="250" y="639"/>
      <point x="250" y="695" type="curve" smooth="yes"/>
      <point x="250" y="751"/>
      <point x="211" y="790"/>
      <point x="157" y="790" type="curve" smooth="yes"/>
      <point x="102" y="790"/>
      <point x="63" y="751"/>
    </contour>
    <contour>
      <point x="68" y="541" type="line"/>
      <point x="68" y="0" type="line"/>
      <point x="245" y="0" type="line"/>
      <point x="245" y="541" type="line"/>
    </contour>
  </outline>
</glyph>
<glyph name="j" format="1">
  <advance width="322"/>
  <unicode hex="006A"/>
  <outline>
    <contour>
      <point x="58" y="695" type="curve" smooth="yes"/>
      <point x="58" y="640"/>
      <point x="100" y="600"/>
      <point x="158" y="600" type="curve" smooth="yes"/>
      <point x="218" y="600"/>
      <point x="259" y="640"/>
      <point x="259" y="695" type="curve" smooth="yes"/>
      <point x="259" y="751"/>
      <point x="218" y="790"/>
      <point x="158" y="790" type="curve" smooth="yes"/>
      <point x="100" y="790"/>
      <point x="58" y="751"/>
    </contour>
    <contour>
      <point x="70" y="541" type="line"/>
      <point x="70" y="-1" type="line"/>
      <point x="70" y="-41"/>
      <point x="49" y="-59"/>
      <point x="18" y="-59" type="curve"/>
      <point x="-2" y="-59"/>
      <point x="-23" y="-52"/>
      <point x="-43" y="-40" type="curve"/>
      <point x="-88" y="-167" type="line"/>
      <point x="-50" y="-189"/>
      <point x="-2" y="-201"/>
      <point x="50" y="-201" type="curve"/>
      <point x="162" y="-202"/>
      <point x="247" y="-136"/>
      <point x="247" y="-16" type="curve"/>
      <point x="247" y="541" type="line"/>
    </contour>
  </outline>
</glyph>
<glyph name="k" format="1">
  <advance width="633"/>
  <unicode hex="006B"/>
  <outline>
    <contour>
      <point x="134" y="0" type="move" name="blwm"/>
    </contour>
    <contour>
      <point x="162" y="742" type="move" name="abvm"/>
    </contour>
    <contour>
      <point x="294" y="541" type="move" name="topright"/>
    </contour>
    <contour>
      <point x="420.0" y="0" type="line"/>
      <point x="631" y="0" type="line"/>
      <point x="427.64275" y="332.33847" type="line"/>
      <point x="626" y="541" type="line"/>
      <point x="424.0" y="541" type="line"/>
      <point x="251.0" y="357.60109" type="line"/>
      <point x="251.0" y="742.0" type="line"/>
      <point x="73" y="742.0" type="line"/>
      <point x="73" y="0" type="line"/>
      <point x="251.0" y="0" type="line"/>
      <point x="251.0" y="146.51948" type="line"/>
      <point x="305.75854" y="204.12262" type="line"/>
    </contour>
  </outline>
</glyph>
<glyph name="l" format="1">
  <advance width="324"/>
  <unicode hex="006C"/>
  <outline>
    <contour>
      <point x="162" y="0" type="move" name="blwm"/>
    </contour>
    <contour>
      <point x="162" y="742" type="move" name="abvm"/>
    </contour>
    <contour>
      <point x="294" y="541" type="move" name="topright"/>
    </contour>
    <contour>
      <point x="73" y="742" type="line"/>
      <point x="73" y="0" type="line"/>
      <point x="251" y="0" type="line"/>
      <point x="251" y="742" type="line"/>
    </contour>
  </outline>
</glyph>
<glyph name="m" format="1">
  <advance width="1037"/>
  <unicode hex="006D"/>
  <outline>
    <contour>
      <point x="245.0" y="267" type="line"/>
      <point x="245" y="338"/>
      <point x="285" y="388"/>
      <point x="348" y="389" type="curve" smooth="yes"/>
      <point x="403" y="389"/>
      <point x="437" y="352"/>
      <point x="437" y="290" type="curve" smooth="yes"/>
      <point x="437.0" y="0" type="line"/>
      <point x="615" y="0" type="line"/>
      <point x="615" y="267" type="line"/>
      <point x="615" y="338"/>
      <point x="654" y="388"/>
      <point x="717" y="389" type="curve" smooth="yes"/>
      <point x="771" y="389"/>
      <point x="806" y="352"/>
      <point x="806" y="290" type="curve" smooth="yes"/>
      <point x="806.0" y="0" type="line"/>
      <point x="984.0" y="0" type="line"/>
      <point x="984.0" y="341" type="line" smooth="yes"/>
      <point x="984" y="468"/>
      <point x="907" y="548"/>
      <point x="790" y="548" type="curve" smooth="yes"/>
      <point x="702.165407213" y="548.0"/>
      <point x="636.343193899" y="506.515130995"/>
      <point x="601.07138" y="427.09484" type="curve"/>
      <point x="573.889132615" y="503.0764166"/>
      <point x="508.675462157" y="548.0"/>
      <point x="421.0" y="548.0" type="curve" smooth="yes"/>
      <point x="342.960779774" y="548.0"/>
      <point x="282.298033318" y="515.252030202"/>
      <point x="245.0" y="452.25527" type="curve"/>
      <point x="245.0" y="541" type="line"/>
      <point x="68" y="541" type="line"/>
      <point x="68" y="0" type="line"/>
      <point x="245.0" y="0" type="line"/>
    </contour>
  </outline>
</glyph>
<glyph name="o" format="1">
  <advance width="638"/>
  <unicode hex="006F"/>
  <outline>
    <contour>
      <point x="319" y="541" type="move" name="abvm"/>
    </contour>
    <contour>
      <point x="24" y="271" type="curve" smooth="yes"/>
      <point x="24" y="104"/>
      <point x="142" y="-6"/>
      <point x="320" y="-6" type="curve" smooth="yes"/>
      <point x="497" y="-6"/>
      <point x="615" y="104"/>
      <point x="615" y="271" type="curve" smooth="yes"/>
      <point x="615" y="437"/>
      <point x="497" y="547"/>
      <point x="320" y="547" type="curve" smooth="yes"/>
      <point x="142" y="547"/>
      <point x="24" y="437"/>
    </contour>
    <contour>
      <point x="436" y="268" type="curve" smooth="yes"/>
      <point x="436" y="188"/>
      <point x="389" y="134"/>
      <point x="319" y="134" type="curve" smooth="yes"/>
      <point x="250" y="134"/>
      <point x="203" y="188"/>
      <point x="203" y="268" type="curve" smooth="yes"/>
      <point x="203" y="349"/>
      <point x="250" y="403"/>
      <point x="319" y="403" type="curve" smooth="yes"/>
      <point x="389" y="403"/>
      <point x="436" y="349"/>
    </contour>
  </outline>
</glyph>
<glyph name="r" format="1">
  <advance width="430"/>
  <unicode hex="0072"/>
  <outline>
    <contour>
      <point x="152" y="0" type="move" name="blwm"/>
    </contour>
    <contour>
      <point x="227" y="541" type="move" name="abvm"/>
    </contour>
    <contour>
      <point x="420.0" y="385.0" type="curve"/>
      <point x="420.0" y="548" type="line"/>
      <point x="343.640224515" y="548.0"/>
      <point x="283.432292" y="513.388907922"/>
      <point x="246.0" y="450.57886" type="curve"/>
      <point x="246.0" y="541" type="line"/>
      <point x="68" y="541" type="line"/>
      <point x="68" y="0" type="line"/>
      <point x="246.0" y="0" type="line"/>
      <point x="246.0" y="276.28669" type="line"/>
      <point x="254.762997443" y="351.006206687"/>
      <point x="320.52925113" y="395.225964837"/>
    </contour>
  </outline>
</glyph>
<glyph name="s" format="1">
  <advance width="517"/>
  <unicode hex="0073"/>
  <outline>
    <contour>
      <point x="257" y="0" type="move" name="blwm"/>
    </contour>
    <contour>
      <point x="268" y="541" type="move" name="abvm"/>
    </contour>
    <contour>
      <point x="42" y="374" type="curve" smooth="yes"/>
      <point x="42" y="187"/>
      <point x="321" y="224"/>
      <point x="321" y="150" type="curve" smooth="yes"/>
      <point x="321" y="128"/>
      <point x="297" y="117"/>
      <point x="264" y="117" type="curve" smooth="yes"/>
      <point x="204" y="117"/>
      <point x="134" y="141"/>
      <point x="72" y="184" type="curve"/>
      <point x="16" y="69" type="line"/>
      <point x="82" y="18"/>
      <point x="169" y="-8"/>
      <point x="260" y="-8" type="curve" smooth="yes"/>
      <point x="392" y="-8"/>
      <point x="489" y="55"/>
      <point x="489" y="166" type="curve" smooth="yes"/>
      <point x="490" y="354"/>
      <point x="206" y="320"/>
      <point x="206" y="391" type="curve" smooth="yes"/>
      <point x="206" y="414"/>
      <point x="227" y="425"/>
      <point x="257" y="425" type="curve" smooth="yes"/>
      <point x="302" y="425"/>
      <point x="362" y="405"/>
      <point x="429" y="370" type="curve"/>
      <point x="489" y="486" type="line"/>
      <point x="422" y="527"/>
      <point x="343" y="549"/>
      <point x="264" y="549" type="curve" smooth="yes"/>
      <point x="137" y="549"/>
      <point x="42" y="487"/>
    </contour>
  </outline>
</glyph>
<glyph name="t" format="1">
  <advance width="437"/>
  <unicode hex="0074"/>
  <outline>
    <contour>
      <point x="260" y="0" type="move" name="blwm"/>
    </contour>
    <contour>
      <point x="219" y="271" type="move" name="center"/>
    </contour>
    <contour>
      <point x="275" y="-8" type="curve"/>
      <point x="327" y="-8"/>
      <point x="381" y="5"/>
      <point x="420" y="28" type="curve"/>
      <point x="386.0" y="154" type="line"/>
      <point x="360" y="143"/>
      <point x="337" y="136"/>
      <point x="319" y="136" type="curve"/>
      <point x="289" y="135"/>
      <point x="270" y="153"/>
      <point x="270" y="193" type="curve"/>
      <point x="270" y="397.0" type="line"/>
      <point x="410.0" y="397.0" type="line"/>
      <point x="410.0" y="515" type="line"/>
      <point x="270" y="515" type="line"/>
      <point x="270" y="665" type="line"/>
      <point x="93.0" y="665" type="line"/>
      <point x="93.0" y="515" type="line"/>
      <point x="18" y="515" type="line"/>
      <point x="18" y="397.0" type="line"/>
      <point x="93.0" y="397.0" type="line"/>
      <point x="93.0" y="165" type="line"/>
      <point x="93" y="53"/>
      <point x="169" y="-9"/>
    </contour>
  </outline>
</glyph>
<glyph name="u" format="1">
  <advance width="664"/>
  <unicode hex="0075"/>
  <outline>
    <contour>
      <point x="612" y="10" type="move" name="ogonek"/>
    </contour>
    <contour>
      <point x="327" y="541" type="move" name="abvm"/>
    </contour>
    <contour>
      <point x="418.0" y="0" type="line"/>
      <point x="596" y="0" type="line"/>
      <point x="596" y="541" type="line"/>
      <point x="418.0" y="541" type="line"/>
      <point x="418.0" y="274" type="line"/>
      <point x="418" y="203"/>
      <point x="380" y="153"/>
      <point x="317" y="152" type="curve" smooth="yes"/>
      <point x="264" y="152"/>
      <point x="230" y="189"/>
      <point x="230" y="250" type="curve" smooth="yes"/>
      <point x="230.0" y="541" type="line"/>
      <point x="52.0" y="541" type="line"/>
      <point x="52.0" y="199.0" type="line" smooth="yes"/>
      <point x="52" y="73"/>
      <point x="128" y="-8"/>
      <point x="245" y="-8" type="curve" smooth="yes"/>
      <point x="321.512369611" y="-7.42471902548"/>
      <point x="381.14638104" y="25.2525373141"/>
      <point x="418.0" y="87.77409" type="curve"/>
    </contour>
  </outline>
</glyph>
<glyph name="v" format="1">
  <advance width="575"/>
  <unicode hex="0076"/>
  <outline>
    <contour>
      <point x="404" y="541" type="line"/>
      <point x="291" y="165" type="line"/>
      <point x="178" y="541" type="line"/>
      <point x="-6" y="541" type="line"/>
      <point x="197" y="0" type="line"/>
      <point x="379" y="0" type="line"/>
      <point x="582" y="541" type="line"/>
    </contour>
  </outline>
</glyph>
<glyph name="w" format="1">
  <advance width="941"/>
  <unicode hex="0077"/>
  <outline>
    <contour>
      <point x="471" y="541" type="move" name="abvm"/>
    </contour>
    <contour>
      <point x="774" y="541" type="line"/>
      <point x="667" y="175" type="line"/>
      <point x="559" y="541" type="line"/>
      <point x="390" y="541" type="line"/>
      <point x="284" y="175" type="line"/>
      <point x="175" y="541" type="line"/>
      <point x="-6" y="541" type="line"/>
      <point x="191" y="0" type="line"/>
      <point x="368" y="0" type="line"/>
      <point x="472" y="334" type="line"/>
      <point x="574" y="0" type="line"/>
      <point x="751" y="0" type="line"/>
      <point x="948" y="541" type="line"/>
    </contour>
  </outline>
</glyph>
<glyph name="x" format="1">
  <advance width="611"/>
  <unicode hex="0078"/>
  <outline>
    <contour>
      <point x="15" y="541" type="line"/>
      <point x="187" y="277" type="line"/>
      <point x="3" y="0" type="line"/>
      <point x="199" y="0" type="line"/>
      <point x="306" y="165" type="line"/>
      <point x="402" y="0" type="line"/>
      <point x="607" y="0" type="line"/>
      <point x="424" y="277" type="line"/>
      <point x="595" y="541" type="line"/>
      <point x="400" y="541" type="line"/>
      <point x="306" y="389" type="line"/>
      <point x="219" y="541" type="line"/>
    </contour>
  </outline>
</glyph>
<glyph name="y" format="1">
  <advance width="584"/>
  <unicode hex="0079"/>
  <outline>
    <contour>
      <point x="293" y="541" type="move" name="abvm"/>
    </contour>
    <contour>
      <point x="414" y="541" type="line"/>
      <point x="300" y="189" type="line"/>
      <point x="170" y="541" type="line"/>
      <point x="-13" y="541" type="line"/>
      <point x="211" y="13" type="line"/>
      <point x="199" y="-12" type="line" smooth="yes"/>
      <point x="185" y="-39"/>
      <point x="163" y="-53"/>
      <point x="133" y="-53" type="curve" smooth="yes"/>
      <point x="108" y="-53"/>
      <point x="86" y="-44"/>
      <point x="62" y="-23" type="curve"/>
      <point x="-13" y="-146" type="line"/>
      <point x="37" y="-184"/>
      <point x="86" y="-202"/>
      <point x="148" y="-202" type="curve" smooth="yes"/>
      <point x="249" y="-202"/>
      <point x="319" y="-154"/>
      <point x="359" y="-53" type="curve" smooth="yes"/>
      <point x="592" y="541" type="line"/>
    </contour>
  </outline>
</glyph>
<glyph name="z" format="1">
  <advance width="555"/>
  <unicode hex="007A"/>
  <outline>
    <contour>
      <point x="277" y="541" type="move" name="abvm"/>
    </contour>
    <contour>
      <point x="44" y="541" type="line"/>
      <point x="44" y="404" type="line"/>
      <point x="295" y="404" type="line"/>
      <point x="34" y="108" type="line"/>
      <point x="34" y="0" type="line"/>
      <point x="527" y="0" type="line"/>
      <point x="527" y="136" type="line"/>
      <point x="257" y="136" type="line"/>
      <point x="518" y="432" type="line"/>
      <point x="518" y="540" type="line"/>
    </contour>
  </outline>
</glyph>
<glyph name="bar" format="1">
  <advance width="302"/>
  <unicode hex="007C"/>
  <outline>
    <contour>
      <point x="85" y="802" type="line"/>
      <point x="85" y="-109" type="line"/>
      <point x="217" y="-109" type="line"/>
      <point x="217" y="802" type="line"/>
    </contour>
  </outline>
</glyph>
<glyph name="braceright" format="1">
  <advance width="375"/>
  <unicode hex="007D"/>
  <outline>
    <contour>
      <point x="58.0" y="-126.0" type="line"/>
      <point x="127.0" y="-126.0" type="line" smooth="yes"/>
      <point x="258" y="-126"/>
      <point x="303" y="-89"/>
      <point x="303" y="15" type="curve" smooth="yes"/>
      <point x="303" y="198.0" type="line" smooth="yes"/>
      <point x="303" y="230"/>
      <point x="314" y="241"/>
      <point x="340" y="241" type="curve" smooth="yes"/>
      <point x="379.0" y="241.0" type="line"/>
      <point x="379.0" y="376.0" type="line"/>
      <point x="340" y="376.0" type="line"/>
      <point x="314" y="376"/>
      <point x="303" y="388"/>
      <point x="303" y="419" type="curve" smooth="yes"/>
      <point x="303" y="602" type="line" smooth="yes"/>
      <point x="303" y="707"/>
      <point x="258" y="744"/>
      <point x="127" y="744" type="curve" smooth="yes"/>
      <point x="58.0" y="744.0" type="line"/>
      <point x="58.0" y="612" type="line"/>
      <point x="126" y="612"/>
      <point x="145" y="594"/>
      <point x="145" y="548" type="curve" smooth="yes"/>
      <point x="145" y="431.0" type="line" smooth="yes"/>
      <point x="145.0" y="358.75569892"/>
      <point x="166.876204732" y="323.912651091"/>
      <point x="230.19134" y="308.70132" type="curve"/>
      <point x="166.876204732" y="294.087348909"/>
      <point x="145.0" y="259.24430108"/>
      <point x="145.0" y="187.0" type="curve" smooth="yes"/>
      <point x="145" y="70" type="line" smooth="yes"/>
      <point x="145" y="23"/>
      <point x="126" y="6"/>
      <point x="58" y="6" type="curve"/>
    </contour>
  </outline>
</glyph>
<glyph name="asciitilde" format="1">
  <advance width="511"/>
  <unicode hex="007E"/>
  <outline>
    <contour>
      <point x="55" y="240" type="curve"/>
      <point x="174" y="240" type="line"/>
      <point x="174" y="270"/>
      <point x="185" y="285"/>
      <point x="206" y="285" type="curve"/>
      <point x="238" y="285"/>
      <point x="273" y="235"/>
      <point x="342" y="235" type="curve"/>
      <point x="419" y="235"/>
      <point x="455" y="292"/>
      <point x="455" y="410" type="curve"/>
      <point x="337" y="410" type="line"/>
      <point x="337" y="380"/>
      <point x="327" y="365"/>
      <point x="305" y="365" type="curve"/>
      <point x="273" y="365"/>
      <point x="236" y="415"/>
      <point x="170" y="415" type="curve"/>
      <point x="93" y="415"/>
      <point x="55" y="358"/>
    </contour>
  </outline>
</glyph>
<glyph name="exclamdown" format="1">
  <advance width="270"/>
  <unicode hex="00A1"/>
  <outline>
    <contour>
      <point x="220" y="463" type="curve" smooth="yes"/>
      <point x="220" y="513"/>
      <point x="185" y="548"/>
      <point x="136" y="548" type="curve" smooth="yes"/>
      <point x="85" y="548"/>
      <point x="50" y="513"/>
      <point x="50" y="463" type="curve" smooth="yes"/>
      <point x="50" y="413"/>
      <point x="85" y="378"/>
      <point x="136" y="378" type="curve" smooth="yes"/>
      <point x="185" y="378"/>
      <point x="220" y="413"/>
    </contour>
    <contour>
      <point x="216" y="-157" type="line"/>
      <point x="216" y="22" type="line"/>
      <point x="185" y="298" type="line"/>
      <point x="78" y="298" type="line"/>
      <point x="47" y="22" type="line"/>
      <point x="47" y="-157" type="line"/>
    </contour>
  </outline>
</glyph>
<glyph name="cent" format="1">
  <advance width="559"/>
  <unicode hex="00A2"/>
  <note>
    cent
  </note>
  <outline>
    <contour>
      <point x="417" y="199" type="line"/>
      <point x="395" y="157"/>
      <point x="358" y="138"/>
      <point x="311" y="138" type="curve" smooth="yes"/>
      <point x="247" y="138"/>
      <point x="203" y="190"/>
      <point x="203" y="269" type="curve" smooth="yes"/>
      <point x="203" y="347"/>
      <point x="247" y="400"/>
      <point x="311" y="400" type="curve" smooth="yes"/>
      <point x="357" y="400"/>
      <point x="393" y="379"/>
      <point x="417" y="344" type="curve"/>
      <point x="546" y="419" type="line"/>
      <point x="510" y="480"/>
      <point x="452" y="522"/>
      <point x="379" y="539" type="curve"/>
      <point x="379" y="702" type="line"/>
      <point x="242" y="702" type="line"/>
      <point x="242" y="541" type="line"/>
      <point x="109" y="517"/>
      <point x="24" y="414"/>
      <point x="24" y="268" type="curve" smooth="yes"/>
      <point x="24" y="124"/>
      <point x="109" y="22"/>
      <point x="242" y="-1" type="curve"/>
      <point x="242" y="-155" type="line"/>
      <point x="379" y="-155" type="line"/>
      <point x="379" y="1" type="line"/>
      <point x="456" y="18"/>
      <point x="515" y="61"/>
      <point x="548" y="124" type="curve"/>
    </contour>
  </outline>
</glyph>
<glyph name="sterling" format="1">
  <advance width="558"/>
  <unicode hex="00A3"/>
  <note>
    sterling
  </note>
  <outline>
    <contour>
      <point x="543" y="140" type="line"/>
      <point x="287" y="140" type="line"/>
      <point x="287" y="278" type="line"/>
      <point x="453.0" y="278" type="line"/>
      <point x="453.0" y="402.0" type="line"/>
      <point x="287" y="402.0" type="line"/>
      <point x="287" y="468.0" type="line" smooth="yes"/>
      <point x="287" y="525"/>
      <point x="313" y="553"/>
      <point x="363" y="553" type="curve" smooth="yes"/>
      <point x="403" y="553"/>
      <point x="446" y="530"/>
      <point x="489" y="487" type="curve"/>
      <point x="557" y="623" type="line"/>
      <point x="502" y="678"/>
      <point x="424" y="709"/>
      <point x="343" y="709" type="curve" smooth="yes"/>
      <point x="190" y="709"/>
      <point x="103" y="623"/>
      <point x="103" y="472" type="curve" smooth="yes"/>
      <point x="103.0" y="402.0" type="line"/>
      <point x="27.0" y="402.0" type="line"/>
      <point x="27.0" y="278" type="line"/>
      <point x="103.0" y="278" type="line"/>
      <point x="103.0" y="140" type="line"/>
      <point x="27.0" y="140" type="line"/>
      <point x="27.0" y="0" type="line"/>
      <point x="543" y="0" type="line"/>
    </contour>
  </outline>
</glyph>
<glyph name="currency" format="1">
  <advance width="701"/>
  <unicode hex="00A4"/>
  <note>
    currency
  </note>
  <outline>
    <contour>
      <point x="579" y="445" type="curve"/>
      <point x="677" y="544" type="line"/>
      <point x="578" y="645" type="line"/>
      <point x="479" y="546" type="line"/>
      <point x="441" y="567"/>
      <point x="397" y="580"/>
      <point x="350" y="580" type="curve" smooth="yes"/>
      <point x="303" y="580"/>
      <point x="260" y="567"/>
      <point x="222" y="546" type="curve"/>
      <point x="123" y="645" type="line"/>
      <point x="24" y="544" type="line"/>
      <point x="122" y="445" type="line"/>
      <point x="102" y="408"/>
      <point x="90" y="366"/>
      <point x="90" y="321" type="curve" smooth="yes"/>
      <point x="90" y="275"/>
      <point x="103" y="231"/>
      <point x="125" y="193" type="curve"/>
      <point x="24" y="91" type="line"/>
      <point x="123" y="-10" type="line"/>
      <point x="227" y="95" type="line"/>
      <point x="264" y="75"/>
      <point x="306" y="64"/>
      <point x="350" y="64" type="curve" smooth="yes"/>
      <point x="394" y="64"/>
      <point x="436" y="75"/>
      <point x="473" y="95" type="curve"/>
      <point x="578" y="-10" type="line"/>
      <point x="677" y="91" type="line"/>
      <point x="576" y="193" type="line"/>
      <point x="598" y="231"/>
      <point x="611" y="275"/>
      <point x="611" y="321" type="curve" smooth="yes"/>
      <point x="611" y="366"/>
      <point x="599" y="408"/>
    </contour>
    <contour>
      <point x="229" y="321" type="curve" smooth="yes"/>
      <point x="229" y="386"/>
      <point x="283" y="439"/>
      <point x="350" y="439" type="curve" smooth="yes"/>
      <point x="417" y="439"/>
      <point x="472" y="386"/>
      <point x="472" y="321" type="curve" smooth="yes"/>
      <point x="472" y="257"/>
      <point x="417" y="206"/>
      <point x="350" y="206" type="curve" smooth="yes"/>
      <point x="283" y="206"/>
      <point x="229" y="257"/>
    </contour>
  </outline>
</glyph>
<glyph name="yen" format="1">
  <advance width="669"/>
  <unicode hex="00A5"/>
  <note>
    yen
  </note>
  <outline>
    <contour>
      <point x="689" y="701" type="line"/>
      <point x="506" y="701" type="line"/>
      <point x="344" y="400" type="line"/>
      <point x="178" y="701" type="line"/>
      <point x="-5" y="701" type="line"/>
      <point x="187" y="342" type="line"/>
      <point x="69" y="342" type="line"/>
      <point x="69" y="274" type="line"/>
      <point x="223" y="274" type="line"/>
      <point x="253" y="219" type="line"/>
      <point x="253" y="212" type="line"/>
      <point x="69" y="212" type="line"/>
      <point x="69" y="144" type="line"/>
      <point x="253" y="144" type="line"/>
      <point x="253" y="0" type="line"/>
      <point x="436" y="0" type="line"/>
      <point x="436" y="144" type="line"/>
      <point x="609" y="144" type="line"/>
      <point x="609" y="212" type="line"/>
      <point x="436" y="212" type="line"/>
      <point x="436" y="224" type="line"/>
      <point x="463" y="274" type="line"/>
      <point x="609" y="274" type="line"/>
      <point x="609" y="342" type="line"/>
      <point x="499" y="342" type="line"/>
    </contour>
  </outline>
</glyph>
<glyph name="brokenbar" format="1">
  <advance width="302"/>
  <unicode hex="00A6"/>
  <outline>
    <contour>
      <point x="85" y="802" type="line"/>
      <point x="85" y="460" type="line"/>
      <point x="217" y="460" type="line"/>
      <point x="217" y="802" type="line"/>
    </contour>
    <contour>
      <point x="85" y="233" type="line"/>
      <point x="85" y="-109" type="line"/>
      <point x="217" y="-109" type="line"/>
      <point x="217" y="233" type="line"/>
    </contour>
  </outline>
</glyph>
<glyph name="section" format="1">
  <advance width="553"/>
  <unicode hex="00A7"/>
  <outline>
    <contour>
      <point x="361" y="298" type="curve" smooth="yes"/>
      <point x="361" y="275"/>
      <point x="337" y="259"/>
      <point x="289" y="259" type="curve" smooth="yes"/>
      <point x="233" y="259"/>
      <point x="190" y="280"/>
      <point x="190" y="311" type="curve" smooth="yes"/>
      <point x="190" y="334"/>
      <point x="214" y="349"/>
      <point x="260" y="349" type="curve" smooth="yes"/>
      <point x="316" y="349"/>
      <point x="361" y="328"/>
    </contour>
    <contour>
      <point x="65" y="532" type="curve" smooth="yes"/>
      <point x="65" y="490"/>
      <point x="80" y="461"/>
      <point x="135" y="432" type="curve"/>
      <point x="70" y="407"/>
      <point x="31" y="361"/>
      <point x="31" y="299" type="curve" smooth="yes"/>
      <point x="31" y="121"/>
      <point x="325" y="144"/>
      <point x="325" y="69" type="curve" smooth="yes"/>
      <point x="325" y="48"/>
      <point x="301" y="33"/>
      <point x="259" y="33" type="curve" smooth="yes"/>
      <point x="202" y="33"/>
      <point x="133" y="56"/>
      <point x="66" y="101" type="curve"/>
      <point x="16" y="-11" type="line"/>
      <point x="86" y="-62"/>
      <point x="175" y="-88"/>
      <point x="263" y="-88" type="curve" smooth="yes"/>
      <point x="402" y="-88"/>
      <point x="490" y="-21"/>
      <point x="490" y="74" type="curve" smooth="yes"/>
      <point x="490" y="125"/>
      <point x="469" y="148"/>
      <point x="426" y="173" type="curve"/>
      <point x="485" y="199"/>
      <point x="525" y="248"/>
      <point x="525" y="307" type="curve" smooth="yes"/>
      <point x="525" y="487"/>
      <point x="225" y="462"/>
      <point x="225" y="540" type="curve" smooth="yes"/>
      <point x="225" y="561"/>
      <point x="247" y="575"/>
      <point x="286" y="575" type="curve" smooth="yes"/>
      <point x="327" y="575"/>
      <point x="386" y="557"/>
      <point x="457" y="521" type="curve"/>
      <point x="510" y="632" type="line"/>
      <point x="436" y="673"/>
      <point x="359" y="694"/>
      <point x="284" y="694" type="curve" smooth="yes"/>
      <point x="150" y="694"/>
      <point x="65" y="627"/>
    </contour>
  </outline>
</glyph>
<glyph name="dieresis" format="1">
  <advance width="366"/>
  <unicode hex="00A8"/>
  <outline>
    <contour>
      <point x="175" y="541" type="move" name="_abvm"/>
    </contour>
    <contour>
      <point x="-1.474" y="694.97" type="curve" smooth="yes"/>
      <point x="-1.474" y="647.594"/>
      <point x="31.52" y="614.6"/>
      <point x="78.05" y="614.6" type="curve" smooth="yes"/>
      <point x="123.734" y="614.6"/>
      <point x="156.728" y="647.594"/>
      <point x="156.728" y="694.97" type="curve" smooth="yes"/>
      <point x="156.728" y="742.346"/>
      <point x="123.734" y="775.34"/>
      <point x="78.05" y="775.34" type="curve" smooth="yes"/>
      <point x="31.52" y="775.34"/>
      <point x="-1.474" y="742.346"/>
    </contour>
    <contour>
      <point x="192.526" y="694.97" type="curve" smooth="yes"/>
      <point x="192.526" y="647.594"/>
      <point x="225.52" y="614.6"/>
      <point x="272.05" y="614.6" type="curve" smooth="yes"/>
      <point x="317.734" y="614.6"/>
      <point x="350.728" y="647.594"/>
      <point x="350.728" y="694.97" type="curve" smooth="yes"/>
      <point x="350.728" y="742.346"/>
      <point x="317.734" y="775.34"/>
      <point x="272.05" y="775.34" type="curve" smooth="yes"/>
      <point x="225.52" y="775.34"/>
      <point x="192.526" y="742.346"/>
    </contour>
  </outline>
</glyph>
<glyph name="copyright" format="1">
  <advance width="723"/>
  <unicode hex="00A9"/>
  <outline>
    <contour>
      <point x="23" y="348" type="curve" smooth="yes"/>
      <point x="23" y="163"/>
      <point x="170" y="9"/>
      <point x="360" y="9" type="curve" smooth="yes"/>
      <point x="551" y="9"/>
      <point x="700" y="165"/>
      <point x="700" y="350" type="curve" smooth="yes"/>
      <point x="700" y="536"/>
      <point x="552" y="689"/>
      <point x="362" y="689" type="curve" smooth="yes"/>
      <point x="171" y="689"/>
      <point x="23" y="533"/>
    </contour>
    <contour>
      <point x="619" y="350" type="curve" smooth="yes"/>
      <point x="619" y="209"/>
      <point x="507" y="92"/>
      <point x="360" y="92" type="curve" smooth="yes"/>
      <point x="216" y="92"/>
      <point x="105" y="207"/>
      <point x="105" y="348" type="curve" smooth="yes"/>
      <point x="105" y="489"/>
      <point x="217" y="606"/>
      <point x="362" y="606" type="curve" smooth="yes"/>
      <point x="507" y="606"/>
      <point x="619" y="491"/>
    </contour>
    <contour>
      <point x="193" y="349" type="curve" smooth="yes"/>
      <point x="193" y="253"/>
      <point x="266" y="182"/>
      <point x="365" y="182" type="curve" smooth="yes"/>
      <point x="414" y="182"/>
      <point x="465" y="205"/>
      <point x="500" y="242" type="curve"/>
      <point x="451" y="296" type="line"/>
      <point x="428" y="272"/>
      <point x="396" y="258"/>
      <point x="369" y="258" type="curve" smooth="yes"/>
      <point x="319" y="258"/>
      <point x="280" y="298"/>
      <point x="280" y="351" type="curve" smooth="yes"/>
      <point x="280" y="403"/>
      <point x="319" y="442"/>
      <point x="369" y="442" type="curve" smooth="yes"/>
      <point x="398" y="442"/>
      <point x="429" y="425"/>
      <point x="451" y="399" type="curve"/>
      <point x="500" y="458" type="line"/>
      <point x="467" y="493"/>
      <point x="416" y="514"/>
      <point x="368" y="514" type="curve" smooth="yes"/>
      <point x="268" y="514"/>
      <point x="193" y="444"/>
    </contour>
  </outline>
</glyph>
<glyph name="ordfeminine" format="1">
  <advance width="394"/>
  <unicode hex="00AA"/>
  <outline>
    <contour>
      <point x="175" y="529" type="curve"/>
      <point x="149" y="529"/>
      <point x="135" y="542"/>
      <point x="135" y="563" type="curve"/>
      <point x="135" y="584"/>
      <point x="150" y="595"/>
      <point x="177" y="595" type="curve"/>
      <point x="238.0" y="595" type="line"/>
      <point x="238.0" y="559.75" type="line"/>
      <point x="237.0" y="562" type="line"/>
      <point x="223" y="539"/>
      <point x="201" y="529"/>
    </contour>
    <contour>
      <point x="238.0" y="458.0" type="line"/>
      <point x="357.0" y="458.0" type="line"/>
      <point x="357.0" y="668" type="line"/>
      <point x="358" y="744"/>
      <point x="301" y="787"/>
      <point x="205" y="787" type="curve"/>
      <point x="155" y="787"/>
      <point x="97" y="774"/>
      <point x="42" y="754" type="curve"/>
      <point x="70" y="674" type="line"/>
      <point x="109" y="689"/>
      <point x="148" y="698"/>
      <point x="176" y="698" type="curve"/>
      <point x="217" y="698"/>
      <point x="238" y="682"/>
      <point x="238" y="654" type="curve"/>
      <point x="238.0" y="651" type="line"/>
      <point x="152" y="651" type="line"/>
      <point x="67" y="650"/>
      <point x="20" y="616"/>
      <point x="20" y="554" type="curve"/>
      <point x="20" y="493"/>
      <point x="63" y="453"/>
      <point x="134" y="453" type="curve"/>
      <point x="180.926980389" y="453.0"/>
      <point x="216.231547367" y="469.516061164"/>
      <point x="238.0" y="498.7225" type="curve"/>
    </contour>
  </outline>
</glyph>
<glyph name="logicalnot" format="1">
  <advance width="580"/>
  <unicode hex="00AC"/>
  <outline>
    <contour>
      <point x="517" y="136" type="line"/>
      <point x="517" y="430.0" type="line"/>
      <point x="32" y="430.0" type="line"/>
      <point x="32" y="316" type="line"/>
      <point x="389.0" y="316" type="line"/>
      <point x="389.0" y="136" type="line"/>
    </contour>
  </outline>
</glyph>
<glyph name="registered" format="1">
  <advance width="723"/>
  <unicode hex="00AE"/>
  <outline>
    <contour>
      <point x="23" y="348" type="curve" smooth="yes"/>
      <point x="23" y="163"/>
      <point x="170" y="9"/>
      <point x="360" y="9" type="curve" smooth="yes"/>
      <point x="551" y="9"/>
      <point x="700" y="165"/>
      <point x="700" y="350" type="curve" smooth="yes"/>
      <point x="700" y="536"/>
      <point x="552" y="689"/>
      <point x="362" y="689" type="curve" smooth="yes"/>
      <point x="171" y="689"/>
      <point x="23" y="533"/>
    </contour>
    <contour>
      <point x="619" y="350" type="curve" smooth="yes"/>
      <point x="619" y="209"/>
      <point x="507" y="92"/>
      <point x="360" y="92" type="curve" smooth="yes"/>
      <point x="216" y="92"/>
      <point x="105" y="207"/>
      <point x="105" y="348" type="curve" smooth="yes"/>
      <point x="105" y="489"/>
      <point x="217" y="606"/>
      <point x="362" y="606" type="curve" smooth="yes"/>
      <point x="507" y="606"/>
      <point x="619" y="491"/>
    </contour>
    <contour>
      <point x="426" y="405" type="curve" smooth="yes"/>
      <point x="426" y="373"/>
      <point x="406" y="354"/>
      <point x="371" y="354" type="curve" smooth="yes"/>
      <point x="314" y="354" type="line"/>
      <point x="314" y="455" type="line"/>
      <point x="371" y="455" type="line" smooth="yes"/>
      <point x="406" y="455"/>
      <point x="426" y="438"/>
    </contour>
    <contour>
      <point x="315" y="290" type="line"/>
      <point x="372.0" y="290" type="line" smooth="yes"/>
      <point x="374.3945" y="290.03261" type="line"/>
      <point x="421.0" y="202.0" type="line"/>
      <point x="514" y="202.0" type="line"/>
      <point x="446.95625" y="305.61306" type="line"/>
      <point x="483.901641981" y="324.33652684"/>
      <point x="504.0" y="359.468810747"/>
      <point x="504.0" y="408.0" type="curve" smooth="yes"/>
      <point x="504" y="479"/>
      <point x="456" y="519"/>
      <point x="372" y="519" type="curve" smooth="yes"/>
      <point x="233.0" y="519" type="line"/>
      <point x="233.0" y="202.0" type="line"/>
      <point x="315" y="202.0" type="line"/>
    </contour>
  </outline>
</glyph>
<glyph name="macron" format="1">
  <advance width="350"/>
  <unicode hex="00AF"/>
  <outline>
    <contour>
      <point x="175" y="541" type="move" name="_abvm"/>
    </contour>
    <contour>
      <point x="35" y="752" type="line"/>
      <point x="35" y="631" type="line"/>
      <point x="316" y="631" type="line"/>
      <point x="316" y="752" type="line"/>
    </contour>
  </outline>
</glyph>
<glyph name="degree" format="1">
  <advance width="377"/>
  <unicode hex="00B0"/>
  <outline>
    <contour>
      <point x="84" y="700" type="curve" smooth="yes"/>
      <point x="84" y="634"/>
      <point x="138" y="581"/>
      <point x="203" y="581" type="curve" smooth="yes"/>
      <point x="269" y="581"/>
      <point x="322" y="634"/>
      <point x="322" y="700" type="curve" smooth="yes"/>
      <point x="322" y="765"/>
      <point x="269" y="818"/>
      <point x="203" y="818" type="curve" smooth="yes"/>
      <point x="138" y="818"/>
      <point x="84" y="765"/>
    </contour>
    <contour>
      <point x="253" y="700" type="curve" smooth="yes"/>
      <point x="253" y="673"/>
      <point x="230" y="651"/>
      <point x="202" y="651" type="curve" smooth="yes"/>
      <point x="175" y="651"/>
      <point x="152" y="673"/>
      <point x="152" y="700" type="curve" smooth="yes"/>
      <point x="152" y="726"/>
      <point x="175" y="749"/>
      <point x="202" y="749" type="curve" smooth="yes"/>
      <point x="230" y="749"/>
      <point x="253" y="726"/>
    </contour>
  </outline>
</glyph>
<glyph name="twosuperior" format="1">
  <advance width="389"/>
  <unicode hex="00B2"/>
  <outline>
    <contour>
      <point x="17" y="641" type="curve"/>
      <point x="64" y="553" type="line"/>
      <point x="105" y="586"/>
      <point x="149" y="606"/>
      <point x="182" y="606" type="curve"/>
      <point x="209" y="606"/>
      <point x="223" y="596"/>
      <point x="223" y="577" type="curve"/>
      <point x="223" y="560"/>
      <point x="207" y="536"/>
      <point x="186" y="514" type="curve" smooth="yes"/>
      <point x="32" y="360" type="line"/>
      <point x="32" y="283" type="line"/>
      <point x="364" y="283" type="line"/>
      <point x="364" y="377" type="line"/>
      <point x="191" y="377" type="line"/>
      <point x="271" y="454" type="line" smooth="yes"/>
      <point x="320" y="501"/>
      <point x="354" y="547"/>
      <point x="354" y="594" type="curve"/>
      <point x="354" y="661"/>
      <point x="290" y="705"/>
      <point x="202" y="705" type="curve"/>
      <point x="137" y="705"/>
      <point x="75" y="681"/>
    </contour>
  </outline>
</glyph>
<glyph name="threesuperior" format="1">
  <advance width="366"/>
  <unicode hex="00B3"/>
  <outline>
    <contour>
      <point x="220" y="533" type="line"/>
      <point x="322" y="630" type="line"/>
      <point x="322" y="699" type="line"/>
      <point x="26" y="699" type="line"/>
      <point x="26" y="610" type="line"/>
      <point x="181" y="610" type="line"/>
      <point x="88" y="523" type="line"/>
      <point x="88" y="458" type="line"/>
      <point x="162" y="458" type="line" smooth="yes"/>
      <point x="199" y="458"/>
      <point x="220" y="443"/>
      <point x="220" y="414" type="curve" smooth="yes"/>
      <point x="220" y="385"/>
      <point x="199" y="368"/>
      <point x="162" y="368" type="curve" smooth="yes"/>
      <point x="123" y="368"/>
      <point x="86" y="387"/>
      <point x="54" y="423" type="curve"/>
      <point x="4" y="330" type="line"/>
      <point x="44" y="298"/>
      <point x="110" y="277"/>
      <point x="172" y="277" type="curve" smooth="yes"/>
      <point x="276" y="277"/>
      <point x="342" y="334"/>
      <point x="342" y="414" type="curve" smooth="yes"/>
      <point x="342" y="478"/>
      <point x="299" y="519"/>
      <point x="240" y="529" type="curve" smooth="yes"/>
    </contour>
  </outline>
</glyph>
<glyph name="acute" format="1">
  <advance width="350"/>
  <unicode hex="00B4"/>
  <outline>
    <contour>
      <point x="131" y="541" type="move" name="_abvm"/>
    </contour>
    <contour>
      <point x="42" y="598" type="line"/>
      <point x="177" y="598" type="line"/>
      <point x="308" y="714" type="line"/>
      <point x="149" y="770" type="line"/>
    </contour>
  </outline>
</glyph>
<glyph name="mu" format="1">
  <advance width="685"/>
  <unicode hex="00B5"/>
  <outline>
    <contour>
      <point x="266.0" y="-8.0" type="curve" smooth="yes"/>
      <point x="342.512369611" y="-7.42471902548"/>
      <point x="402.14638104" y="25.2525373141"/>
      <point x="439.0" y="87.77409" type="curve"/>
      <point x="439.0" y="0" type="line"/>
      <point x="617" y="0" type="line"/>
      <point x="617" y="541" type="line"/>
      <point x="439.0" y="541" type="line"/>
      <point x="439.0" y="274" type="line"/>
      <point x="439" y="203"/>
      <point x="401" y="153"/>
      <point x="338" y="152" type="curve" smooth="yes"/>
      <point x="285" y="152"/>
      <point x="251" y="189"/>
      <point x="251" y="250" type="curve" smooth="yes"/>
      <point x="251.0" y="541" type="line"/>
      <point x="73" y="541" type="line"/>
      <point x="73" y="-194.0" type="line"/>
      <point x="251.0" y="-194.0" type="line"/>
      <point x="251.0" y="-7.52836" type="line"/>
      <point x="255.920854262" y="-7.84740809444"/>
      <point x="260.921808192" y="-8.0"/>
    </contour>
  </outline>
</glyph>
<glyph name="paragraph" format="1">
  <advance width="653"/>
  <unicode hex="00B6"/>
  <outline>
    <contour>
      <point x="238" y="742" type="line" smooth="yes"/>
      <point x="61" y="742"/>
      <point x="-6" y="636"/>
      <point x="-6" y="527" type="curve" smooth="yes"/>
      <point x="-6" y="446"/>
      <point x="35" y="320"/>
      <point x="197" y="320" type="curve" smooth="yes"/>
      <point x="223" y="320" type="line"/>
      <point x="223" y="-107" type="line"/>
      <point x="355" y="-107" type="line"/>
      <point x="355" y="640" type="line"/>
      <point x="453" y="640" type="line"/>
      <point x="453" y="-107" type="line"/>
      <point x="585" y="-107" type="line"/>
      <point x="585" y="742" type="line"/>
    </contour>
  </outline>
</glyph>
<glyph name="periodcentered" format="1">
  <advance width="243"/>
  <unicode hex="00B7"/>
  <outline>
    <contour>
      <point x="37" y="286" type="curve" smooth="yes"/>
      <point x="37" y="236"/>
      <point x="72" y="201"/>
      <point x="121" y="201" type="curve" smooth="yes"/>
      <point x="172" y="201"/>
      <point x="207" y="236"/>
      <point x="207" y="286" type="curve" smooth="yes"/>
      <point x="207" y="336"/>
      <point x="172" y="371"/>
      <point x="121" y="371" type="curve" smooth="yes"/>
      <point x="72" y="371"/>
      <point x="37" y="336"/>
    </contour>
  </outline>
</glyph>
<glyph name="cedilla" format="1">
  <advance width="350"/>
  <unicode hex="00B8"/>
  <outline>
    <contour>
      <point x="175.009" y="0" type="move" name="_blwm"/>
    </contour>
    <contour>
      <point x="251" y="15" type="line"/>
      <point x="152" y="15" type="line"/>
      <point x="105" y="-84" type="line"/>
      <point x="117" y="-81"/>
      <point x="131" y="-79"/>
      <point x="141" y="-79" type="curve" smooth="yes"/>
      <point x="170" y="-79"/>
      <point x="186" y="-95"/>
      <point x="186" y="-115" type="curve" smooth="yes"/>
      <point x="186" y="-135"/>
      <point x="170" y="-151"/>
      <point x="145" y="-151" type="curve" smooth="yes"/>
      <point x="128" y="-151"/>
      <point x="109" y="-143"/>
      <point x="97" y="-131" type="curve"/>
      <point x="64" y="-206" type="line"/>
      <point x="92" y="-225"/>
      <point x="128" y="-237"/>
      <point x="160" y="-237" type="curve" smooth="yes"/>
      <point x="234" y="-237"/>
      <point x="286" y="-196"/>
      <point x="286" y="-132" type="curve" smooth="yes"/>
      <point x="286" y="-92"/>
      <point x="259" y="-62"/>
      <point x="218" y="-51" type="curve"/>
    </contour>
  </outline>
</glyph>
<glyph name="onesuperior" format="1">
  <advance width="276"/>
  <unicode hex="00B9"/>
  <outline>
    <contour>
      <point x="213" y="701" type="line"/>
      <point x="9" y="701" type="line"/>
      <point x="9" y="603" type="line"/>
      <point x="88" y="603" type="line"/>
      <point x="88" y="283" type="line"/>
      <point x="213" y="283" type="line"/>
    </contour>
  </outline>
</glyph>
<glyph name="ordmasculine" format="1">
  <advance width="414"/>
  <unicode hex="00BA"/>
  <outline>
    <contour>
      <point x="20" y="620" type="curve" smooth="yes"/>
      <point x="20" y="520"/>
      <point x="94" y="454"/>
      <point x="207" y="454" type="curve" smooth="yes"/>
      <point x="320" y="454"/>
      <point x="394" y="520"/>
      <point x="394" y="620" type="curve" smooth="yes"/>
      <point x="394" y="721"/>
      <point x="320" y="786"/>
      <point x="207" y="786" type="curve" smooth="yes"/>
      <point x="94" y="786"/>
      <point x="20" y="721"/>
    </contour>
    <contour>
      <point x="271" y="618" type="curve" smooth="yes"/>
      <point x="271" y="575"/>
      <point x="245" y="546"/>
      <point x="207" y="546" type="curve" smooth="yes"/>
      <point x="168" y="546"/>
      <point x="142" y="575"/>
      <point x="142" y="618" type="curve" smooth="yes"/>
      <point x="142" y="663"/>
      <point x="168" y="692"/>
      <point x="207" y="692" type="curve" smooth="yes"/>
      <point x="245" y="692"/>
      <point x="271" y="663"/>
    </contour>
  </outline>
</glyph>
<glyph name="questiondown" format="1">
  <advance width="474"/>
  <unicode hex="00BF"/>
  <outline>
    <contour>
      <point x="332" y="463" type="curve" smooth="yes"/>
      <point x="332" y="513"/>
      <point x="297" y="548"/>
      <point x="248" y="548" type="curve" smooth="yes"/>
      <point x="197" y="548"/>
      <point x="162" y="513"/>
      <point x="162" y="463" type="curve" smooth="yes"/>
      <point x="162" y="413"/>
      <point x="197" y="378"/>
      <point x="248" y="378" type="curve" smooth="yes"/>
      <point x="297" y="378"/>
      <point x="332" y="413"/>
    </contour>
    <contour>
      <point x="334" y="67" type="line"/>
      <point x="333" y="6"/>
      <point x="306" y="-23"/>
      <point x="257" y="-23" type="curve" smooth="yes"/>
      <point x="214" y="-23"/>
      <point x="188" y="-3"/>
      <point x="188" y="39" type="curve" smooth="yes"/>
      <point x="188" y="137"/>
      <point x="310" y="145"/>
      <point x="310" y="300" type="curve"/>
      <point x="177" y="300" type="line"/>
      <point x="177" y="181"/>
      <point x="24" y="162"/>
      <point x="24" y="11" type="curve" smooth="yes"/>
      <point x="24" y="-101"/>
      <point x="107" y="-164"/>
      <point x="241" y="-164" type="curve" smooth="yes"/>
      <point x="383" y="-164"/>
      <point x="469" y="-79"/>
      <point x="471" y="66" type="curve"/>
    </contour>
  </outline>
</glyph>
<glyph name="Aring" format="1">
  <advance width="773"/>
  <unicode hex="00C5"/>
  <outline>
    <contour>
      <point x="443" y="767" type="curve" smooth="yes"/>
      <point x="443" y="737"/>
      <point x="420" y="715"/>
      <point x="390" y="715" type="curve" smooth="yes"/>
      <point x="360" y="715"/>
      <point x="336" y="737"/>
      <point x="336" y="767" type="curve" smooth="yes"/>
      <point x="336" y="796"/>
      <point x="360" y="819"/>
      <point x="390" y="819" type="curve" smooth="yes"/>
      <point x="420" y="819"/>
      <point x="443" y="796"/>
    </contour>
    <contour>
      <point x="384.0" y="514" type="line"/>
      <point x="480.78988" y="264" type="line"/>
      <point x="286.23735" y="264" type="line"/>
    </contour>
    <contour>
      <point x="583" y="0" type="line"/>
      <point x="778.0" y="0" type="line"/>
      <point x="490.49027" y="685.5249" type="line"/>
      <point x="508.369118805" y="707.60915545"/>
      <point x="519.0" y="735.905777568"/>
      <point x="519.0" y="767.0" type="curve" smooth="yes"/>
      <point x="519" y="838"/>
      <point x="462" y="895"/>
      <point x="390" y="895" type="curve" smooth="yes"/>
      <point x="318" y="895"/>
      <point x="261" y="838"/>
      <point x="261" y="767" type="curve" smooth="yes"/>
      <point x="261.0" y="735.970993656"/>
      <point x="271.586334178" y="707.727864728"/>
      <point x="289.39733" y="685.67393" type="curve"/>
      <point x="-6.0" y="0" type="line"/>
      <point x="183.0" y="0" type="line"/>
      <point x="231.49027" y="124.0" type="line"/>
      <point x="534.99222" y="124.0" type="line"/>
    </contour>
  </outline>
</glyph>
<glyph name="AE" format="1">
  <advance width="1106"/>
  <unicode hex="00C6"/>
  <outline>
    <contour>
      <point x="773" y="0" type="move" name="blwm"/>
    </contour>
    <contour>
      <point x="1056" y="10" type="move" name="ogonek"/>
    </contour>
    <contour>
      <point x="644" y="701" type="move" name="abvm"/>
    </contour>
    <contour>
      <point x="479.0" y="558" type="line"/>
      <point x="499.0" y="558" type="line"/>
      <point x="499.0" y="278" type="line"/>
      <point x="330.97133" y="278" type="line"/>
    </contour>
    <contour>
      <point x="499.0" y="0" type="line"/>
      <point x="1062" y="0" type="line"/>
      <point x="1062" y="146" type="line"/>
      <point x="682" y="146" type="line"/>
      <point x="682" y="279" type="line"/>
      <point x="1016.0" y="279" type="line"/>
      <point x="1016.0" y="424.0" type="line"/>
      <point x="682" y="424.0" type="line"/>
      <point x="682" y="555" type="line"/>
      <point x="1052" y="555" type="line"/>
      <point x="1052" y="701.0" type="line"/>
      <point x="391.0" y="701.0" type="line"/>
      <point x="-6.0" y="0" type="line"/>
      <point x="184.0" y="0" type="line"/>
      <point x="260.12903" y="144" type="line"/>
      <point x="499.0" y="144" type="line"/>
    </contour>
  </outline>
</glyph>
<glyph name="Eth" format="1">
  <advance width="799"/>
  <unicode hex="00D0"/>
  <outline>
    <contour>
      <point x="396.0" y="0" type="line" smooth="yes"/>
      <point x="623" y="0"/>
      <point x="776" y="142"/>
      <point x="776" y="351" type="curve" smooth="yes"/>
      <point x="776" y="559"/>
      <point x="625" y="701"/>
      <point x="403" y="701" type="curve" smooth="yes"/>
      <point x="101.0" y="701.0" type="line"/>
      <point x="101.0" y="400.0" type="line"/>
      <point x="0" y="400.0" type="line"/>
      <point x="0" y="302" type="line"/>
      <point x="101.0" y="302" type="line"/>
      <point x="101.0" y="0" type="line"/>
    </contour>
    <contour>
      <point x="284" y="148" type="line"/>
      <point x="284" y="302" type="line"/>
      <point x="439.0" y="302" type="line"/>
      <point x="439.0" y="400.0" type="line"/>
      <point x="284" y="400.0" type="line"/>
      <point x="284" y="552" type="line"/>
      <point x="399.0" y="552" type="line" smooth="yes"/>
      <point x="510" y="552"/>
      <point x="589" y="470"/>
      <point x="589" y="349" type="curve" smooth="yes"/>
      <point x="589" y="229"/>
      <point x="514" y="148"/>
      <point x="408" y="148" type="curve" smooth="yes"/>
    </contour>
  </outline>
</glyph>
<glyph name="multiply" format="1">
  <advance width="511"/>
  <unicode hex="00D7"/>
  <outline>
    <contour>
      <point x="373.0" y="129" type="line"/>
      <point x="452.0" y="210.0" type="line"/>
      <point x="334.68621" y="327.31379" type="line"/>
      <point x="452.0" y="445.0" type="line"/>
      <point x="373.0" y="525" type="line"/>
      <point x="255.0" y="407.0" type="line"/>
      <point x="137" y="525" type="line"/>
      <point x="58.0" y="445.0" type="line"/>
      <point x="175.31379" y="327.31379" type="line"/>
      <point x="58.0" y="210.0" type="line"/>
      <point x="137" y="129" type="line"/>
      <point x="255.0" y="247.3746" type="line"/>
    </contour>
  </outline>
</glyph>
<glyph name="Oslash" format="1">
  <advance width="804"/>
  <unicode hex="00D8"/>
  <outline>
    <contour>
      <point x="388" y="701" type="move" name="abvm"/>
    </contour>
    <contour>
      <point x="211.0" y="350.0" type="curve" smooth="yes"/>
      <point x="211" y="464"/>
      <point x="299" y="550"/>
      <point x="405" y="550" type="curve" smooth="yes"/>
      <point x="412.119423783" y="549.87322503"/>
      <point x="413.846234165" y="549.799663005"/>
      <point x="415.56707" y="549.70011" type="curve"/>
      <point x="288.58185" y="188.40162" type="line"/>
      <point x="241.81906487" y="224.835128859"/>
      <point x="211.0" y="282.915903269"/>
    </contour>
    <contour>
      <point x="405" y="148" type="curve" smooth="yes"/>
      <point x="395.653218275" y="148.0"/>
      <point x="386.433220883" y="148.697313825"/>
      <point x="377.3915" y="150.06108" type="curve"/>
      <point x="507.42227" y="518.88293" type="line"/>
      <point x="559.436119368" y="484.004952738"/>
      <point x="594.0" y="422.695350826"/>
      <point x="594.0" y="350.0" type="curve" smooth="yes"/>
      <point x="594" y="236"/>
      <point x="509" y="148"/>
    </contour>
    <contour>
      <point x="402.0" y="-8.0" type="curve" smooth="yes"/>
      <point x="619" y="-8"/>
      <point x="781" y="146"/>
      <point x="781" y="351" type="curve" smooth="yes"/>
      <point x="781.0" y="499.604987043"/>
      <point x="694.186011983" y="620.879644526"/>
      <point x="562.53353" y="675.2016" type="curve"/>
      <point x="609" y="807.0" type="line"/>
      <point x="506.0" y="807.0" type="line"/>
      <point x="468.75513" y="701.03084" type="line"/>
      <point x="447.200186" y="704.306276658"/>
      <point x="424.90652321" y="706.0"/>
      <point x="402.0" y="706.0" type="curve" smooth="yes"/>
      <point x="185" y="706"/>
      <point x="23" y="555"/>
      <point x="23" y="351" type="curve" smooth="yes"/>
      <point x="23.0" y="204.57063818"/>
      <point x="105.653953516" y="84.1619654292"/>
      <point x="231.96706" y="27.32115" type="curve"/>
      <point x="183.0" y="-112.0" type="line"/>
      <point x="285" y="-112.0" type="line"/>
      <point x="324.0986" y="-1.09995" type="line"/>
      <point x="349.086327508" y="-5.63723984797"/>
      <point x="375.121242298" y="-8.0"/>
    </contour>
  </outline>
</glyph>
<glyph name="Thorn" format="1">
  <advance width="689"/>
  <unicode hex="00DE"/>
  <outline>
    <contour>
      <point x="363.0" y="467.0" type="line" smooth="yes"/>
      <point x="438" y="467"/>
      <point x="480" y="428"/>
      <point x="480" y="362" type="curve" smooth="yes"/>
      <point x="480" y="293"/>
      <point x="438" y="253"/>
      <point x="363" y="253" type="curve" smooth="yes"/>
      <point x="251.0" y="253.0" type="line"/>
      <point x="251.0" y="467.0" type="line"/>
    </contour>
    <contour>
      <point x="371.0" y="111.0" type="line" smooth="yes"/>
      <point x="555" y="111"/>
      <point x="667" y="208"/>
      <point x="667" y="367" type="curve" smooth="yes"/>
      <point x="667" y="517"/>
      <point x="555" y="609"/>
      <point x="371" y="609" type="curve" smooth="yes"/>
      <point x="251.0" y="609" type="line"/>
      <point x="251.0" y="701.0" type="line"/>
      <point x="68" y="701.0" type="line"/>
      <point x="68" y="0" type="line"/>
      <point x="251.0" y="0" type="line"/>
      <point x="251.0" y="111.0" type="line"/>
    </contour>
  </outline>
</glyph>
<glyph name="germandbls" format="1">
  <advance width="663"/>
  <unicode hex="00DF"/>
  <outline>
    <contour>
      <point x="56" y="492" type="curve" smooth="yes"/>
      <point x="56" y="0" type="line"/>
      <point x="233" y="0" type="line"/>
      <point x="233" y="506" type="line" smooth="yes"/>
      <point x="233" y="576"/>
      <point x="268" y="615"/>
      <point x="330" y="615" type="curve" smooth="yes"/>
      <point x="385" y="615"/>
      <point x="416" y="583"/>
      <point x="416" y="523" type="curve" smooth="yes"/>
      <point x="416" y="462"/>
      <point x="380" y="429"/>
      <point x="313" y="429" type="curve"/>
      <point x="313" y="302" type="line"/>
      <point x="331" y="302" type="line" smooth="yes"/>
      <point x="413" y="302"/>
      <point x="458" y="272"/>
      <point x="458" y="216" type="curve" smooth="yes"/>
      <point x="458" y="161"/>
      <point x="417" y="128"/>
      <point x="342" y="128" type="curve" smooth="yes"/>
      <point x="303" y="128" type="line"/>
      <point x="303" y="0" type="line"/>
      <point x="352" y="0" type="line" smooth="yes"/>
      <point x="522" y="0"/>
      <point x="631" y="86"/>
      <point x="631" y="214" type="curve" smooth="yes"/>
      <point x="631" y="299"/>
      <point x="575" y="361"/>
      <point x="494" y="383" type="curve"/>
      <point x="552" y="416"/>
      <point x="589" y="481"/>
      <point x="589" y="550" type="curve" smooth="yes"/>
      <point x="589" y="671"/>
      <point x="485" y="750"/>
      <point x="328" y="750" type="curve" smooth="yes"/>
      <point x="161" y="750"/>
      <point x="56" y="649"/>
    </contour>
  </outline>
</glyph>
<glyph name="ae" format="1">
  <advance width="965"/>
  <unicode hex="00E6"/>
  <outline>
    <contour>
      <point x="484" y="541" type="move" name="abvm"/>
    </contour>
    <contour>
      <point x="664.0" y="425.0" type="curve" smooth="yes"/>
      <point x="724" y="425"/>
      <point x="765" y="380"/>
      <point x="764" y="317" type="curve"/>
      <point x="555.15992" y="317" type="line"/>
      <point x="566.137042838" y="380.524701114"/>
      <point x="605.185121667" y="425.0"/>
    </contour>
    <contour>
      <point x="267.0" y="109.0" type="curve" smooth="yes"/>
      <point x="221" y="109"/>
      <point x="193" y="134"/>
      <point x="193" y="174" type="curve" smooth="yes"/>
      <point x="193" y="212"/>
      <point x="221" y="233"/>
      <point x="271" y="233" type="curve" smooth="yes"/>
      <point x="376.59394" y="233.0" type="line"/>
      <point x="376.95031" y="174.19941" type="line"/>
      <point x="351.73811383" y="128.367150491"/>
      <point x="312.135792699" y="109.0"/>
    </contour>
    <contour>
      <point x="667.0" y="-6.0" type="curve" smooth="yes"/>
      <point x="767" y="-6"/>
      <point x="848" y="28"/>
      <point x="904" y="90" type="curve"/>
      <point x="810.0" y="183.0" type="line"/>
      <point x="774" y="147"/>
      <point x="729" y="128"/>
      <point x="682" y="128" type="curve" smooth="yes"/>
      <point x="618.261663926" y="128.0"/>
      <point x="571.884761551" y="165.393857197"/>
      <point x="557.05633" y="231.0" type="curve"/>
      <point x="942.0" y="231.0" type="line"/>
      <point x="951" y="421"/>
      <point x="843" y="547"/>
      <point x="662" y="547" type="curve" smooth="yes"/>
      <point x="594.153849004" y="547.0"/>
      <point x="537.276022715" y="527.041245205"/>
      <point x="494.26386" y="491.30351" type="curve"/>
      <point x="453.453955556" y="528.141252644"/>
      <point x="391.777271778" y="548.0"/>
      <point x="313.0" y="548.0" type="curve" smooth="yes"/>
      <point x="234" y="548"/>
      <point x="146" y="527"/>
      <point x="60" y="490" type="curve"/>
      <point x="101.0" y="369.0" type="line"/>
      <point x="162" y="397"/>
      <point x="224" y="412"/>
      <point x="272" y="412" type="curve" smooth="yes"/>
      <point x="340" y="412"/>
      <point x="376" y="382"/>
      <point x="376" y="331" type="curve"/>
      <point x="376.07273" y="319" type="line"/>
      <point x="234.0" y="319" type="line" smooth="yes"/>
      <point x="100" y="317"/>
      <point x="26" y="262"/>
      <point x="26" y="159" type="curve" smooth="yes"/>
      <point x="26" y="59"/>
      <point x="100" y="-9"/>
      <point x="223" y="-9" type="curve" smooth="yes"/>
      <point x="326.337477529" y="-9.0"/>
      <point x="401.899078187" y="32.2670170646"/>
      <point x="444.02906" y="105.63302" type="curve"/>
      <point x="487.099058313" y="35.2371610409"/>
      <point x="563.051593757" y="-6.0"/>
    </contour>
  </outline>
</glyph>
<glyph name="eth" format="1">
  <advance width="605"/>
  <unicode hex="00F0"/>
  <outline>
    <contour>
      <point x="284" y="-8" type="curve" smooth="yes"/>
      <point x="465" y="-8"/>
      <point x="582" y="108"/>
      <point x="582" y="287" type="curve" smooth="yes"/>
      <point x="582.0" y="397.619959926"/>
      <point x="536.76827036" y="503.78045355"/>
      <point x="457.81049" y="590.55053" type="curve"/>
      <point x="554" y="623" type="line"/>
      <point x="526" y="707.0" type="line"/>
      <point x="383.8018" y="658.57018" type="line"/>
      <point x="336.123453349" y="695.338499473"/>
      <point x="281.066604281" y="726.406084709"/>
      <point x="220.0" y="750.0" type="curve"/>
      <point x="101.0" y="676" type="line"/>
      <point x="145.424416865" y="655.888946419"/>
      <point x="187.416160339" y="631.633338171"/>
      <point x="225.43369" y="604.63321" type="curve"/>
      <point x="112.0" y="566" type="line"/>
      <point x="139" y="483.0" type="line"/>
      <point x="304.63679" y="538.87747" type="line"/>
      <point x="353.445239692" y="491.219864142"/>
      <point x="389.557028236" y="439.443188614"/>
      <point x="407.0" y="389.0" type="curve"/>
      <point x="375" y="424"/>
      <point x="313" y="446"/>
      <point x="248" y="446" type="curve" smooth="yes"/>
      <point x="110" y="446"/>
      <point x="21" y="359"/>
      <point x="21" y="226" type="curve" smooth="yes"/>
      <point x="21" y="84"/>
      <point x="124" y="-8"/>
    </contour>
    <contour>
      <point x="392" y="232" type="curve" smooth="yes"/>
      <point x="392" y="177"/>
      <point x="353" y="141"/>
      <point x="291" y="141" type="curve" smooth="yes"/>
      <point x="230" y="141"/>
      <point x="191" y="178"/>
      <point x="191" y="235" type="curve" smooth="yes"/>
      <point x="191" y="290"/>
      <point x="230" y="325"/>
      <point x="290" y="325" type="curve" smooth="yes"/>
      <point x="353" y="325"/>
      <point x="392" y="289"/>
    </contour>
  </outline>
</glyph>
<glyph name="divide" format="1">
  <advance width="511"/>
  <unicode hex="00F7"/>
  <outline>
    <contour>
      <point x="168.526" y="508.97" type="curve" smooth="yes"/>
      <point x="168.526" y="461.594"/>
      <point x="201.52" y="428.6"/>
      <point x="248.05" y="428.6" type="curve" smooth="yes"/>
      <point x="293.734" y="428.6"/>
      <point x="326.728" y="461.594"/>
      <point x="326.728" y="508.97" type="curve" smooth="yes"/>
      <point x="326.728" y="556.346"/>
      <point x="293.734" y="589.34"/>
      <point x="248.05" y="589.34" type="curve" smooth="yes"/>
      <point x="201.52" y="589.34"/>
      <point x="168.526" y="556.346"/>
    </contour>
    <contour>
      <point x="32" y="384" type="line"/>
      <point x="32" y="270" type="line"/>
      <point x="478" y="270" type="line"/>
      <point x="478" y="384" type="line"/>
    </contour>
    <contour>
      <point x="168.526" y="150.97" type="curve" smooth="yes"/>
      <point x="168.526" y="103.594"/>
      <point x="201.52" y="70.6"/>
      <point x="248.05" y="70.6" type="curve" smooth="yes"/>
      <point x="293.734" y="70.6"/>
      <point x="326.728" y="103.594"/>
      <point x="326.728" y="150.97" type="curve" smooth="yes"/>
      <point x="326.728" y="198.346"/>
      <point x="293.734" y="231.34"/>
      <point x="248.05" y="231.34" type="curve" smooth="yes"/>
      <point x="201.52" y="231.34"/>
      <point x="168.526" y="198.346"/>
    </contour>
  </outline>
</glyph>
<glyph name="oslash" format="1">
  <advance width="638"/>
  <unicode hex="00F8"/>
  <outline>
    <contour>
      <point x="319" y="541" type="move" name="abvm"/>
    </contour>
    <contour>
      <point x="191.0" y="268.0" type="curve" smooth="yes"/>
      <point x="191" y="358"/>
      <point x="243" y="418"/>
      <point x="319" y="418" type="curve" smooth="yes"/>
      <point x="323.116110349" y="418.0"/>
      <point x="327.161823062" y="417.82400591"/>
      <point x="331.13269" y="417.45664" type="curve"/>
      <point x="242.30277" y="144.59793" type="line"/>
      <point x="210.193970387" y="170.083883297"/>
      <point x="191.0" y="213.320662014"/>
    </contour>
    <contour>
      <point x="319" y="119" type="curve" smooth="yes"/>
      <point x="314.868688915" y="119.0"/>
      <point x="310.808296381" y="119.174341438"/>
      <point x="306.82332" y="119.53856" type="curve"/>
      <point x="395.31023" y="392.3732" type="line"/>
      <point x="427.651742044" y="366.634870568"/>
      <point x="447.0" y="322.89866354"/>
      <point x="447.0" y="268.0" type="curve" smooth="yes"/>
      <point x="447" y="178"/>
      <point x="395" y="119"/>
    </contour>
    <contour>
      <point x="320.0" y="-6.0" type="curve" smooth="yes"/>
      <point x="497" y="-6"/>
      <point x="615" y="104"/>
      <point x="615" y="271" type="curve" smooth="yes"/>
      <point x="615.0" y="396.094151894"/>
      <point x="547.989964912" y="489.386931203"/>
      <point x="439.21858" y="527.7573" type="curve"/>
      <point x="486.0" y="672" type="line"/>
      <point x="414.0" y="672" type="line"/>
      <point x="372.20872" y="543.62981" type="line"/>
      <point x="355.460068455" y="545.85779625"/>
      <point x="338.036352506" y="547.0"/>
      <point x="320.0" y="547.0" type="curve" smooth="yes"/>
      <point x="142" y="547"/>
      <point x="24" y="437"/>
      <point x="24" y="271" type="curve" smooth="yes"/>
      <point x="24.0" y="145.381732942"/>
      <point x="90.7658927968" y="52.0147869802"/>
      <point x="199.61246" y="13.46621" type="curve"/>
      <point x="149" y="-142" type="line"/>
      <point x="222.0" y="-142" type="line"/>
      <point x="267.21678" y="-2.58159" type="line"/>
      <point x="284.139122636" y="-4.84423033144"/>
      <point x="301.754351408" y="-6.0"/>
    </contour>
  </outline>
</glyph>
<glyph name="thorn" format="1">
  <advance width="685"/>
  <unicode hex="00FE"/>
  <outline>
    <contour>
      <point x="162" y="0" type="move" name="blwm"/>
    </contour>
    <contour>
      <point x="162" y="742" type="move" name="abvm"/>
    </contour>
    <contour>
      <point x="294" y="541" type="move" name="topright"/>
    </contour>
    <contour>
      <point x="483" y="272" type="curve" smooth="yes"/>
      <point x="483" y="192"/>
      <point x="436" y="138"/>
      <point x="367" y="138" type="curve" smooth="yes"/>
      <point x="298" y="138"/>
      <point x="251" y="192"/>
      <point x="251" y="272" type="curve" smooth="yes"/>
      <point x="251" y="352"/>
      <point x="298" y="407"/>
      <point x="367" y="407" type="curve" smooth="yes"/>
      <point x="436" y="407"/>
      <point x="483" y="352"/>
    </contour>
    <contour>
      <point x="251.0" y="-194.0" type="line"/>
      <point x="251.0" y="69.41737" type="line"/>
      <point x="289.15955954" y="21.0262237961"/>
      <point x="344.823223821" y="-6.0"/>
      <point x="414.0" y="-6.0" type="curve" smooth="yes"/>
      <point x="564" y="-6"/>
      <point x="662" y="103"/>
      <point x="662" y="268" type="curve" smooth="yes"/>
      <point x="662" y="436"/>
      <point x="561" y="547"/>
      <point x="409" y="547" type="curve" smooth="yes"/>
      <point x="342.425827188" y="547.0"/>
      <point x="288.379554442" y="520.190293857"/>
      <point x="251.0" y="471.81548" type="curve"/>
      <point x="251.0" y="742.0" type="line"/>
      <point x="73" y="742.0" type="line"/>
      <point x="73" y="-194.0" type="line"/>
    </contour>
  </outline>
</glyph>
<glyph name="Aogonek" format="1">
  <advance width="773"/>
  <unicode hex="0104"/>
  <outline>
    <contour>
      <point x="296" y="701" type="line"/>
      <point x="-6" y="0" type="line"/>
      <point x="183" y="0" type="line"/>
      <point x="233" y="124" type="line"/>
      <point x="534" y="124" type="line"/>
      <point x="583" y="0" type="line"/>
      <point x="640" y="0" type="line"/>
      <point x="612" y="-41"/>
      <point x="593" y="-80"/>
      <point x="593" y="-119" type="curve" smooth="yes"/>
      <point x="593" y="-182"/>
      <point x="642" y="-203"/>
      <point x="682" y="-203" type="curve" smooth="yes"/>
      <point x="726" y="-203"/>
      <point x="766" y="-179"/>
      <point x="791" y="-135" type="curve"/>
      <point x="746" y="-82" type="line"/>
      <point x="733" y="-101"/>
      <point x="719" y="-112"/>
      <point x="703" y="-112" type="curve" smooth="yes"/>
      <point x="691" y="-112"/>
      <point x="683" y="-105"/>
      <point x="683" y="-90" type="curve" smooth="yes"/>
      <point x="683" y="-71"/>
      <point x="698" y="-39"/>
      <point x="725" y="0" type="curve"/>
      <point x="778" y="0" type="line"/>
      <point x="484" y="701" type="line"/>
    </contour>
    <contour>
      <point x="483" y="264" type="line"/>
      <point x="285" y="264" type="line"/>
      <point x="385" y="514" type="line"/>
    </contour>
  </outline>
</glyph>
<glyph name="aogonek" format="1">
  <advance width="606"/>
  <unicode hex="0105"/>
  <outline>
    <contour>
      <point x="60" y="489" type="curve"/>
      <point x="109" y="369" type="line"/>
      <point x="167" y="397"/>
      <point x="227" y="412"/>
      <point x="272" y="412" type="curve" smooth="yes"/>
      <point x="340" y="412"/>
      <point x="375" y="383"/>
      <point x="377" y="332" type="curve"/>
      <point x="377" y="325" type="line"/>
      <point x="234" y="325" type="line" smooth="yes"/>
      <point x="100" y="323"/>
      <point x="26" y="264"/>
      <point x="26" y="161" type="curve" smooth="yes"/>
      <point x="26" y="62"/>
      <point x="95" y="-9"/>
      <point x="212" y="-9" type="curve" smooth="yes"/>
      <point x="285" y="-9"/>
      <point x="342" y="16"/>
      <point x="377" y="62" type="curve"/>
      <point x="377" y="0" type="line"/>
      <point x="425" y="0" type="line"/>
      <point x="397" y="-40"/>
      <point x="378" y="-80"/>
      <point x="378" y="-119" type="curve" smooth="yes"/>
      <point x="378" y="-182"/>
      <point x="426" y="-203"/>
      <point x="466" y="-203" type="curve" smooth="yes"/>
      <point x="510" y="-203"/>
      <point x="550" y="-179"/>
      <point x="576" y="-135" type="curve"/>
      <point x="530" y="-82" type="line"/>
      <point x="517" y="-101"/>
      <point x="503" y="-112"/>
      <point x="488" y="-112" type="curve" smooth="yes"/>
      <point x="476" y="-112"/>
      <point x="467" y="-105"/>
      <point x="467" y="-90" type="curve" smooth="yes"/>
      <point x="467" y="-71"/>
      <point x="483" y="-39"/>
      <point x="510" y="0" type="curve"/>
      <point x="552" y="0" type="line"/>
      <point x="552" y="352" type="line" smooth="yes"/>
      <point x="551" y="476"/>
      <point x="464" y="548"/>
      <point x="313" y="548" type="curve" smooth="yes"/>
      <point x="223" y="548"/>
      <point x="145" y="527"/>
    </contour>
    <contour>
      <point x="377" y="180" type="line"/>
      <point x="365" y="142"/>
      <point x="318" y="113"/>
      <point x="267" y="113" type="curve" smooth="yes"/>
      <point x="221" y="113"/>
      <point x="193" y="137"/>
      <point x="193" y="174" type="curve" smooth="yes"/>
      <point x="193" y="212"/>
      <point x="218" y="230"/>
      <point x="269" y="230" type="curve" smooth="yes"/>
      <point x="377" y="230" type="line"/>
    </contour>
  </outline>
</glyph>
<glyph name="dcroat" format="1">
  <advance width="692"/>
  <unicode hex="0111"/>
  <outline>
    <contour>
      <point x="436" y="268" type="curve" smooth="yes"/>
      <point x="436" y="188"/>
      <point x="389" y="133"/>
      <point x="320" y="133" type="curve" smooth="yes"/>
      <point x="250" y="133"/>
      <point x="203" y="188"/>
      <point x="203" y="268" type="curve" smooth="yes"/>
      <point x="203" y="348"/>
      <point x="250" y="403"/>
      <point x="320" y="403" type="curve" smooth="yes"/>
      <point x="389" y="403"/>
      <point x="436" y="349"/>
    </contour>
    <contour>
      <point x="436.0" y="0" type="line"/>
      <point x="614" y="0" type="line"/>
      <point x="614" y="592" type="line"/>
      <point x="679" y="592" type="line"/>
      <point x="679" y="685" type="line"/>
      <point x="614" y="685" type="line"/>
      <point x="614" y="742.0" type="line"/>
      <point x="436.0" y="742.0" type="line"/>
      <point x="436.0" y="685" type="line"/>
      <point x="352.0" y="685" type="line"/>
      <point x="352.0" y="592" type="line"/>
      <point x="436.0" y="592" type="line"/>
      <point x="436.0" y="470.66122" type="line"/>
      <point x="397.701565248" y="519.679827296"/>
      <point x="341.551957061" y="547.0"/>
      <point x="272.0" y="547.0" type="curve" smooth="yes"/>
      <point x="123" y="547"/>
      <point x="24" y="438"/>
      <point x="24" y="273" type="curve" smooth="yes"/>
      <point x="24" y="105"/>
      <point x="124" y="-7"/>
      <point x="277" y="-7" type="curve" smooth="yes"/>
      <point x="344.224419759" y="-7.0"/>
      <point x="398.613282979" y="20.1811785523"/>
      <point x="436.0" y="68.88396" type="curve"/>
    </contour>
  </outline>
</glyph>
<glyph name="Eogonek" format="1">
  <advance width="679"/>
  <unicode hex="0118"/>
  <outline>
    <contour>
      <point x="68" y="701" type="line"/>
      <point x="68" y="0" type="line"/>
      <point x="478" y="0" type="line"/>
      <point x="450" y="-42"/>
      <point x="431" y="-80"/>
      <point x="431" y="-119" type="curve" smooth="yes"/>
      <point x="431" y="-182"/>
      <point x="479" y="-203"/>
      <point x="520" y="-203" type="curve" smooth="yes"/>
      <point x="564" y="-203"/>
      <point x="603" y="-179"/>
      <point x="629" y="-135" type="curve"/>
      <point x="584" y="-82" type="line"/>
      <point x="571" y="-101"/>
      <point x="556" y="-112"/>
      <point x="541" y="-112" type="curve" smooth="yes"/>
      <point x="529" y="-112"/>
      <point x="520" y="-105"/>
      <point x="520" y="-90" type="curve" smooth="yes"/>
      <point x="520" y="-71"/>
      <point x="535" y="-40"/>
      <point x="564" y="0" type="curve"/>
      <point x="635" y="0" type="line"/>
      <point x="635" y="142" type="line"/>
      <point x="251" y="142" type="line"/>
      <point x="251" y="282" type="line"/>
      <point x="589" y="282" type="line"/>
      <point x="589" y="424" type="line"/>
      <point x="251" y="424" type="line"/>
      <point x="251" y="558" type="line"/>
      <point x="625" y="558" type="line"/>
      <point x="625" y="701" type="line"/>
    </contour>
  </outline>
</glyph>
<glyph name="eogonek" format="1">
  <advance width="603"/>
  <unicode hex="0119"/>
  <outline>
    <contour>
      <point x="24" y="269" type="curve" smooth="yes"/>
      <point x="24" y="103"/>
      <point x="135" y="-6"/>
      <point x="309" y="-6" type="curve" smooth="yes"/>
      <point x="342" y="-6"/>
      <point x="372" y="1"/>
      <point x="402" y="15" type="curve"/>
      <point x="369" y="-30"/>
      <point x="348" y="-76"/>
      <point x="348" y="-118" type="curve" smooth="yes"/>
      <point x="348" y="-183"/>
      <point x="396" y="-203"/>
      <point x="436" y="-203" type="curve" smooth="yes"/>
      <point x="481" y="-203"/>
      <point x="519" y="-179"/>
      <point x="545" y="-135" type="curve"/>
      <point x="499" y="-82" type="line"/>
      <point x="487" y="-100"/>
      <point x="474" y="-112"/>
      <point x="458" y="-112" type="curve" smooth="yes"/>
      <point x="446" y="-112"/>
      <point x="437" y="-105"/>
      <point x="437" y="-89" type="curve" smooth="yes"/>
      <point x="437" y="-43"/>
      <point x="502" y="38"/>
      <point x="547" y="90" type="curve"/>
      <point x="454" y="183" type="line"/>
      <point x="418" y="147"/>
      <point x="372" y="128"/>
      <point x="326" y="128" type="curve" smooth="yes"/>
      <point x="263" y="128"/>
      <point x="220" y="164"/>
      <point x="204" y="223" type="curve"/>
      <point x="580" y="223" type="line"/>
      <point x="592" y="422"/>
      <point x="491" y="549"/>
      <point x="306" y="547" type="curve" smooth="yes"/>
      <point x="131" y="545"/>
      <point x="24" y="433"/>
    </contour>
    <contour>
      <point x="407" y="318" type="curve"/>
      <point x="199" y="318" type="line"/>
      <point x="208" y="379"/>
      <point x="249" y="422"/>
      <point x="307" y="422" type="curve" smooth="yes"/>
      <point x="367" y="422"/>
      <point x="407" y="379"/>
    </contour>
  </outline>
</glyph>
<glyph name="Hbar" format="1">
  <advance width="868"/>
  <unicode hex="0126"/>
  <outline>
    <contour>
      <point x="292" y="415.0" type="line"/>
      <point x="292" y="511.0" type="line"/>
      <point x="575" y="511.0" type="line"/>
      <point x="575" y="415.0" type="line"/>
    </contour>
    <contour>
      <point x="292" y="269" type="line"/>
      <point x="575" y="269" type="line"/>
      <point x="575" y="0" type="line"/>
      <point x="758.0" y="0" type="line"/>
      <point x="758.0" y="511.0" type="line"/>
      <point x="843.0" y="511.0" type="line"/>
      <point x="843.0" y="615" type="line"/>
      <point x="758.0" y="615" type="line"/>
      <point x="758.0" y="701.0" type="line"/>
      <point x="575" y="701.0" type="line"/>
      <point x="575" y="615" type="line"/>
      <point x="292" y="615" type="line"/>
      <point x="292" y="701.0" type="line"/>
      <point x="109.0" y="701.0" type="line"/>
      <point x="109.0" y="615" type="line"/>
      <point x="25.0" y="615" type="line"/>
      <point x="25.0" y="511.0" type="line"/>
      <point x="109.0" y="511.0" type="line"/>
      <point x="109.0" y="0" type="line"/>
      <point x="292" y="0" type="line"/>
    </contour>
  </outline>
</glyph>
<glyph name="hbar" format="1">
  <advance width="736"/>
  <unicode hex="0127"/>
  <outline>
    <contour>
      <point x="357.0" y="389.0" type="curve" smooth="yes"/>
      <point x="413" y="389"/>
      <point x="449" y="351"/>
      <point x="449" y="290" type="curve" smooth="yes"/>
      <point x="449.0" y="0" type="line"/>
      <point x="626" y="0" type="line"/>
      <point x="626" y="341" type="line" smooth="yes"/>
      <point x="626" y="468"/>
      <point x="548" y="548"/>
      <point x="430" y="548" type="curve" smooth="yes"/>
      <point x="350.500260251" y="548.0"/>
      <point x="288.921716967" y="515.476347155"/>
      <point x="251.0" y="452.90783" type="curve"/>
      <point x="251.0" y="574" type="line"/>
      <point x="367.0" y="574" type="line"/>
      <point x="367.0" y="672" type="line"/>
      <point x="251.0" y="672" type="line"/>
      <point x="251.0" y="742.0" type="line"/>
      <point x="73" y="742.0" type="line"/>
      <point x="73" y="672" type="line"/>
      <point x="-6.0" y="672" type="line"/>
      <point x="-6.0" y="574" type="line"/>
      <point x="73" y="574" type="line"/>
      <point x="73" y="0" type="line"/>
      <point x="251.0" y="0" type="line"/>
      <point x="251.0" y="285.69229" type="line"/>
      <point x="257.643378152" y="346.667234598"/>
      <point x="296.986440938" y="388.090703651"/>
    </contour>
  </outline>
</glyph>
<glyph name="Iogonek" format="1">
  <advance width="319"/>
  <unicode hex="012E"/>
  <outline>
    <contour>
      <point x="232" y="-82" type="line"/>
      <point x="219" y="-101"/>
      <point x="205" y="-112"/>
      <point x="189" y="-112" type="curve" smooth="yes"/>
      <point x="178" y="-112"/>
      <point x="169" y="-105"/>
      <point x="169" y="-90" type="curve" smooth="yes"/>
      <point x="169" y="-71"/>
      <point x="184" y="-39"/>
      <point x="212" y="0" type="curve"/>
      <point x="251" y="0" type="line"/>
      <point x="251" y="701" type="line"/>
      <point x="68" y="701" type="line"/>
      <point x="68" y="0" type="line"/>
      <point x="126" y="0" type="line"/>
      <point x="99" y="-41"/>
      <point x="80" y="-80"/>
      <point x="80" y="-119" type="curve" smooth="yes"/>
      <point x="80" y="-182"/>
      <point x="128" y="-203"/>
      <point x="168" y="-203" type="curve" smooth="yes"/>
      <point x="212" y="-203"/>
      <point x="252" y="-179"/>
      <point x="278" y="-135" type="curve"/>
    </contour>
  </outline>
</glyph>
<glyph name="iogonek" format="1">
  <advance width="292"/>
  <unicode hex="012F"/>
  <outline>
    <contour>
      <point x="53" y="695" type="curve" smooth="yes"/>
      <point x="53" y="639"/>
      <point x="92" y="600"/>
      <point x="147" y="600" type="curve" smooth="yes"/>
      <point x="202" y="600"/>
      <point x="241" y="639"/>
      <point x="241" y="695" type="curve" smooth="yes"/>
      <point x="241" y="751"/>
      <point x="202" y="790"/>
      <point x="147" y="790" type="curve" smooth="yes"/>
      <point x="92" y="790"/>
      <point x="53" y="751"/>
    </contour>
    <contour>
      <point x="58" y="541" type="line"/>
      <point x="58" y="0" type="line"/>
      <point x="108" y="0" type="line"/>
      <point x="80" y="-41"/>
      <point x="61" y="-80"/>
      <point x="61" y="-119" type="curve" smooth="yes"/>
      <point x="61" y="-182"/>
      <point x="109" y="-203"/>
      <point x="150" y="-203" type="curve" smooth="yes"/>
      <point x="194" y="-203"/>
      <point x="234" y="-179"/>
      <point x="259" y="-135" type="curve"/>
      <point x="214" y="-82" type="line"/>
      <point x="201" y="-101"/>
      <point x="187" y="-112"/>
      <point x="172" y="-112" type="curve" smooth="yes"/>
      <point x="159" y="-112"/>
      <point x="151" y="-105"/>
      <point x="151" y="-90" type="curve" smooth="yes"/>
      <point x="151" y="-71"/>
      <point x="166" y="-39"/>
      <point x="194" y="0" type="curve"/>
      <point x="236" y="0" type="line"/>
      <point x="236" y="541" type="line"/>
    </contour>
  </outline>
</glyph>
<glyph name="idotless" format="1">
  <advance width="313"/>
  <unicode hex="0131"/>
  <outline>
    <contour>
      <point x="273" y="10" type="move" name="ogonek"/>
    </contour>
    <contour>
      <point x="157" y="541" type="move" name="abvm"/>
    </contour>
    <contour>
      <point x="68" y="541" type="line"/>
      <point x="68" y="0" type="line"/>
      <point x="245" y="0" type="line"/>
      <point x="245" y="541" type="line"/>
    </contour>
  </outline>
</glyph>
<glyph name="kgreenlandic" format="1">
  <advance width="626"/>
  <unicode hex="0138"/>
  <outline>
    <contour>
      <point x="311" y="0" type="move" name="blwm"/>
    </contour>
    <contour>
      <point x="273" y="10" type="move" name="ogonek"/>
    </contour>
    <contour>
      <point x="157" y="541" type="move" name="abvm"/>
    </contour>
    <contour>
      <point x="413.0" y="0" type="line"/>
      <point x="624" y="0" type="line"/>
      <point x="421.03436" y="331.69848" type="line"/>
      <point x="620" y="541" type="line"/>
      <point x="418.0" y="541" type="line"/>
      <point x="245.0" y="358.54645" type="line"/>
      <point x="245.0" y="541" type="line"/>
      <point x="68" y="541" type="line"/>
      <point x="68" y="0" type="line"/>
      <point x="245.0" y="0" type="line"/>
      <point x="245.0" y="146.51948" type="line"/>
      <point x="299.4233" y="203.76996" type="line"/>
    </contour>
  </outline>
</glyph>
<glyph name="ldot" format="1">
  <advance width="403"/>
  <unicode hex="0140"/>
  <outline>
    <contour>
      <point x="73" y="742" type="line"/>
      <point x="73" y="0" type="line"/>
      <point x="251" y="0" type="line"/>
      <point x="251" y="742" type="line"/>
    </contour>
    <contour>
      <point x="273" y="312" type="curve" smooth="yes"/>
      <point x="273" y="262"/>
      <point x="308" y="226"/>
      <point x="358" y="226" type="curve" smooth="yes"/>
      <point x="408" y="226"/>
      <point x="443" y="262"/>
      <point x="443" y="312" type="curve" smooth="yes"/>
      <point x="443" y="363"/>
      <point x="408" y="399"/>
      <point x="358" y="399" type="curve" smooth="yes"/>
      <point x="308" y="399"/>
      <point x="273" y="363"/>
    </contour>
  </outline>
</glyph>
<glyph name="Lslash" format="1">
  <advance width="583"/>
  <unicode hex="0141"/>
  <outline>
    <contour>
      <point x="568" y="0" type="line"/>
      <point x="568" y="156" type="line"/>
      <point x="271" y="156" type="line"/>
      <point x="271" y="379.8785" type="line"/>
      <point x="444.0" y="430.0" type="line"/>
      <point x="413.0" y="541" type="line"/>
      <point x="271" y="499.19626" type="line"/>
      <point x="271" y="701.0" type="line"/>
      <point x="88.0" y="701.0" type="line"/>
      <point x="88.0" y="445.32243" type="line"/>
      <point x="-15.0" y="415.0" type="line"/>
      <point x="16" y="306" type="line"/>
      <point x="88.0" y="326.85981" type="line"/>
      <point x="88.0" y="0" type="line"/>
    </contour>
  </outline>
</glyph>
<glyph name="lslash" format="1">
  <advance width="366"/>
  <unicode hex="0142"/>
  <outline>
    <contour>
      <point x="282" y="0" type="line"/>
      <point x="282" y="397.87597" type="line"/>
      <point x="393.0" y="430.0" type="line"/>
      <point x="363.0" y="541" type="line"/>
      <point x="282" y="517.40979" type="line"/>
      <point x="282" y="742.0" type="line"/>
      <point x="104.0" y="742.0" type="line"/>
      <point x="104.0" y="465.56959" type="line"/>
      <point x="-25.0" y="428.0" type="line"/>
      <point x="6.0" y="318" type="line"/>
      <point x="104.0" y="346.36176" type="line"/>
      <point x="104.0" y="0" type="line"/>
    </contour>
  </outline>
</glyph>
<glyph name="Eng" format="1">
  <advance width="786"/>
  <unicode hex="014A"/>
  <outline>
    <contour>
      <point x="393" y="0" type="move" name="blwm"/>
    </contour>
    <contour>
      <point x="393" y="701" type="move" name="abvm"/>
    </contour>
    <contour>
      <point x="473" y="-216" type="curve" smooth="yes"/>
      <point x="617" y="-216"/>
      <point x="712" y="-135"/>
      <point x="717" y="0" type="curve"/>
      <point x="717.0" y="701.0" type="line"/>
      <point x="547" y="701.0" type="line"/>
      <point x="547" y="279" type="line"/>
      <point x="229.0" y="701.0" type="line"/>
      <point x="68" y="701.0" type="line"/>
      <point x="68" y="0" type="line"/>
      <point x="239.0" y="0" type="line"/>
      <point x="239.0" y="420.0" type="line"/>
      <point x="547.25181" y="12.87496" type="line"/>
      <point x="542.590182747" y="-33.321499113"/>
      <point x="516.27659171" y="-57.0"/>
      <point x="472.0" y="-57.0" type="curve" smooth="yes"/>
      <point x="441" y="-57"/>
      <point x="400" y="-45"/>
      <point x="359" y="-21" type="curve"/>
      <point x="292" y="-160" type="line"/>
      <point x="342" y="-196"/>
      <point x="402" y="-216"/>
    </contour>
  </outline>
</glyph>
<glyph name="eng" format="1">
  <advance width="674"/>
  <unicode hex="014B"/>
  <outline>
    <contour>
      <point x="342" y="0" type="move" name="blwm"/>
    </contour>
    <contour>
      <point x="354" y="541" type="move" name="abvm"/>
    </contour>
    <contour>
      <point x="423" y="-201" type="curve" smooth="yes"/>
      <point x="535" y="-202"/>
      <point x="621" y="-136"/>
      <point x="621" y="-20" type="curve" smooth="yes"/>
      <point x="621" y="341" type="line" smooth="yes"/>
      <point x="621" y="468"/>
      <point x="543" y="548"/>
      <point x="425" y="548" type="curve" smooth="yes"/>
      <point x="345.500260251" y="548.0"/>
      <point x="283.921716967" y="515.476347155"/>
      <point x="246.0" y="452.90783" type="curve"/>
      <point x="246.0" y="541" type="line"/>
      <point x="68" y="541" type="line"/>
      <point x="68" y="0" type="line"/>
      <point x="246.0" y="0" type="line"/>
      <point x="246.0" y="285.69229" type="line"/>
      <point x="252.643378152" y="346.667234598"/>
      <point x="291.986440938" y="388.090703651"/>
      <point x="352.0" y="389.0" type="curve" smooth="yes"/>
      <point x="408" y="389"/>
      <point x="444" y="351"/>
      <point x="444" y="290" type="curve" smooth="yes"/>
      <point x="444.0" y="-1" type="line" smooth="yes"/>
      <point x="444" y="-41"/>
      <point x="422" y="-59"/>
      <point x="391" y="-59" type="curve"/>
      <point x="372" y="-59"/>
      <point x="351" y="-52"/>
      <point x="331" y="-40" type="curve"/>
      <point x="286" y="-167" type="line"/>
      <point x="324" y="-189"/>
      <point x="372" y="-201"/>
    </contour>
  </outline>
</glyph>
<glyph name="OE" format="1">
  <advance width="1114"/>
  <unicode hex="0152"/>
  <outline>
    <contour>
      <point x="781" y="0" type="move" name="blwm"/>
    </contour>
    <contour>
      <point x="1064" y="10" type="move" name="ogonek"/>
    </contour>
    <contour>
      <point x="554" y="701" type="move" name="abvm"/>
    </contour>
    <contour>
      <point x="401.0" y="150" type="line"/>
      <point x="292" y="150"/>
      <point x="210" y="235"/>
      <point x="210" y="348" type="curve" smooth="yes"/>
      <point x="210" y="463"/>
      <point x="292" y="548"/>
      <point x="401" y="548" type="curve"/>
      <point x="507.0" y="548" type="line"/>
      <point x="507.0" y="150.65432" type="line"/>
    </contour>
    <contour>
      <point x="401" y="0" type="curve"/>
      <point x="1070" y="0" type="line"/>
      <point x="1070" y="146" type="line"/>
      <point x="690" y="146" type="line"/>
      <point x="690" y="279" type="line"/>
      <point x="1024" y="279" type="line"/>
      <point x="1024" y="424.0" type="line"/>
      <point x="690" y="424.0" type="line"/>
      <point x="690" y="555" type="line"/>
      <point x="1060" y="555" type="line"/>
      <point x="1060" y="701.0" type="line"/>
      <point x="401.0" y="701.0" type="line"/>
      <point x="184" y="701"/>
      <point x="23" y="549"/>
      <point x="23" y="349" type="curve" smooth="yes"/>
      <point x="23" y="148"/>
      <point x="186" y="0"/>
    </contour>
  </outline>
</glyph>
<glyph name="oe" format="1">
  <advance width="1017"/>
  <unicode hex="0153"/>
  <outline>
    <contour>
      <point x="513" y="541" type="move" name="abvm"/>
    </contour>
    <contour>
      <point x="714.0" y="425.0" type="curve" smooth="yes"/>
      <point x="774" y="425"/>
      <point x="816" y="380"/>
      <point x="816" y="317" type="curve"/>
      <point x="604.22916" y="317" type="line"/>
      <point x="615.432986018" y="380.526827065"/>
      <point x="655.18652738" y="425.0"/>
    </contour>
    <contour>
      <point x="436" y="268" type="curve" smooth="yes"/>
      <point x="436" y="188"/>
      <point x="389" y="134"/>
      <point x="319" y="134" type="curve" smooth="yes"/>
      <point x="250" y="134"/>
      <point x="203" y="188"/>
      <point x="203" y="268" type="curve" smooth="yes"/>
      <point x="203" y="349"/>
      <point x="250" y="403"/>
      <point x="319" y="403" type="curve" smooth="yes"/>
      <point x="389" y="403"/>
      <point x="436" y="349"/>
    </contour>
    <contour>
      <point x="955" y="90" type="curve"/>
      <point x="862.0" y="183.0" type="line"/>
      <point x="825" y="147"/>
      <point x="780" y="128"/>
      <point x="733" y="128" type="curve" smooth="yes"/>
      <point x="668.426923298" y="128.0"/>
      <point x="621.224738777" y="165.414229314"/>
      <point x="606.13818" y="231.0" type="curve"/>
      <point x="994.0" y="231.0" type="line"/>
      <point x="1003" y="422"/>
      <point x="894" y="547"/>
      <point x="713" y="547" type="curve" smooth="yes"/>
      <point x="628.424380328" y="547.0"/>
      <point x="563.248018514" y="514.373975421"/>
      <point x="521.2954" y="457.72444" type="curve"/>
      <point x="477.65354824" y="514.335706422"/>
      <point x="409.368432502" y="547.0"/>
      <point x="320.0" y="547.0" type="curve" smooth="yes"/>
      <point x="142" y="547"/>
      <point x="24" y="437"/>
      <point x="24" y="271" type="curve" smooth="yes"/>
      <point x="24" y="104"/>
      <point x="142" y="-6"/>
      <point x="320" y="-6" type="curve" smooth="yes"/>
      <point x="408.57626419" y="-6.0"/>
      <point x="476.441323181" y="26.0877827022"/>
      <point x="520.12906" y="81.93456" type="curve"/>
      <point x="561.904309618" y="26.1336331106"/>
      <point x="627.954799843" y="-6.0"/>
      <point x="717.0" y="-6.0" type="curve" smooth="yes"/>
      <point x="818" y="-6"/>
      <point x="899" y="28"/>
    </contour>
  </outline>
</glyph>
<glyph name="Uogonek" format="1">
  <advance width="758"/>
  <unicode hex="0172"/>
  <outline>
    <contour>
      <point x="456" y="-203" type="curve" smooth="yes"/>
      <point x="500" y="-203"/>
      <point x="539" y="-179"/>
      <point x="565" y="-135" type="curve"/>
      <point x="519" y="-82" type="line"/>
      <point x="507" y="-101"/>
      <point x="492" y="-112"/>
      <point x="477" y="-112" type="curve" smooth="yes"/>
      <point x="465" y="-112"/>
      <point x="456" y="-105"/>
      <point x="456" y="-90" type="curve" smooth="yes"/>
      <point x="456.0" y="-69.388361516"/>
      <point x="475.310892773" y="-33.854669526"/>
      <point x="506.53131" y="10.83927" type="curve"/>
      <point x="628.95139992" y="50.8907288754"/>
      <point x="702.0" y="152.576145216"/>
      <point x="702.0" y="294.0" type="curve" smooth="yes"/>
      <point x="702.0" y="701.0" type="line"/>
      <point x="518" y="701.0" type="line"/>
      <point x="518" y="294" type="line" smooth="yes"/>
      <point x="518" y="203"/>
      <point x="463" y="148"/>
      <point x="381" y="148" type="curve" smooth="yes"/>
      <point x="299" y="148"/>
      <point x="239" y="204"/>
      <point x="239" y="294" type="curve" smooth="yes"/>
      <point x="239.0" y="701.0" type="line"/>
      <point x="56.0" y="701.0" type="line"/>
      <point x="56.0" y="294" type="line" smooth="yes"/>
      <point x="56" y="109"/>
      <point x="183" y="-8"/>
      <point x="380" y="-8" type="curve" smooth="yes"/>
      <point x="389.611057834" y="-8.0"/>
      <point x="399.050742658" y="-7.72151885839"/>
      <point x="408.3129" y="-7.16044" type="curve"/>
      <point x="383.921152134" y="-44.7808257051"/>
      <point x="367.0" y="-81.8904128525"/>
      <point x="367.0" y="-119.0" type="curve" smooth="yes"/>
      <point x="367" y="-182"/>
      <point x="415" y="-203"/>
    </contour>
  </outline>
</glyph>
<glyph name="uogonek" format="1">
  <advance width="661"/>
  <unicode hex="0173"/>
  <outline>
    <contour>
      <point x="423" y="541" type="line"/>
      <point x="423" y="264" type="line" smooth="yes"/>
      <point x="420" y="199"/>
      <point x="381" y="153"/>
      <point x="320" y="152" type="curve" smooth="yes"/>
      <point x="265" y="152"/>
      <point x="229" y="189"/>
      <point x="229" y="250" type="curve" smooth="yes"/>
      <point x="229" y="541" type="line"/>
      <point x="52" y="541" type="line"/>
      <point x="52" y="199" type="line" smooth="yes"/>
      <point x="52" y="73"/>
      <point x="129" y="-8"/>
      <point x="247" y="-8" type="curve" smooth="yes"/>
      <point x="326" y="-7"/>
      <point x="386" y="25"/>
      <point x="423" y="87" type="curve"/>
      <point x="423" y="0" type="line"/>
      <point x="471" y="0" type="line"/>
      <point x="443" y="-41"/>
      <point x="424" y="-80"/>
      <point x="424" y="-119" type="curve" smooth="yes"/>
      <point x="424" y="-182"/>
      <point x="473" y="-203"/>
      <point x="513" y="-203" type="curve" smooth="yes"/>
      <point x="557" y="-203"/>
      <point x="597" y="-179"/>
      <point x="622" y="-135" type="curve"/>
      <point x="577" y="-82" type="line"/>
      <point x="564" y="-101"/>
      <point x="550" y="-112"/>
      <point x="535" y="-112" type="curve" smooth="yes"/>
      <point x="522" y="-112"/>
      <point x="514" y="-105"/>
      <point x="514" y="-90" type="curve" smooth="yes"/>
      <point x="514" y="-71"/>
      <point x="529" y="-39"/>
      <point x="557" y="0" type="curve"/>
      <point x="601" y="0" type="line"/>
      <point x="601" y="541" type="line"/>
    </contour>
  </outline>
</glyph>
<glyph name="florin" format="1">
  <advance width="413"/>
  <unicode hex="0192"/>
  <note>
    florin
  </note>
  <outline>
    <contour>
      <point x="428" y="589" type="curve"/>
      <point x="488" y="713" type="line"/>
      <point x="451" y="737"/>
      <point x="393" y="752"/>
      <point x="339" y="752" type="curve" smooth="yes"/>
      <point x="220" y="753"/>
      <point x="135" y="683"/>
      <point x="121" y="573" type="curve" smooth="yes"/>
      <point x="108" y="466" type="line"/>
      <point x="35" y="466" type="line"/>
      <point x="21" y="350" type="line"/>
      <point x="94" y="350" type="line"/>
      <point x="51" y="4" type="line" smooth="yes"/>
      <point x="46" y="-37"/>
      <point x="25" y="-62"/>
      <point x="-10" y="-61" type="curve" smooth="yes"/>
      <point x="-28" y="-61"/>
      <point x="-51" y="-53"/>
      <point x="-68" y="-39" type="curve"/>
      <point x="-112" y="-163" type="line"/>
      <point x="-83" y="-187"/>
      <point x="-33" y="-202"/>
      <point x="11" y="-202" type="curve" smooth="yes"/>
      <point x="130" y="-203"/>
      <point x="211" y="-133"/>
      <point x="225" y="-23" type="curve" smooth="yes"/>
      <point x="270" y="350" type="line"/>
      <point x="391" y="350" type="line"/>
      <point x="405" y="466" type="line"/>
      <point x="284" y="466" type="line"/>
      <point x="294" y="547" type="line" smooth="yes"/>
      <point x="299" y="587"/>
      <point x="328" y="612"/>
      <point x="367" y="611" type="curve" smooth="yes"/>
      <point x="386" y="611"/>
      <point x="410" y="603"/>
    </contour>
  </outline>
</glyph>
<glyph name="jdotless" format="1">
  <advance width="311"/>
  <unicode hex="0237"/>
  <outline>
    <contour>
      <point x="152" y="541" type="move" name="abvm"/>
    </contour>
    <contour>
      <point x="70" y="541" type="line"/>
      <point x="70" y="7" type="line"/>
      <point x="70" y="-38"/>
      <point x="51" y="-61"/>
      <point x="14" y="-60" type="curve"/>
      <point x="-7" y="-60"/>
      <point x="-28" y="-54"/>
      <point x="-49" y="-42" type="curve"/>
      <point x="-90" y="-166" type="line"/>
      <point x="-50" y="-189"/>
      <point x="0" y="-201"/>
      <point x="54" y="-201" type="curve"/>
      <point x="174" y="-202"/>
      <point x="248" y="-134"/>
      <point x="248" y="-20" type="curve"/>
      <point x="248" y="541" type="line"/>
    </contour>
  </outline>
</glyph>
<glyph name="circumflex" format="1">
  <advance width="350"/>
  <unicode hex="02C6"/>
  <outline>
    <contour>
      <point x="175" y="542" type="move" name="_abvm"/>
    </contour>
    <contour>
      <point x="104" y="763" type="line"/>
      <point x="-9" y="610" type="line"/>
      <point x="117" y="610" type="line"/>
      <point x="175" y="695" type="line"/>
      <point x="233" y="610" type="line"/>
      <point x="359" y="610" type="line"/>
      <point x="246" y="763" type="line"/>
    </contour>
  </outline>
</glyph>
<glyph name="caron" format="1">
  <advance width="350"/>
  <unicode hex="02C7"/>
  <outline>
    <contour>
      <point x="180" y="542" type="move" name="_abvm"/>
    </contour>
    <contour>
      <point x="252" y="597" type="line"/>
      <point x="374" y="763" type="line"/>
      <point x="236" y="763" type="line"/>
      <point x="175" y="672" type="line"/>
      <point x="113" y="763" type="line"/>
      <point x="-25" y="763" type="line"/>
      <point x="98" y="597" type="line"/>
    </contour>
  </outline>
</glyph>
<glyph name="breve" format="1">
  <advance width="350"/>
  <unicode hex="02D8"/>
  <outline>
    <contour>
      <point x="175" y="541" type="move" name="_abvm"/>
    </contour>
    <contour>
      <point x="230" y="761" type="line"/>
      <point x="227" y="727"/>
      <point x="205" y="704"/>
      <point x="175" y="704" type="curve" smooth="yes"/>
      <point x="144" y="704"/>
      <point x="122" y="727"/>
      <point x="120" y="761" type="curve"/>
      <point x="9" y="761" type="line"/>
      <point x="13" y="663"/>
      <point x="79" y="600"/>
      <point x="175" y="600" type="curve" smooth="yes"/>
      <point x="270" y="600"/>
      <point x="336" y="663"/>
      <point x="340" y="761" type="curve"/>
    </contour>
  </outline>
</glyph>
<glyph name="dotaccent" format="1">
  <advance width="350"/>
  <unicode hex="02D9"/>
  <outline>
    <contour>
      <point x="175" y="541" type="move" name="_abvm"/>
    </contour>
    <contour>
      <point x="81" y="695" type="curve" smooth="yes"/>
      <point x="81" y="639"/>
      <point x="120" y="600"/>
      <point x="175" y="600" type="curve" smooth="yes"/>
      <point x="229" y="600"/>
      <point x="268" y="639"/>
      <point x="268" y="695" type="curve" smooth="yes"/>
      <point x="268" y="751"/>
      <point x="229" y="790"/>
      <point x="175" y="790" type="curve" smooth="yes"/>
      <point x="120" y="790"/>
      <point x="81" y="751"/>
    </contour>
  </outline>
</glyph>
<glyph name="ring" format="1">
  <advance width="350"/>
  <unicode hex="02DA"/>
  <outline>
    <contour>
      <point x="175" y="541" type="move" name="_abvm"/>
    </contour>
    <contour>
      <point x="54" y="695" type="curve" smooth="yes"/>
      <point x="54" y="629"/>
      <point x="108" y="575"/>
      <point x="175" y="575" type="curve" smooth="yes"/>
      <point x="242" y="575"/>
      <point x="297" y="629"/>
      <point x="297" y="695" type="curve" smooth="yes"/>
      <point x="297" y="762"/>
      <point x="242" y="816"/>
      <point x="175" y="816" type="curve" smooth="yes"/>
      <point x="108" y="816"/>
      <point x="54" y="762"/>
    </contour>
    <contour>
      <point x="227" y="695" type="curve" smooth="yes"/>
      <point x="227" y="668"/>
      <point x="204" y="646"/>
      <point x="175" y="646" type="curve" smooth="yes"/>
      <point x="147" y="646"/>
      <point x="124" y="668"/>
      <point x="124" y="695" type="curve" smooth="yes"/>
      <point x="124" y="723"/>
      <point x="147" y="745"/>
      <point x="175" y="745" type="curve" smooth="yes"/>
      <point x="204" y="745"/>
      <point x="227" y="723"/>
    </contour>
  </outline>
</glyph>
<glyph name="ogonek" format="1">
  <advance width="350"/>
  <unicode hex="02DB"/>
  <outline>
    <contour>
      <point x="276" y="10" type="move" name="_ogonek"/>
    </contour>
    <contour>
      <point x="138" y="19" type="line"/>
      <point x="104" y="-27"/>
      <point x="78" y="-73"/>
      <point x="78" y="-119" type="curve" smooth="yes"/>
      <point x="78" y="-182"/>
      <point x="126" y="-203"/>
      <point x="167" y="-203" type="curve" smooth="yes"/>
      <point x="211" y="-203"/>
      <point x="250" y="-179"/>
      <point x="276" y="-135" type="curve"/>
      <point x="230" y="-82" type="line"/>
      <point x="218" y="-101"/>
      <point x="203" y="-112"/>
      <point x="188" y="-112" type="curve" smooth="yes"/>
      <point x="176" y="-112"/>
      <point x="167" y="-105"/>
      <point x="167" y="-90" type="curve" smooth="yes"/>
      <point x="167" y="-68"/>
      <point x="188" y="-29"/>
      <point x="223" y="19" type="curve"/>
    </contour>
  </outline>
</glyph>
<glyph name="tilde" format="1">
  <advance width="350"/>
  <unicode hex="02DC"/>
  <outline>
    <contour>
      <point x="175" y="541" type="move" name="_abvm"/>
    </contour>
    <contour>
      <point x="-4" y="620" type="curve"/>
      <point x="105" y="620" type="line"/>
      <point x="105" y="648"/>
      <point x="114" y="662"/>
      <point x="134" y="662" type="curve"/>
      <point x="163" y="662"/>
      <point x="188" y="616"/>
      <point x="250" y="616" type="curve"/>
      <point x="321" y="616"/>
      <point x="355" y="668"/>
      <point x="355" y="776" type="curve"/>
      <point x="247" y="776" type="line"/>
      <point x="247" y="748"/>
      <point x="237" y="734"/>
      <point x="217" y="734" type="curve"/>
      <point x="189" y="734"/>
      <point x="161" y="780"/>
      <point x="102" y="780" type="curve"/>
      <point x="31" y="780"/>
      <point x="-4" y="728"/>
    </contour>
  </outline>
</glyph>
<glyph name="hungarumlaut" format="1">
  <advance width="350"/>
  <unicode hex="02DD"/>
  <outline>
    <contour>
      <point x="143" y="542" type="move" name="_abvm"/>
    </contour>
    <contour>
      <point x="-34" y="599" type="line"/>
      <point x="96" y="599" type="line"/>
      <point x="186" y="723" type="line"/>
      <point x="51" y="773" type="line"/>
    </contour>
    <contour>
      <point x="164" y="599" type="line"/>
      <point x="294" y="599" type="line"/>
      <point x="384" y="723" type="line"/>
      <point x="249" y="773" type="line"/>
    </contour>
  </outline>
</glyph>
<glyph name="commaaccentcomb" format="1">
  <advance width="243"/>
  <unicode hex="0326"/>
  <outline>
    <contour>
      <point x="117" y="0" type="move" name="_blwm"/>
    </contour>
    <contour>
      <point x="111.0" y="-302" type="line"/>
      <point x="185.0" y="-193.0" type="line" smooth="yes"/>
      <point x="198" y="-173"/>
      <point x="208" y="-151"/>
      <point x="208" y="-125" type="curve" smooth="yes"/>
      <point x="208" y="-70"/>
      <point x="168" y="-40"/>
      <point x="123" y="-40" type="curve" smooth="yes"/>
      <point x="74" y="-40"/>
      <point x="38" y="-75"/>
      <point x="38" y="-125" type="curve" smooth="yes"/>
      <point x="38.0" y="-152.165734461"/>
      <point x="48.5699849176" y="-176.769048335"/>
      <point x="71.34144" y="-192.42484" type="curve"/>
      <point x="26.0" y="-302" type="line"/>
    </contour>
  </outline>
</glyph>
<glyph name="Delta" format="1">
  <advance width="773"/>
  <unicode hex="0394"/>
  <outline>
    <contour>
      <point x="384.0" y="514" type="line"/>
      <point x="530.73346" y="135" type="line"/>
      <point x="235.79183" y="135" type="line"/>
    </contour>
    <contour>
      <point x="-6.0" y="0" type="line"/>
      <point x="778.0" y="0" type="line"/>
      <point x="484.0" y="701.0" type="line"/>
      <point x="296" y="701.0" type="line"/>
    </contour>
  </outline>
</glyph>
<glyph name="Omega" format="1">
  <advance width="854"/>
  <unicode hex="03A9"/>
  <outline>
    <contour>
      <point x="20" y="701" type="move" name="topleft"/>
    </contour>
    <contour>
      <point x="67" y="383" type="curve" smooth="yes"/>
      <point x="67" y="299"/>
      <point x="115" y="201"/>
      <point x="180" y="146" type="curve"/>
      <point x="7" y="146" type="line"/>
      <point x="7" y="0" type="line"/>
      <point x="358" y="0" type="line"/>
      <point x="358" y="134" type="line"/>
      <point x="284" y="185"/>
      <point x="230" y="283"/>
      <point x="230" y="367" type="curve" smooth="yes"/>
      <point x="230" y="478"/>
      <point x="313" y="557"/>
      <point x="427" y="557" type="curve" smooth="yes"/>
      <point x="541" y="557"/>
      <point x="625" y="478"/>
      <point x="625" y="367" type="curve" smooth="yes"/>
      <point x="625" y="283"/>
      <point x="571" y="185"/>
      <point x="497" y="135" type="curve"/>
      <point x="497" y="0" type="line"/>
      <point x="848" y="0" type="line"/>
      <point x="848" y="146" type="line"/>
      <point x="676" y="146" type="line"/>
      <point x="741" y="201"/>
      <point x="788" y="300"/>
      <point x="788" y="383" type="curve" smooth="yes"/>
      <point x="788" y="571"/>
      <point x="635" y="710"/>
      <point x="427" y="710" type="curve" smooth="yes"/>
      <point x="219" y="710"/>
      <point x="67" y="571"/>
    </contour>
  </outline>
</glyph>
<glyph name="pi" format="1">
  <advance width="730"/>
  <unicode hex="03C0"/>
  <outline>
    <contour>
      <point x="319" y="0" type="line"/>
      <point x="363.18561" y="414.0" type="line"/>
      <point x="447.0" y="414.0" type="line"/>
      <point x="447.0" y="0" type="line"/>
      <point x="594" y="0" type="line"/>
      <point x="594" y="414.0" type="line"/>
      <point x="718.0" y="414.0" type="line"/>
      <point x="717.0" y="541" type="line"/>
      <point x="164" y="541" type="line"/>
      <point x="59" y="541"/>
      <point x="-18" y="474"/>
      <point x="-17" y="384" type="curve"/>
      <point x="-16" y="340"/>
      <point x="-1" y="285"/>
      <point x="21" y="243" type="curve"/>
      <point x="143" y="286" type="line"/>
      <point x="131" y="309"/>
      <point x="122" y="336"/>
      <point x="122" y="354" type="curve"/>
      <point x="121" y="389"/>
      <point x="149" y="414"/>
      <point x="187" y="414" type="curve"/>
      <point x="216.18561" y="414.0" type="line"/>
      <point x="172" y="0" type="line"/>
    </contour>
  </outline>
</glyph>
<glyph name="uni0964" format="1">
  <advance width="327"/>
  <unicode hex="0964"/>
  <outline>
    <contour>
      <point x="295" y="-46" type="line"/>
      <point x="295" y="680" type="line"/>
      <point x="127" y="680" type="line"/>
      <point x="127" y="-46" type="line"/>
    </contour>
  </outline>
</glyph>
<glyph name="uni0A03" format="1">
  <advance width="502"/>
  <unicode hex="0A03"/>
  <outline>
    <contour>
      <point x="402" y="516" type="curve" smooth="yes"/>
      <point x="402" y="598"/>
      <point x="333" y="667"/>
      <point x="252" y="667" type="curve" smooth="yes"/>
      <point x="169" y="667"/>
      <point x="100" y="598"/>
      <point x="100" y="516" type="curve" smooth="yes"/>
      <point x="100" y="435"/>
      <point x="169" y="365"/>
      <point x="252" y="365" type="curve" smooth="yes"/>
      <point x="333" y="365"/>
      <point x="402" y="435"/>
    </contour>
    <contour>
      <point x="204" y="516" type="curve" smooth="yes"/>
      <point x="204" y="542"/>
      <point x="225" y="562"/>
      <point x="251" y="562" type="curve" smooth="yes"/>
      <point x="276" y="562"/>
      <point x="297" y="542"/>
      <point x="297" y="516" type="curve" smooth="yes"/>
      <point x="297" y="490"/>
      <point x="276" y="469"/>
      <point x="251" y="469" type="curve" smooth="yes"/>
      <point x="225" y="469"/>
      <point x="204" y="490"/>
    </contour>
    <contour>
      <point x="402" y="165" type="curve" smooth="yes"/>
      <point x="402" y="246"/>
      <point x="333" y="315"/>
      <point x="252" y="315" type="curve" smooth="yes"/>
      <point x="169" y="315"/>
      <point x="100" y="246"/>
      <point x="100" y="165" type="curve" smooth="yes"/>
      <point x="100" y="83"/>
      <point x="169" y="13"/>
      <point x="252" y="13" type="curve" smooth="yes"/>
      <point x="333" y="13"/>
      <point x="402" y="83"/>
    </contour>
    <contour>
      <point x="204" y="165" type="curve" smooth="yes"/>
      <point x="204" y="190"/>
      <point x="225" y="211"/>
      <point x="251" y="211" type="curve" smooth="yes"/>
      <point x="276" y="211"/>
      <point x="297" y="190"/>
      <point x="297" y="165" type="curve" smooth="yes"/>
      <point x="297" y="138"/>
      <point x="276" y="118"/>
      <point x="251" y="118" type="curve" smooth="yes"/>
      <point x="225" y="118"/>
      <point x="204" y="138"/>
    </contour>
  </outline>
</glyph>
<glyph name="uni0A08" format="1">
  <advance width="940"/>
  <unicode hex="0A08"/>
  <outline>
    <contour>
      <point x="998" y="680" type="move" name="abvm_bindu"/>
    </contour>
    <contour>
      <point x="1098" y="690" type="move" name="abvm_candra"/>
    </contour>
    <contour>
      <point x="998" y="670" type="move" name="abvm"/>
    </contour>
    <component base="uni0A72"/>
    <component base="uni0A40" xOffset="643"/>
  </outline>
</glyph>
<glyph name="uni0A0A" format="1">
  <advance width="677"/>
  <unicode hex="0A0A"/>
  <outline>
    <contour>
      <point x="711" y="680" type="move" name="abvm_bindu"/>
    </contour>
    <contour>
      <point x="809" y="690" type="move" name="abvm_candra"/>
    </contour>
    <component base="uni0A73"/>
    <component base="uni0A42" xOffset="405"/>
  </outline>
</glyph>
<glyph name="uni0A13" format="1">
  <advance width="677"/>
  <unicode hex="0A13"/>
  <outline>
    <contour>
      <point x="660" y="680" type="move" name="abvm_bindu"/>
    </contour>
    <contour>
      <point x="405" y="2" type="move" name="blwm"/>
    </contour>
    <contour>
      <point x="774" y="650" type="move" name="abvm_candra"/>
    </contour>
    <contour>
      <point x="405" y="30" type="move" name="blwm_caret_1"/>
    </contour>
    <contour>
      <point x="92" y="-20" type="move" name="blwm_nukta"/>
    </contour>
    <contour>
      <point x="531" y="670" type="move" name="abvm"/>
    </contour>
    <contour>
      <point x="207.0" y="532.0" type="curve" smooth="yes"/>
      <point x="207.0" y="538.744232167"/>
      <point x="207.048044767" y="545.493040027"/>
      <point x="207.1565" y="552" type="curve"/>
      <point x="468.14491" y="552" type="line"/>
      <point x="453.673584641" y="470.522382939"/>
      <point x="403.25035329" y="419.0"/>
      <point x="270.0" y="419.0" type="curve" smooth="yes"/>
      <point x="211.82018" y="419.0" type="line"/>
      <point x="208.316541059" y="457.947376334"/>
      <point x="207.0" y="496.630713982"/>
    </contour>
    <contour>
      <point x="635" y="161" type="curve" smooth="yes"/>
      <point x="635.0" y="224.581231553"/>
      <point x="594.718561662" y="291.769756091"/>
      <point x="511.82483" y="334.58041" type="curve"/>
      <point x="598.309132653" y="388.879350046"/>
      <point x="633.487605036" y="461.948557264"/>
      <point x="640.59778" y="552" type="curve"/>
      <point x="697.0" y="552" type="line"/>
      <point x="697.0" y="692" type="line"/>
      <point x="224.06828" y="692" type="line"/>
      <point x="244.891679641" y="764.117758688"/>
      <point x="289.637377108" y="816.0"/>
      <point x="383.0" y="816.0" type="curve" smooth="yes"/>
      <point x="409" y="816"/>
      <point x="455" y="812"/>
      <point x="498" y="802" type="curve"/>
      <point x="532" y="932.0" type="line"/>
      <point x="480" y="947"/>
      <point x="421" y="954"/>
      <point x="370" y="954" type="curve" smooth="yes"/>
      <point x="169.38550401" y="954.0"/>
      <point x="83.1000727639" y="843.77505553"/>
      <point x="53.68008" y="692" type="curve"/>
      <point x="-20" y="692" type="line"/>
      <point x="-20" y="552" type="line"/>
      <point x="41.03957" y="552" type="line"/>
      <point x="41.0130737014" y="549.223295144"/>
      <point x="41.0" y="546.115062345"/>
      <point x="41.0" y="543.0" type="curve" smooth="yes"/>
      <point x="41" y="271"/>
      <point x="141" y="-15"/>
      <point x="407" y="-15" type="curve" smooth="yes"/>
      <point x="551" y="-15"/>
      <point x="635" y="69"/>
    </contour>
    <contour>
      <point x="384" y="127" type="curve" smooth="yes"/>
      <point x="301.431261452" y="127.0"/>
      <point x="255.901145697" y="201.388494517"/>
      <point x="231.78162" y="296" type="curve"/>
      <point x="324" y="296" type="line" smooth="yes"/>
      <point x="415" y="296"/>
      <point x="463" y="240"/>
      <point x="463" y="192" type="curve" smooth="yes"/>
      <point x="463" y="157"/>
      <point x="437" y="127"/>
    </contour>
  </outline>
</glyph>
<glyph name="uni0A15" format="1">
  <advance width="722"/>
  <unicode hex="0A15"/>
  <outline>
    <contour>
      <point x="565" y="682" type="move" name="abvm_bindu"/>
    </contour>
    <contour>
      <point x="590" y="0" type="move" name="blwm"/>
    </contour>
    <contour>
      <point x="565" y="692" type="move" name="abvm_candra"/>
    </contour>
    <contour>
      <point x="356" y="0" type="move" name="blwm_caret_1"/>
    </contour>
    <contour>
      <point x="116" y="-40" type="move" name="blwm_nukta"/>
    </contour>
    <contour>
      <point x="568" y="672" type="move" name="abvm"/>
    </contour>
    <contour>
      <point x="676" y="0" type="line"/>
      <point x="676" y="10" type="line" smooth="yes"/>
      <point x="676.0" y="87.7305677446"/>
      <point x="647.407322787" y="186.70140999"/>
      <point x="593.17549" y="276.63391" type="curve"/>
      <point x="635.202831427" y="367.623524694"/>
      <point x="654.0" y="468.253517131"/>
      <point x="654.0" y="546.0" type="curve" smooth="yes"/>
      <point x="654" y="552" type="line"/>
      <point x="722.0" y="552" type="line"/>
      <point x="722.0" y="692" type="line"/>
      <point x="0" y="692" type="line"/>
      <point x="0" y="552" type="line"/>
      <point x="489.0" y="552" type="line" smooth="yes"/>
      <point x="489" y="508"/>
      <point x="483" y="462"/>
      <point x="469" y="418" type="curve"/>
      <point x="414" y="466"/>
      <point x="339" y="495"/>
      <point x="257" y="495" type="curve" smooth="yes"/>
      <point x="96" y="495"/>
      <point x="24" y="383"/>
      <point x="24" y="285" type="curve" smooth="yes"/>
      <point x="24" y="168"/>
      <point x="128" y="51"/>
      <point x="294" y="51" type="curve" smooth="yes"/>
      <point x="380.094354658" y="51.0"/>
      <point x="439.947967048" y="81.8714614906"/>
      <point x="487.12134" y="128.02151" type="curve"/>
      <point x="497.210376396" y="88.0316569747"/>
      <point x="501.0" y="48.1736107842"/>
      <point x="501.0" y="14.0" type="curve" smooth="yes"/>
      <point x="501.0" y="0" type="line"/>
    </contour>
    <contour>
      <point x="293.0" y="193.0" type="curve" smooth="yes"/>
      <point x="230" y="193"/>
      <point x="201" y="233"/>
      <point x="201" y="273" type="curve" smooth="yes"/>
      <point x="201" y="313"/>
      <point x="230" y="353"/>
      <point x="293" y="353" type="curve" smooth="yes"/>
      <point x="345.976164864" y="353.0"/>
      <point x="391.881344484" y="326.130256069"/>
      <point x="427.14798" y="280.09386" type="curve"/>
      <point x="395.170150103" y="224.67118102"/>
      <point x="349.843471601" y="193.0"/>
    </contour>
  </outline>
</glyph>
<glyph name="uni0A17" format="1">
  <advance width="880"/>
  <unicode hex="0A17"/>
  <outline>
    <contour>
      <point x="700" y="682" type="move" name="abvm_bindu"/>
    </contour>
    <contour>
      <point x="726" y="0" type="move" name="blwm"/>
    </contour>
    <contour>
      <point x="700" y="690" type="move" name="abvm_candra"/>
    </contour>
    <contour>
      <point x="461" y="30" type="move" name="blwm_caret_1"/>
    </contour>
    <contour>
      <point x="58" y="-30" type="move" name="blwm_nukta"/>
    </contour>
    <contour>
      <point x="720" y="672" type="move" name="abvm"/>
    </contour>
    <contour>
      <point x="544" y="166" type="curve"/>
      <point x="544" y="552" type="line"/>
      <point x="637" y="552" type="line"/>
      <point x="637" y="0" type="line"/>
      <point x="812.0" y="0" type="line"/>
      <point x="812.0" y="552" type="line"/>
      <point x="880.0" y="552" type="line"/>
      <point x="880.0" y="692" type="line"/>
      <point x="0" y="692" type="line"/>
      <point x="0" y="552" type="line"/>
      <point x="369.0" y="552" type="line"/>
      <point x="369.0" y="450.0" type="line"/>
      <point x="229.0" y="450.0" type="line" smooth="yes"/>
      <point x="103" y="450"/>
      <point x="24" y="381"/>
      <point x="24" y="266" type="curve" smooth="yes"/>
      <point x="24" y="109"/>
      <point x="200" y="-15"/>
      <point x="343" y="-15" type="curve" smooth="yes"/>
      <point x="452" y="-15"/>
      <point x="544" y="42"/>
    </contour>
    <contour>
      <point x="320" y="126" type="curve" smooth="yes"/>
      <point x="255" y="126"/>
      <point x="201" y="184"/>
      <point x="201" y="245" type="curve" smooth="yes"/>
      <point x="201" y="283"/>
      <point x="222" y="310"/>
      <point x="266" y="310" type="curve" smooth="yes"/>
      <point x="370.0" y="310" type="line"/>
      <point x="370.0" y="186.0" type="line"/>
      <point x="370" y="153"/>
      <point x="364" y="126"/>
    </contour>
  </outline>
</glyph>
<glyph name="uni0A18" format="1">
  <advance width="903"/>
  <unicode hex="0A18"/>
  <outline>
    <contour>
      <point x="723" y="680" type="move" name="abvm_bindu"/>
    </contour>
    <contour>
      <point x="749" y="0" type="move" name="blwm"/>
    </contour>
    <contour>
      <point x="723" y="690" type="move" name="abvm_candra"/>
    </contour>
    <contour>
      <point x="464" y="30" type="move" name="blwm_caret_1"/>
    </contour>
    <contour>
      <point x="94" y="0" type="move" name="blwm_nukta"/>
    </contour>
    <contour>
      <point x="723" y="670" type="move" name="abvm"/>
    </contour>
    <contour>
      <point x="835.0" y="0" type="line"/>
      <point x="835.0" y="552" type="line"/>
      <point x="903.0" y="552" type="line"/>
      <point x="903.0" y="692" type="line"/>
      <point x="660" y="692" type="line"/>
      <point x="660" y="260.3557" type="line"/>
      <point x="633.02257936" y="233.095440397"/>
      <point x="601.7904277" y="224.0"/>
      <point x="578.0" y="224.0" type="curve" smooth="yes"/>
      <point x="548.244811778" y="224.0"/>
      <point x="528.066381004" y="233.097919576"/>
      <point x="514.15124" y="245.00706" type="curve"/>
      <point x="549.002836828" y="316.921525085"/>
      <point x="563.0" y="387.571952454"/>
      <point x="563.0" y="459.0" type="curve" smooth="yes"/>
      <point x="563" y="516"/>
      <point x="554" y="572"/>
      <point x="540" y="628" type="curve"/>
      <point x="383.0" y="628" type="line"/>
      <point x="383.0" y="274" type="line"/>
      <point x="354" y="236"/>
      <point x="316" y="224"/>
      <point x="289" y="224" type="curve" smooth="yes"/>
      <point x="244.10683696" y="224.0"/>
      <point x="221.214550488" y="243.106024389"/>
      <point x="209.30966" y="265.05573" type="curve"/>
      <point x="258.216861472" y="298.105518543"/>
      <point x="304.0" y="352.647134632"/>
      <point x="304.0" y="440.0" type="curve" smooth="yes"/>
      <point x="304" y="554"/>
      <point x="207" y="692"/>
      <point x="29" y="692" type="curve" smooth="yes"/>
      <point x="0" y="692" type="line"/>
      <point x="0" y="552" type="line"/>
      <point x="36" y="552" type="line" smooth="yes"/>
      <point x="104" y="552"/>
      <point x="132" y="508"/>
      <point x="132" y="455" type="curve" smooth="yes"/>
      <point x="132" y="396"/>
      <point x="98" y="361"/>
      <point x="39" y="323" type="curve"/>
      <point x="62" y="165"/>
      <point x="184" y="83"/>
      <point x="291" y="83" type="curve" smooth="yes"/>
      <point x="360.012445344" y="83.0"/>
      <point x="405.650458623" y="99.9995869567"/>
      <point x="442.81728" y="128.04671" type="curve"/>
      <point x="485.10718434" y="98.2016181853"/>
      <point x="534.281048782" y="83.0"/>
      <point x="580.0" y="83.0" type="curve" smooth="yes"/>
      <point x="610.984585389" y="83.0"/>
      <point x="637.207989803" y="86.4280503016"/>
      <point x="660" y="92.71788" type="curve"/>
      <point x="660" y="0" type="line"/>
    </contour>
  </outline>
</glyph>
<glyph name="uni0A1B" format="1">
  <advance width="690"/>
  <unicode hex="0A1B"/>
  <outline>
    <contour>
      <point x="485" y="680" type="move" name="abvm_bindu"/>
    </contour>
    <contour>
      <point x="348" y="2" type="move" name="blwm"/>
    </contour>
    <contour>
      <point x="485" y="690" type="move" name="abvm_candra"/>
    </contour>
    <contour>
      <point x="348" y="30" type="move" name="blwm_caret_1"/>
    </contour>
    <contour>
      <point x="88" y="-92" type="move" name="blwm_nukta"/>
    </contour>
    <contour>
      <point x="505" y="670" type="move" name="abvm"/>
    </contour>
    <contour>
      <point x="666" y="157" type="curve" smooth="yes"/>
      <point x="666" y="277"/>
      <point x="503" y="322"/>
      <point x="348" y="322" type="curve" smooth="yes"/>
      <point x="275" y="322" type="line" smooth="yes"/>
      <point x="249" y="322"/>
      <point x="236" y="333"/>
      <point x="236" y="348" type="curve" smooth="yes"/>
      <point x="236" y="358"/>
      <point x="241" y="373"/>
      <point x="262" y="373" type="curve" smooth="yes"/>
      <point x="598" y="373.0" type="line"/>
      <point x="598" y="552" type="line"/>
      <point x="690" y="552" type="line"/>
      <point x="690" y="692" type="line"/>
      <point x="0" y="692" type="line"/>
      <point x="0" y="552" type="line"/>
      <point x="423.0" y="552" type="line"/>
      <point x="423.0" y="505.0" type="line"/>
      <point x="224.0" y="505.0" type="line" smooth="yes"/>
      <point x="122" y="505"/>
      <point x="59" y="460"/>
      <point x="59" y="397" type="curve" smooth="yes"/>
      <point x="59" y="346"/>
      <point x="91" y="312"/>
      <point x="133" y="290" type="curve"/>
      <point x="66" y="264"/>
      <point x="24" y="220"/>
      <point x="24" y="157" type="curve" smooth="yes"/>
      <point x="24" y="39"/>
      <point x="177" y="-15"/>
      <point x="348" y="-15" type="curve" smooth="yes"/>
      <point x="523" y="-15"/>
      <point x="666" y="36"/>
    </contour>
    <contour>
      <point x="192.0" y="155.0" type="curve" smooth="yes"/>
      <point x="192.0" y="190.085535593"/>
      <point x="238.131955325" y="195.225766853"/>
      <point x="302" y="195.89895" type="curve"/>
      <point x="302" y="112.31541" type="line"/>
      <point x="238.181069398" y="113.620447313"/>
      <point x="192.0" y="120.3879895"/>
    </contour>
    <contour>
      <point x="498.0" y="155.0" type="curve" smooth="yes"/>
      <point x="498.0" y="120.3879895"/>
      <point x="451.818930602" y="113.620447313"/>
      <point x="388.0" y="112.3151" type="curve"/>
      <point x="388.0" y="195.86751" type="line"/>
      <point x="453.996622069" y="194.911278167"/>
      <point x="498.0" y="188.929684778"/>
    </contour>
  </outline>
</glyph>
<glyph name="uni0A1F" format="1">
  <advance width="625"/>
  <unicode hex="0A1F"/>
  <outline>
    <contour>
      <point x="491" y="680" type="move" name="abvm_bindu"/>
    </contour>
    <contour>
      <point x="385" y="0" type="move" name="blwm"/>
    </contour>
    <contour>
      <point x="491" y="690" type="move" name="abvm_candra"/>
    </contour>
    <contour>
      <point x="384" y="30" type="move" name="blwm_caret_1"/>
    </contour>
    <contour>
      <point x="84" y="-40" type="move" name="blwm_nukta"/>
    </contour>
    <contour>
      <point x="471" y="670" type="move" name="abvm"/>
    </contour>
    <contour>
      <point x="596" y="28" type="curve"/>
      <point x="561" y="160" type="line"/>
      <point x="505" y="140"/>
      <point x="441" y="127"/>
      <point x="381" y="127" type="curve" smooth="yes"/>
      <point x="302.352236086" y="127.0"/>
      <point x="231.404809254" y="149.400980602"/>
      <point x="193.34284" y="210.04179" type="curve"/>
      <point x="241.064950564" y="272.85070399"/>
      <point x="334.906411938" y="319.137070963"/>
      <point x="498.0" y="320.0" type="curve"/>
      <point x="557" y="320" type="line"/>
      <point x="557" y="552" type="line"/>
      <point x="625" y="552" type="line"/>
      <point x="625" y="692" type="line"/>
      <point x="0" y="692" type="line"/>
      <point x="0" y="552" type="line"/>
      <point x="382.0" y="552" type="line"/>
      <point x="382.0" y="457.09707" type="line"/>
      <point x="202.759104982" y="437.629585599"/>
      <point x="79.7839215903" y="350.171992448"/>
      <point x="24.0" y="253.0" type="curve"/>
      <point x="71" y="68"/>
      <point x="241" y="-15"/>
      <point x="399" y="-15" type="curve" smooth="yes"/>
      <point x="466" y="-15"/>
      <point x="537" y="0"/>
    </contour>
  </outline>
</glyph>
<glyph name="uni0A20" format="1">
  <advance width="670"/>
  <unicode hex="0A20"/>
  <outline>
    <contour>
      <point x="509" y="680" type="move" name="abvm_bindu"/>
    </contour>
    <contour>
      <point x="335" y="2" type="move" name="blwm"/>
    </contour>
    <contour>
      <point x="336" y="690" type="move" name="abvm_candra"/>
    </contour>
    <contour>
      <point x="335" y="30" type="move" name="blwm_caret_1"/>
    </contour>
    <contour>
      <point x="38" y="-40" type="move" name="blwm_nukta"/>
    </contour>
    <contour>
      <point x="509" y="670" type="move" name="abvm"/>
    </contour>
    <contour>
      <point x="646" y="227" type="curve" smooth="yes"/>
      <point x="646.0" y="351.925986264"/>
      <point x="542.684903825" y="429.471801033"/>
      <point x="422.0" y="454.29107" type="curve"/>
      <point x="422.0" y="552" type="line"/>
      <point x="670" y="552" type="line"/>
      <point x="670" y="692" type="line"/>
      <point x="0" y="692" type="line"/>
      <point x="0" y="552" type="line"/>
      <point x="248.0" y="552" type="line"/>
      <point x="248.0" y="454.67143" type="line"/>
      <point x="123.060841359" y="430.267451773"/>
      <point x="24.0" y="352.567888899"/>
      <point x="24.0" y="227.0" type="curve" smooth="yes"/>
      <point x="24" y="72"/>
      <point x="183" y="-15"/>
      <point x="336" y="-15" type="curve" smooth="yes"/>
      <point x="499" y="-15"/>
      <point x="646" y="72"/>
    </contour>
    <contour>
      <point x="201" y="225" type="curve" smooth="yes"/>
      <point x="201" y="287"/>
      <point x="263" y="321"/>
      <point x="335" y="321" type="curve" smooth="yes"/>
      <point x="407" y="321"/>
      <point x="469" y="287"/>
      <point x="469" y="225" type="curve" smooth="yes"/>
      <point x="469" y="165"/>
      <point x="409" y="127"/>
      <point x="335" y="127" type="curve" smooth="yes"/>
      <point x="261" y="127"/>
      <point x="201" y="165"/>
    </contour>
  </outline>
</glyph>
<glyph name="uni0A21" format="1">
  <advance width="616"/>
  <unicode hex="0A21"/>
  <outline>
    <contour>
      <point x="494" y="680" type="move" name="abvm_bindu"/>
    </contour>
    <contour>
      <point x="313" y="2" type="move" name="blwm"/>
    </contour>
    <contour>
      <point x="494" y="690" type="move" name="abvm_candra"/>
    </contour>
    <contour>
      <point x="296" y="30" type="move" name="blwm_caret_1"/>
    </contour>
    <contour>
      <point x="73" y="-76" type="move" name="blwm_nukta"/>
    </contour>
    <contour>
      <point x="474" y="670" type="move" name="abvm"/>
    </contour>
    <contour>
      <point x="302" y="-15" type="curve" smooth="yes"/>
      <point x="487" y="-15"/>
      <point x="584" y="96"/>
      <point x="584" y="208" type="curve" smooth="yes"/>
      <point x="584.0" y="274.92239992"/>
      <point x="549.107800814" y="341.84479984"/>
      <point x="474.54402" y="386.21672" type="curve"/>
      <point x="525.530089822" y="424.675940587"/>
      <point x="552.605157037" y="479.511030876"/>
      <point x="559.9331" y="552" type="curve"/>
      <point x="616" y="552" type="line"/>
      <point x="616" y="692" type="line"/>
      <point x="0" y="692" type="line"/>
      <point x="0" y="552" type="line"/>
      <point x="383.93085" y="552" type="line"/>
      <point x="378.610376943" y="520.210031424"/>
      <point x="365.427247189" y="497.356892846"/>
      <point x="337.28018" y="484.08836" type="curve"/>
      <point x="299.949683069" y="498.079125719"/>
      <point x="254.988029154" y="504.0"/>
      <point x="212.0" y="504.0" type="curve" smooth="yes"/>
      <point x="166" y="504"/>
      <point x="121" y="497"/>
      <point x="88" y="486" type="curve"/>
      <point x="98.0" y="348.0" type="line"/>
      <point x="135" y="336"/>
      <point x="177" y="330"/>
      <point x="222" y="330" type="curve" smooth="yes"/>
      <point x="264.163306971" y="330.0"/>
      <point x="308.956413432" y="335.259598979"/>
      <point x="351.0485" y="344.1848" type="curve"/>
      <point x="393.071392114" y="324.024103211"/>
      <point x="413.0" y="280.012051605"/>
      <point x="413.0" y="236.0" type="curve" smooth="yes"/>
      <point x="413.0" y="222.332115301"/>
      <point x="411.08445678" y="208.573014258"/>
      <point x="407.22415" y="195.4455" type="curve"/>
      <point x="360.847183176" y="253.320091192"/>
      <point x="272.524768953" y="294.0"/>
      <point x="185.0" y="294.0" type="curve" smooth="yes"/>
      <point x="97" y="294"/>
      <point x="27" y="252"/>
      <point x="27" y="170" type="curve" smooth="yes"/>
      <point x="27" y="65"/>
      <point x="145" y="-15"/>
    </contour>
    <contour>
      <point x="284.0" y="106.0" type="curve" smooth="yes"/>
      <point x="230" y="106"/>
      <point x="183" y="131"/>
      <point x="183" y="160" type="curve" smooth="yes"/>
      <point x="183" y="177"/>
      <point x="199" y="186"/>
      <point x="223" y="186" type="curve" smooth="yes"/>
      <point x="261.606153393" y="186.0"/>
      <point x="319.558138001" y="161.011634681"/>
      <point x="351.26226" y="122.57896" type="curve"/>
      <point x="332.990474613" y="112.168976369"/>
      <point x="310.598297432" y="106.0"/>
    </contour>
  </outline>
</glyph>
<glyph name="uni0A22" format="1">
  <advance width="732"/>
  <unicode hex="0A22"/>
  <outline>
    <contour>
      <point x="575" y="680" type="move" name="abvm_bindu"/>
    </contour>
    <contour>
      <point x="462" y="0" type="move" name="blwm"/>
    </contour>
    <contour>
      <point x="575" y="690" type="move" name="abvm_candra"/>
    </contour>
    <contour>
      <point x="441" y="30" type="move" name="blwm_caret_1"/>
    </contour>
    <contour>
      <point x="104" y="0" type="move" name="blwm_nukta"/>
    </contour>
    <contour>
      <point x="555" y="670" type="move" name="abvm"/>
    </contour>
    <contour>
      <point x="711" y="159" type="curve" smooth="yes"/>
      <point x="711" y="251"/>
      <point x="617" y="299"/>
      <point x="516" y="299" type="curve" smooth="yes"/>
      <point x="428.173609" y="299.0"/>
      <point x="330.303630817" y="263.010479263"/>
      <point x="285.94357" y="192.52636" type="curve"/>
      <point x="278.754756224" y="211.334654689"/>
      <point x="275.0" y="233.190046207"/>
      <point x="275.0" y="258.0" type="curve" smooth="yes"/>
      <point x="275" y="334" type="line"/>
      <point x="642" y="334" type="line"/>
      <point x="642" y="552" type="line"/>
      <point x="732.0" y="552" type="line"/>
      <point x="732.0" y="692" type="line"/>
      <point x="0" y="692" type="line"/>
      <point x="0" y="552" type="line"/>
      <point x="468.0" y="552" type="line"/>
      <point x="468.0" y="459.0" type="line"/>
      <point x="248.34938" y="459.0" type="line"/>
      <point x="202.598775917" y="480.515621067"/>
      <point x="126.114059299" y="493.0"/>
      <point x="42.0" y="493.0" type="curve"/>
      <point x="16" y="358.0" type="line"/>
      <point x="48" y="340"/>
      <point x="85" y="331"/>
      <point x="123" y="327" type="curve"/>
      <point x="123.0" y="275" type="line" smooth="yes"/>
      <point x="123" y="108"/>
      <point x="272" y="-14"/>
      <point x="462" y="-14" type="curve" smooth="yes"/>
      <point x="616" y="-14"/>
      <point x="711" y="67"/>
    </contour>
    <contour>
      <point x="437" y="106" type="curve" smooth="yes"/>
      <point x="402.130932923" y="106.0"/>
      <point x="372.029444864" y="112.197852722"/>
      <point x="347.55966" y="124.45333" type="curve"/>
      <point x="382.530909109" y="165.581401821"/>
      <point x="451.448691764" y="190.0"/>
      <point x="501.0" y="190.0" type="curve" smooth="yes"/>
      <point x="532" y="190"/>
      <point x="555" y="180"/>
      <point x="555" y="159" type="curve" smooth="yes"/>
      <point x="555" y="129"/>
      <point x="504" y="106"/>
    </contour>
  </outline>
</glyph>
